<?xml version="1.0" encoding="UTF-8"?>
<svg width="761px" height="786px" viewBox="0 0 761 786" version="1.1" xmlns="http://www.w3.org/2000/svg" xmlns:xlink="http://www.w3.org/1999/xlink">
    <!-- Generator: Sketch 48.2 (47327) - http://www.bohemiancoding.com/sketch -->
    <title>undraw_ethereum_fb7n</title>
    <desc>Created with Sketch.</desc>
    <defs>
        <linearGradient x1="50.0026005%" y1="100.006572%" x2="50.0026005%" y2="-0.0186860239%" id="linearGradient-1">
            <stop stop-color="#808080" stop-opacity="0.25" offset="0%"></stop>
            <stop stop-color="#808080" stop-opacity="0.12" offset="54%"></stop>
            <stop stop-color="#808080" stop-opacity="0.1" offset="100%"></stop>
        </linearGradient>
        <linearGradient x1="49048%" y1="80587%" x2="49048%" y2="25623%" id="linearGradient-2">
            <stop stop-color="#808080" stop-opacity="0.25" offset="0%"></stop>
            <stop stop-color="#808080" stop-opacity="0.12" offset="54%"></stop>
            <stop stop-color="#808080" stop-opacity="0.1" offset="100%"></stop>
        </linearGradient>
    </defs>
    <g id="Page-1" stroke="none" stroke-width="1" fill="none" fill-rule="evenodd">
        <g id="undraw_ethereum_fb7n">
            <path d="M725.19,683.15 C718.07,686.82 710.61,689.99 703.25,693.15 C676.06,704.63 648.46,716.21 619.25,720.15 C564.43,727.54 507.81,707.53 453.92,719.98 C408.77,730.4 371.43,762.33 327.32,776.55 C306.81,783.16 285.47,785.75 263.94,785.75 L261.12,785.75 C258.453333,785.716667 255.806667,785.65 253.18,785.55 C231.35,784.73 209.43,781.5 188.03,777.37 C120.46,764.37 51.69,740.54 0.03,696.67 C150.45,669.15 460.3,626.96 725.19,683.15 Z" id="Shape" fill="#252223" fill-rule="nonzero" opacity="0.1"></path>
            <path d="M525.35,686.23 C525.35,686.23 500.68,602.47 529.98,540.85 C542.28,514.98 546.36,485.93 540.68,457.85 C537.963986,444.51809 534.030843,431.463404 528.93,418.85" id="Shape" stroke="#535461" stroke-width="2"></path>
            <path d="M547.12,379.91 C547.12,390.18 528.53,419.91 528.53,419.91 C528.53,419.91 509.94,390.14 509.94,379.91 C509.783587,373.167445 513.291261,366.869038 519.105811,363.451798 C524.92036,360.034558 532.12964,360.034558 537.944189,363.451798 C543.758739,366.869038 547.266413,373.167445 547.11,379.91 L547.12,379.91 Z" id="Shape" fill="#FF5A5F" fill-rule="nonzero"></path>
            <path d="M577.88,436.77 C572.3,445.39 540.52,460.27 540.52,460.27 C540.52,460.27 541.1,425.18 546.68,416.56 C552.371905,408.234715 563.663732,405.966133 572.12938,411.447097 C580.595027,416.928061 583.146563,428.159334 577.88,436.76 L577.88,436.77 Z" id="Shape" fill="#FF5A5F" fill-rule="nonzero"></path>
            <path d="M576.53,533.94 C567.36,538.56 532.42,535.37 532.42,535.37 C532.42,535.37 550.63,505.37 559.8,500.75 C565.747265,497.600216 572.932481,497.910662 578.58591,501.561666 C584.239339,505.212671 587.478087,511.634059 587.053689,518.35053 C586.629291,525.067001 582.608026,531.029646 576.54,533.94 L576.53,533.94 Z" id="Shape" fill="#FF5A5F" fill-rule="nonzero"></path>
            <path d="M558.96,607.23 C550.71,613.33 515.72,616.09 515.72,616.09 C515.72,616.09 528.6,583.45 536.85,577.34 C542.18606,573.326511 549.264647,572.482954 555.394451,575.130054 C561.524255,577.777153 565.763631,583.508268 566.50075,590.144403 C567.237868,596.780538 564.359495,603.302267 558.96,607.23 Z" id="Shape" fill="#FF5A5F" fill-rule="nonzero"></path>
            <path d="M501.49,462.26 C508.85,469.41 543.12,476.85 543.12,476.85 C543.12,476.85 534.72,442.78 527.36,435.62 C519.954139,428.761012 508.428035,429.065239 501.394314,436.305354 C494.360594,443.545469 494.389752,455.075551 501.46,462.28 L501.49,462.26 Z" id="Shape" fill="#FF5A5F" fill-rule="nonzero"></path>
            <path d="M482.03,548.23 C491.2,552.85 526.14,549.66 526.14,549.66 C526.14,549.66 507.93,519.66 498.76,515.04 C492.812735,511.890216 485.627519,512.200662 479.97409,515.851666 C474.320661,519.502671 471.081913,525.924059 471.506311,532.64053 C471.930709,539.357001 475.951974,545.319646 482.02,548.23 L482.03,548.23 Z" id="Shape" fill="#FF5A5F" fill-rule="nonzero"></path>
            <path d="M474.58,634.39 C482.83,640.49 517.82,643.25 517.82,643.25 C517.82,643.25 504.94,610.61 496.69,604.5 C491.35394,600.486511 484.275353,599.642954 478.145549,602.290054 C472.015745,604.937153 467.776369,610.668268 467.03925,617.304403 C466.302132,623.940538 469.180505,630.462267 474.58,634.39 Z" id="Shape" fill="#FF5A5F" fill-rule="nonzero"></path>
            <path d="M96.4,715.6 C96.4,715.6 71.73,631.85 101.03,570.19 C113.33,544.32 117.41,515.27 111.73,487.19 C109.013986,473.85809 105.080843,460.803404 99.98,448.19" id="Shape" stroke="#535461" stroke-width="2"></path>
            <path d="M118.21,409.28 C118.21,419.55 99.62,449.28 99.62,449.28 C99.62,449.28 81.03,419.51 81.03,409.28 C80.8735871,402.537445 84.381261,396.239038 90.1958107,392.821798 C96.0103604,389.404558 103.21964,389.404558 109.034189,392.821798 C114.848739,396.239038 118.356413,402.537445 118.2,409.28 L118.21,409.28 Z" id="Shape" fill="#FF5A5F" fill-rule="nonzero"></path>
            <path d="M148.93,466.14 C143.35,474.76 111.57,489.64 111.57,489.64 C111.57,489.64 112.15,454.55 117.73,445.93 C121.256485,440.171003 127.628638,436.777274 134.375448,437.064842 C141.122259,437.35241 147.182525,441.276043 150.206181,447.314226 C153.229837,453.352409 152.741294,460.555398 148.93,466.13 L148.93,466.14 Z" id="Shape" fill="#FF5A5F" fill-rule="nonzero"></path>
            <path d="M147.59,563.31 C138.42,567.93 103.48,564.74 103.48,564.74 C103.48,564.74 121.69,534.74 130.86,530.12 C139.987125,525.742437 150.939069,529.47203 155.497604,538.510128 C160.056139,547.548227 156.545484,558.572303 147.6,563.31 L147.59,563.31 Z" id="Shape" fill="#FF5A5F" fill-rule="nonzero"></path>
            <path d="M130.02,636.6 C121.77,642.7 86.78,645.46 86.78,645.46 C86.78,645.46 99.66,612.82 107.91,606.71 C116.16581,600.704509 127.719851,602.480379 133.791096,610.687955 C139.862341,618.895531 138.178818,630.463389 130.02,636.6 Z" id="Shape" fill="#FF5A5F" fill-rule="nonzero"></path>
            <path d="M72.54,491.63 C79.9,498.78 114.21,506.19 114.21,506.19 C114.21,506.19 105.81,472.12 98.45,464.96 C91.0441394,458.101012 79.5180346,458.405239 72.4843143,465.645354 C65.4505939,472.885469 65.4797517,484.415551 72.55,491.62 L72.54,491.63 Z" id="Shape" fill="#FF5A5F" fill-rule="nonzero"></path>
            <path d="M53.12,577.6 C62.29,582.22 97.23,579.03 97.23,579.03 C97.23,579.03 79.02,549.03 69.85,544.41 C60.7335145,540.100147 49.8432798,543.844236 45.3043431,552.848857 C40.7654065,561.853478 44.2329991,572.834881 53.12,577.6 Z" id="Shape" fill="#FF5A5F" fill-rule="nonzero"></path>
            <path d="M45.63,663.76 C53.88,669.86 88.87,672.62 88.87,672.62 C88.87,672.62 75.99,639.98 67.74,633.85 C59.4841904,627.844509 47.9301486,629.620379 41.8589041,637.827955 C35.7876595,646.035531 37.4711817,657.603389 45.63,663.74 L45.63,663.76 Z" id="Shape" fill="#FF5A5F" fill-rule="nonzero"></path>
            <path d="M118.21,409.28 C118.21,419.55 99.62,449.28 99.62,449.28 C99.62,449.28 81.03,419.51 81.03,409.28 C80.8735871,402.537445 84.381261,396.239038 90.1958107,392.821798 C96.0103604,389.404558 103.21964,389.404558 109.034189,392.821798 C114.848739,396.239038 118.356413,402.537445 118.2,409.28 L118.21,409.28 Z" id="Shape" fill="#000000" fill-rule="nonzero" opacity="0.25"></path>
            <path d="M148.93,466.14 C143.35,474.76 111.57,489.64 111.57,489.64 C111.57,489.64 112.15,454.55 117.73,445.93 C121.256485,440.171003 127.628638,436.777274 134.375448,437.064842 C141.122259,437.35241 147.182525,441.276043 150.206181,447.314226 C153.229837,453.352409 152.741294,460.555398 148.93,466.13 L148.93,466.14 Z" id="Shape" fill="#000000" fill-rule="nonzero" opacity="0.25"></path>
            <path d="M147.59,563.31 C138.42,567.93 103.48,564.74 103.48,564.74 C103.48,564.74 121.69,534.74 130.86,530.12 C139.987125,525.742437 150.939069,529.47203 155.497604,538.510128 C160.056139,547.548227 156.545484,558.572303 147.6,563.31 L147.59,563.31 Z" id="Shape" fill="#000000" fill-rule="nonzero" opacity="0.25"></path>
            <path d="M130.02,636.6 C121.77,642.7 86.78,645.46 86.78,645.46 C86.78,645.46 99.66,612.82 107.91,606.71 C116.16581,600.704509 127.719851,602.480379 133.791096,610.687955 C139.862341,618.895531 138.178818,630.463389 130.02,636.6 Z" id="Shape" fill="#000000" fill-rule="nonzero" opacity="0.25"></path>
            <path d="M72.54,491.63 C79.9,498.78 114.21,506.19 114.21,506.19 C114.21,506.19 105.81,472.12 98.45,464.96 C91.0441394,458.101012 79.5180346,458.405239 72.4843143,465.645354 C65.4505939,472.885469 65.4797517,484.415551 72.55,491.62 L72.54,491.63 Z" id="Shape" fill="#000000" fill-rule="nonzero" opacity="0.25"></path>
            <path d="M53.12,577.6 C62.29,582.22 97.23,579.03 97.23,579.03 C97.23,579.03 79.02,549.03 69.85,544.41 C60.7335145,540.100147 49.8432798,543.844236 45.3043431,552.848857 C40.7654065,561.853478 44.2329991,572.834881 53.12,577.6 Z" id="Shape" fill="#000000" fill-rule="nonzero" opacity="0.25"></path>
            <path d="M45.63,663.76 C53.88,669.86 88.87,672.62 88.87,672.62 C88.87,672.62 75.99,639.98 67.74,633.85 C59.4841904,627.844509 47.9301486,629.620379 41.8589041,637.827955 C35.7876595,646.035531 37.4711817,657.603389 45.63,663.74 L45.63,663.76 Z" id="Shape" fill="#000000" fill-rule="nonzero" opacity="0.25"></path>
            <path d="M398.06,660.71 C398.06,660.71 384.7,615.36 400.56,581.99 C407.300494,568.034288 409.332167,552.268643 406.35,537.06 C404.878575,529.850509 402.749676,522.791 399.99,515.97" id="Shape" stroke="#535461" stroke-width="2"></path>
            <path d="M409.86,494.85 C409.86,500.41 399.8,516.52 399.8,516.52 C399.8,516.52 389.74,500.43 389.74,494.85 C389.74,489.291254 394.246254,484.785 399.805,484.785 C405.363746,484.785 409.87,489.291254 409.87,494.85 L409.86,494.85 Z" id="Shape" fill="#FF5A5F" fill-rule="nonzero"></path>
            <path d="M426.5,525.66 C423.5,530.32 406.27,538.38 406.27,538.38 C406.27,538.38 406.58,519.38 409.6,514.72 C412.620998,510.055955 418.850955,508.724002 423.515,511.745 C428.179045,514.765998 429.510998,520.995955 426.49,525.66 L426.5,525.66 Z" id="Shape" fill="#FF5A5F" fill-rule="nonzero"></path>
            <path d="M425.77,578.26 C420.77,580.76 401.89,579.03 401.89,579.03 C401.89,579.03 411.75,562.79 416.71,560.29 C419.92539,558.671587 423.759947,558.891502 426.769229,560.866905 C429.778511,562.842308 431.505337,566.273089 431.299229,569.866905 C431.09312,573.460721 428.98539,576.671587 425.77,578.29 L425.77,578.26 Z" id="Shape" fill="#FF5A5F" fill-rule="nonzero"></path>
            <path d="M416.26,617.94 C411.79,621.24 392.85,622.74 392.85,622.74 C392.85,622.74 399.85,605.07 404.29,601.74 C408.757984,598.426292 415.066292,599.362016 418.38,603.83 C421.693708,608.297984 420.757984,614.606292 416.29,617.92 L416.26,617.94 Z" id="Shape" fill="#FF5A5F" fill-rule="nonzero"></path>
            <path d="M385.12,539.46 C389.12,543.33 407.68,547.34 407.68,547.34 C407.68,547.34 403.12,528.85 399.12,525.02 C395.105762,521.33497 388.887285,521.515986 385.0942,525.428282 C381.301115,529.340578 381.312554,535.561679 385.12,539.46 Z" id="Shape" fill="#FF5A5F" fill-rule="nonzero"></path>
            <path d="M374.61,586 C379.61,588.5 398.49,586.77 398.49,586.77 C398.49,586.77 388.63,570.53 383.67,568.03 C380.45461,566.411587 376.620053,566.631502 373.610771,568.606905 C370.601489,570.582308 368.874663,574.013089 369.080771,577.606905 C369.28688,581.200721 371.39461,584.411587 374.61,586.03 L374.61,586 Z" id="Shape" fill="#FF5A5F" fill-rule="nonzero"></path>
            <path d="M370.57,632.65 C375.04,635.95 393.98,637.45 393.98,637.45 C393.98,637.45 386.98,619.78 382.54,616.45 C378.072016,613.136292 371.763708,614.072016 368.45,618.54 C365.136292,623.007984 366.072016,629.316292 370.54,632.63 L370.57,632.65 Z" id="Shape" fill="#FF5A5F" fill-rule="nonzero"></path>
            <path d="M409.86,494.85 C409.86,500.41 399.8,516.52 399.8,516.52 C399.8,516.52 389.74,500.43 389.74,494.85 C389.74,489.291254 394.246254,484.785 399.805,484.785 C405.363746,484.785 409.87,489.291254 409.87,494.85 L409.86,494.85 Z" id="Shape" fill="#FFFFFF" fill-rule="nonzero" opacity="0.5"></path>
            <path d="M426.5,525.66 C423.5,530.32 406.27,538.38 406.27,538.38 C406.27,538.38 406.58,519.38 409.6,514.72 C412.620998,510.055955 418.850955,508.724002 423.515,511.745 C428.179045,514.765998 429.510998,520.995955 426.49,525.66 L426.5,525.66 Z" id="Shape" fill="#FFFFFF" fill-rule="nonzero" opacity="0.5"></path>
            <path d="M425.77,578.26 C420.77,580.76 401.89,579.03 401.89,579.03 C401.89,579.03 411.75,562.79 416.71,560.29 C419.92539,558.671587 423.759947,558.891502 426.769229,560.866905 C429.778511,562.842308 431.505337,566.273089 431.299229,569.866905 C431.09312,573.460721 428.98539,576.671587 425.77,578.29 L425.77,578.26 Z" id="Shape" fill="#FFFFFF" fill-rule="nonzero" opacity="0.5"></path>
            <path d="M416.26,617.94 C411.79,621.24 392.85,622.74 392.85,622.74 C392.85,622.74 399.85,605.07 404.29,601.74 C408.757984,598.426292 415.066292,599.362016 418.38,603.83 C421.693708,608.297984 420.757984,614.606292 416.29,617.92 L416.26,617.94 Z" id="Shape" fill="#FFFFFF" fill-rule="nonzero" opacity="0.5"></path>
            <path d="M385.12,539.46 C389.12,543.33 407.68,547.34 407.68,547.34 C407.68,547.34 403.12,528.85 399.12,525.02 C395.105762,521.33497 388.887285,521.515986 385.0942,525.428282 C381.301115,529.340578 381.312554,535.561679 385.12,539.46 Z" id="Shape" fill="#FFFFFF" fill-rule="nonzero" opacity="0.5"></path>
            <path d="M374.61,586 C379.61,588.5 398.49,586.77 398.49,586.77 C398.49,586.77 388.63,570.53 383.67,568.03 C380.45461,566.411587 376.620053,566.631502 373.610771,568.606905 C370.601489,570.582308 368.874663,574.013089 369.080771,577.606905 C369.28688,581.200721 371.39461,584.411587 374.61,586.03 L374.61,586 Z" id="Shape" fill="#FFFFFF" fill-rule="nonzero" opacity="0.5"></path>
            <path d="M370.57,632.65 C375.04,635.95 393.98,637.45 393.98,637.45 C393.98,637.45 386.98,619.78 382.54,616.45 C378.072016,613.136292 371.763708,614.072016 368.45,618.54 C365.136292,623.007984 366.072016,629.316292 370.54,632.63 L370.57,632.65 Z" id="Shape" fill="#FFFFFF" fill-rule="nonzero" opacity="0.5"></path>
            <polyline id="Shape" stroke="#535461" stroke-width="2" points="306.01 101.75 306.01 213.94 357.93 147.18"></polyline>
            <path d="M253.16,136.98 L306.01,213.94" id="Shape" stroke="#535461" stroke-width="2"></path>
            <g id="Group" opacity="0.7" transform="translate(209.000000, 0.000000)" fill="url(#linearGradient-1)" fill-rule="nonzero">
                <path d="M192.51,88.56 C192.500842,75.1930478 186.096384,62.6374476 175.280658,54.7827941 C164.464933,46.9281406 150.543844,44.7228134 137.83,48.85 C138.17408,46.5021706 138.351191,44.132892 138.36,41.76 C138.344448,19.2919462 120.554558,0.863474264 98.1010176,0.055889776 C75.6474769,-0.751694712 56.5796365,16.3511185 54.95,38.76 C42.2323548,34.6209648 28.3018266,36.820536 17.4781636,44.6766439 C6.65450048,52.5327517 0.246041614,65.0957682 0.24,78.47 C0.24,99.47 15.67,129.22 35.79,134.47 L38.92,136.26 L37.22,142.08 L47.28,142.08 L45.12,136.27 L48.23,134.49 C63.77,130.41 76.52,111.69 81.51,93.73 C84.2427051,95.5506791 87.2514082,96.9182715 90.42,97.78 L93.55,99.57 L91.85,105.39 L101.91,105.39 L99.72,99.56 L102.83,97.78 C105.145585,97.1599579 107.37578,96.25646 109.47,95.09 C112.16,115.24 126.47,139.83 144.56,144.58 L147.69,146.37 L145.99,152.19 L156.05,152.19 L153.86,146.36 L156.97,144.58 C177.12,139.31 192.51,109.51 192.51,88.56 Z" id="Shape"></path>
            </g>
            <polygon id="Shape" fill="#FF9A87" fill-rule="nonzero" points="257.87 139.97 248.14 139.97 249.84 134.13 255.68 134.13"></polygon>
            <path d="M293.12,78.39 C293.12,100.71 275.03,133.39 252.71,133.39 C230.39,133.39 212.3,100.69 212.3,78.39 C212.647171,56.3227559 230.635025,38.6156689 252.705,38.6156689 C274.774975,38.6156689 292.762829,56.3227559 293.11,78.39 L293.12,78.39 Z" id="Shape" fill="#FFAA91" fill-rule="nonzero"></path>
            <path d="M293.12,78.39 C293.12,100.71 275.03,133.39 252.71,133.39 C230.39,133.39 212.3,100.69 212.3,78.39 C212.647171,56.3227559 230.635025,38.6156689 252.705,38.6156689 C274.774975,38.6156689 292.762829,56.3227559 293.11,78.39 L293.12,78.39 Z" id="Shape" fill="#FF5A5F" fill-rule="nonzero" opacity="0.2"></path>
            <polygon id="Shape" fill="#535461" fill-rule="nonzero" points="255.68 134.38 249.84 134.38 246.43 132.43 259.09 132.43"></polygon>
            <path d="M238.12,46.98 C238.12,46.98 221.12,56.23 218.65,74.73" id="Shape" fill="#FFFFFF" fill-rule="nonzero" opacity="0.1"></path>
            <polygon id="Shape" fill="#FF5A5F" fill-rule="nonzero" points="310.71 104.45 300.98 104.45 302.68 98.61 308.52 98.61"></polygon>
            <polygon id="Shape" fill="#000000" fill-rule="nonzero" opacity="0.07" points="310.71 104.45 300.98 104.45 302.68 98.61 308.52 98.61"></polygon>
            <path d="M346.01,42.85 C346.01,65.17 327.92,97.85 305.6,97.85 C283.28,97.85 265.19,65.15 265.19,42.85 C265.537171,20.7827559 283.525025,3.07566894 305.595,3.07566894 C327.664975,3.07566894 345.652829,20.7827559 346,42.85 L346.01,42.85 Z" id="Shape" fill="#FF5A5F" fill-rule="nonzero"></path>
            <polygon id="Shape" fill="#535461" fill-rule="nonzero" points="308.52 98.85 302.68 98.85 299.27 96.91 311.93 96.91"></polygon>
            <path d="M290.99,11.46 C290.99,11.46 273.99,20.71 271.52,39.21" id="Shape" fill="#FFFFFF" fill-rule="nonzero" opacity="0.1"></path>
            <polygon id="Shape" fill="#FF9A87" fill-rule="nonzero" points="363.11 149.74 353.37 149.74 355.08 143.9 360.92 143.9"></polygon>
            <path d="M398.4,88.15 C398.4,110.47 380.31,143.15 357.99,143.15 C335.67,143.15 317.58,110.45 317.58,88.15 C317.927171,66.0827559 335.915025,48.3756689 357.985,48.3756689 C380.054975,48.3756689 398.042829,66.0827559 398.39,88.15 L398.4,88.15 Z" id="Shape" fill="#FFAA91" fill-rule="nonzero"></path>
            <path d="M398.4,88.15 C398.4,110.47 380.31,143.15 357.99,143.15 C335.67,143.15 317.58,110.45 317.58,88.15 C317.927171,66.0827559 335.915025,48.3756689 357.985,48.3756689 C380.054975,48.3756689 398.042829,66.0827559 398.39,88.15 L398.4,88.15 Z" id="Shape" fill="#FF5A5F" fill-rule="nonzero" opacity="0.2"></path>
            <polygon id="Shape" fill="#535461" fill-rule="nonzero" points="360.92 144.15 355.08 144.15 351.67 142.2 364.33 142.2"></polygon>
            <path d="M343.39,56.75 C343.39,56.75 326.39,66 323.92,84.5" id="Shape" fill="#FFFFFF" fill-rule="nonzero" opacity="0.1"></path>
            <g id="Group-2" transform="translate(282.000000, 28.000000)" fill="#FFFFFF">
                <path d="M13.7571593,17 C14.549917,11.7744261 18.2877444,7.908402 24.3962706,7.908402 C28.9205439,7.908402 32.3793912,10.123455 33.8689678,13.5504709 L41,9.48933196 C38.3402222,3.84851383 32.2203347,0 24.290233,0 C14.971543,0 8.41740604,5.21932019 6,12.5623896 L13.7571593,17 Z" id="Fill-8"></path>
                <path d="M33.8720528,24.7118436 C32.3831206,28.0725182 28.871512,30.2446915 24.297462,30.2446915 C18.461605,30.2446915 14.6837551,26.7773093 13.6415026,22 L6,26.2879264 C8.62455837,33.1466462 15.1493619,38 24.1902084,38 C32.1698753,38 38.340111,34.174473 41,28.6416251 L33.8720528,24.7118436 Z" id="Fill-11"></path>
                <path d="M0.552770449,14 C0.192612137,15.6495152 0,17.3778096 0,19.1727633 C0,21.2064786 0.246701847,23.1541428 0.709762533,25 L11,19.5412076 L0.552770449,14 Z" id="Fill-13"></path>
            </g>
            <g id="Group-2" opacity="0.511039402" transform="translate(335.000000, 78.000000)" fill="#FFFFFF">
                <path d="M13.7571593,17 C14.549917,11.7744261 18.2877444,7.908402 24.3962706,7.908402 C28.9205439,7.908402 32.3793912,10.123455 33.8689678,13.5504709 L41,9.48933196 C38.3402222,3.84851383 32.2203347,0 24.290233,0 C14.971543,0 8.41740604,5.21932019 6,12.5623896 L13.7571593,17 Z" id="Fill-8"></path>
                <path d="M33.8720528,24.7118436 C32.3831206,28.0725182 28.871512,30.2446915 24.297462,30.2446915 C18.461605,30.2446915 14.6837551,26.7773093 13.6415026,22 L6,26.2879264 C8.62455837,33.1466462 15.1493619,38 24.1902084,38 C32.1698753,38 38.340111,34.174473 41,28.6416251 L33.8720528,24.7118436 Z" id="Fill-11"></path>
                <path d="M0.552770449,14 C0.192612137,15.6495152 0,17.3778096 0,19.1727633 C0,21.2064786 0.246701847,23.1541428 0.709762533,25 L11,19.5412076 L0.552770449,14 Z" id="Fill-13"></path>
            </g>
            <g id="Group-2" opacity="0.511039402" transform="translate(228.000000, 69.000000)" fill="#FFFFFF">
                <path d="M13.7571593,17 C14.549917,11.7744261 18.2877444,7.908402 24.3962706,7.908402 C28.9205439,7.908402 32.3793912,10.123455 33.8689678,13.5504709 L41,9.48933196 C38.3402222,3.84851383 32.2203347,0 24.290233,0 C14.971543,0 8.41740604,5.21932019 6,12.5623896 L13.7571593,17 Z" id="Fill-8"></path>
                <path d="M33.8720528,24.7118436 C32.3831206,28.0725182 28.871512,30.2446915 24.297462,30.2446915 C18.461605,30.2446915 14.6837551,26.7773093 13.6415026,22 L6,26.2879264 C8.62455837,33.1466462 15.1493619,38 24.1902084,38 C32.1698753,38 38.340111,34.174473 41,28.6416251 L33.8720528,24.7118436 Z" id="Fill-11"></path>
                <path d="M0.552770449,14 C0.192612137,15.6495152 0,17.3778096 0,19.1727633 C0,21.2064786 0.246701847,23.1541428 0.709762533,25 L11,19.5412076 L0.552770449,14 Z" id="Fill-13"></path>
            </g>
            <path d="M356.03,739.95 C349.03,738.35 343.28,729.95 343.28,729.95 L342.71,730.04 L349.61,638.43 C349.61,638.43 356.93,625.12 349.61,605.81 C348.15,601.97 346.78,597.94 345.5,593.95 L346.61,593.49 L346.39,592.25 L346.61,592.16 C346.61,592.16 325.32,475.48 325.12,437.5 C325.12,432.91 325.53,429.63 326.35,428.06 C329.71,421.65 335.73,412.43 335.48,400.92 C335.7,389.68 330.07,376.17 309.88,360.92 C311.49,348.12 315.46,321.17 322.36,302.92 C322.36,302.92 325.02,290.92 322.36,272.92 L318.36,222.33 C318.36,222.33 319.03,199.03 304.36,199.03 C289.69,199.03 305.03,225.03 305.03,225.03 L303.7,290.93 C303.7,290.93 303.26,294.34 302.51,299.7 C298.980009,295.704369 294.304553,292.893509 289.12,291.65 C289.326545,289.241469 288.984652,286.817445 288.12,284.56 C287.82,284.75 287.51,284.92 287.2,285.09 C287.08,284.69 286.94,284.29 286.79,283.9 C283.66787,285.835143 280.073112,286.87309 276.4,286.9 C273.04,286.9 269.74,286.09 266.4,285.84 C260.732656,285.441735 255.072036,286.703125 250.11,289.47 C249.42,289.4 248.72,289.31 248.02,289.21 C234.92,287.21 225.81,303.91 212.69,310.74 C203.49,315.53 199.77,326.74 198.33,337 C196.89,347.26 196.72,358.19 191.33,367.09 C187.67,373.17 179.48,376.68 177.94,383.6 C174.94,397.1 178.27,393.77 181.6,411.74 C182.7,417.68 184.13,420.05 185.53,425.93 C187.05,432.27 185.37,438.93 185.14,445.41 C184.56,462.48 195.54,478.96 210.79,486.3 C214.630939,488.332487 218.773886,489.733729 223.06,490.45 C222.372362,498.081827 219.19209,505.275216 214.01,510.92 C214.52,511.09 215.01,511.23 215.55,511.35 L215.34,511.58 C224.14,514.46 233.86,511.13 241.62,506.07 C243.882456,504.58855 246.043891,502.958286 248.09,501.19 C246.888626,504.015264 245.912257,506.930995 245.17,509.91 L245.11,509.97 L243.51,509.58 C243.51,509.58 243.97,509.84 244.8,510.26 C240.38,514.36 197.01,554.39 180.34,562.04 C176.67,562.12 164.67,583.53 195.91,591.13 C220.54,597.13 225.91,588.47 238.51,603.78 C242.048691,607.878755 246.610096,610.966847 251.73,612.73 C248.13,624.21 242.44,638.62 235.84,641.73 C224.52,647.06 205.84,675.01 203.84,685 L187.12,720.63 L186.81,720.63 L183.42,724.26 C182.048446,725.729328 181.490225,727.780782 181.92816,729.74249 C182.366095,731.704198 183.743776,733.323478 185.61,734.07 C195.27,737.92 210.99,743.26 218.1,740.6 C228.75,736.6 212.1,732.6 212.1,732.6 C205.44,729.94 202.1,721.28 202.1,721.28 L255.68,660.37 C255.68,660.37 276.68,652.23 280.97,635.08 C281.24,633.99 284.4,625.58 288.04,616.01 C291.44,615.76 294.67,615.43 297.61,615.11 C302.37,614.58 308.01,612.7 313.73,610.22 C317.2,621.95 320.18,634.67 318.91,640.4 C316.25,652.4 312.91,667.69 318.91,687.66 L329.23,731.93 L330.17,731.93 L329.11,732.09 L326.36,736.16 C325.222402,737.839827 324.989612,739.973692 325.738248,741.859294 C326.486884,743.744896 328.119962,745.13796 330.1,745.58 C340.25,747.88 356.53,750.69 363.1,746.96 C373.12,741.31 356.03,739.95 356.03,739.95 Z M268.28,413.25 C268.058139,408.423512 268.128267,403.588025 268.49,398.77 C269.357018,407.538595 270.881304,416.229699 273.05,424.77 C275.954005,430.900324 277.521976,437.577837 277.65,444.36 C277.572467,453.837812 274.046086,462.963035 267.73,470.03 L267.67,470.09 C272.61,451.71 269.12,432.26 268.28,413.24 L268.28,413.25 Z" id="Shape" fill="url(#linearGradient-2)" fill-rule="nonzero"></path>
            <path d="M273.64,372.43 C267.9,382.14 268.94,399.89 276.91,432.35 C276.91,432.35 286.02,457.08 267.8,477.9 C249.58,498.72 245.68,516.9 245.68,516.9 C245.68,516.9 188.48,552.34 181.26,568.3 C192,544.55 156.74,578.55 197.53,588.47 C221.6,594.33 226.81,585.87 239.17,600.83 C251.53,615.79 279.51,613.83 297.08,611.89 C314.65,609.95 344.58,589.12 344.58,589.12 C344.58,589.12 311.4,449.23 318.58,435.56 C325.35,422.63 349.7,398.06 302,366.24 C292.47,359.94 279.45,362.6 273.64,372.43 Z" id="Shape" fill="#F0898B" fill-rule="nonzero"></path>
            <path d="M273.64,372.43 C267.9,382.14 268.94,399.89 276.91,432.35 C276.91,432.35 286.02,457.08 267.8,477.9 C249.58,498.72 245.68,516.9 245.68,516.9 C245.68,516.9 188.11,552.18 181.26,568.3 C191.35,544.55 156.74,578.55 197.53,588.47 C221.6,594.33 226.81,585.87 239.17,600.83 C251.53,615.79 279.51,613.83 297.08,611.89 C314.65,609.95 344.58,589.12 344.58,589.12 C344.58,589.12 311.4,449.23 318.58,435.56 C325.35,422.63 349.7,398.06 302,366.24 C292.47,359.94 279.45,362.6 273.64,372.43 Z" id="Shape" fill="#000000" fill-rule="nonzero" opacity="0.1"></path>
            <path d="M256.12,595.01 C256.12,595.01 247.66,632.75 236.6,637.95 C225.54,643.15 207.32,670.48 205.37,680.24 L188.78,715.7 L203.78,715.7 L256.12,656.18 C256.12,656.18 276.65,648.18 280.85,631.45 C281.5,628.85 299.07,583.3 299.07,583.3 L256.12,595.01 Z" id="Shape" fill="#FDB797" fill-rule="nonzero"></path>
            <path d="M304.88,583.3 C304.88,583.3 320.5,624.94 317.88,636.66 C315.26,648.38 312.02,663.34 317.88,682.86 L327.97,726.13 L340.97,725.48 L347.8,634.71 C347.8,634.71 354.96,621.71 347.8,602.83 C340.64,583.95 335.44,560.54 335.44,560.54 L304.88,583.3 Z" id="Shape" fill="#FDB797" fill-rule="nonzero"></path>
            <path d="M308.12,370.53 C308.12,370.53 312.02,330.84 321.12,306.76 C321.12,306.76 323.72,295.05 321.12,277.48 L317.22,228.03 C317.22,228.03 317.87,205.26 303.56,205.26 C289.25,205.26 304.21,230.64 304.21,230.64 L302.91,295.06 C302.91,295.06 294.45,360.78 288.6,367.94 L308.12,370.53 Z" id="Shape" fill="#FDB797" fill-rule="nonzero"></path>
            <path d="M308.12,370.53 C308.12,370.53 312.02,330.84 321.12,306.76 C321.12,306.76 323.72,295.05 321.12,277.48 L317.22,228.03 C317.22,228.03 317.87,205.26 303.56,205.26 C289.25,205.26 304.21,230.64 304.21,230.64 L302.91,295.06 C302.91,295.06 294.45,360.78 288.6,367.94 L308.12,370.53 Z" id="Shape" fill="#000000" fill-rule="nonzero" opacity="0.05"></path>
            <path d="M304.88,323.68 C304.88,323.68 302.28,354.91 310.09,365.32 C310.09,365.32 291.87,355.56 276.26,364.02 C276.26,364.02 286.02,337.34 282.77,325.63 L304.88,323.68 Z" id="Shape" fill="#FDB797" fill-rule="nonzero"></path>
            <path d="M273.64,365.92 C267.9,375.63 265.03,393.38 273,425.84 C273,425.84 286,450.57 267.79,471.39 C249.58,492.21 245.67,510.39 245.67,510.39 C245.67,510.39 197.52,555.29 181.25,561.79 C181.25,561.79 173.44,576.1 197.52,581.96 C221.6,587.82 226.8,579.36 239.16,594.32 C251.52,609.28 279.5,607.32 297.07,605.38 C314.64,603.44 344.89,590.74 344.89,590.74 C344.89,590.74 317.89,442.74 325.04,429.05 C331.81,416.12 349.65,391.55 301.96,359.73 C292.47,353.43 279.45,356.1 273.64,365.92 Z" id="Shape" fill="#000000" fill-rule="nonzero" opacity="0.1"></path>
            <path d="M273.64,364.62 C267.9,374.33 265.03,392.08 273,424.54 C273,424.54 286,449.27 267.79,470.09 C249.58,490.91 245.67,509.09 245.67,509.09 C245.67,509.09 197.52,553.99 181.25,560.49 C181.25,560.49 173.44,574.8 197.52,580.66 C221.6,586.52 226.8,578.06 239.16,593.02 C251.52,607.98 279.5,606.02 297.07,604.08 C314.64,602.14 344.89,589.44 344.89,589.44 C344.89,589.44 317.89,441.44 325.04,427.75 C331.81,414.82 349.65,390.25 301.96,358.43 C292.47,352.13 279.45,354.79 273.64,364.62 Z" id="Shape" fill="#F0898B" fill-rule="nonzero"></path>
            <circle id="Oval" fill="#FDB797" fill-rule="nonzero" cx="293.17" cy="380.3" r="22.12"></circle>
            <path d="M285.36,389.4 L280.81,457.72 L295.81,530.6 C295.81,530.6 282.15,578.75 295.81,574.19 C309.47,569.63 310.12,529.95 310.12,529.95 L300.98,453.85 C300.98,453.85 312.04,396.59 310.09,384.85 C308.14,373.11 285.36,389.4 285.36,389.4 Z" id="Shape" fill="#000000" fill-rule="nonzero" opacity="0.1"></path>
            <path d="M285.36,388.1 L280.81,456.42 L295.81,529.3 C295.81,529.3 282.12,577.45 295.77,572.85 C309.42,568.25 310.12,528.65 310.12,528.65 L301.01,452.52 C301.01,452.52 312.07,395.26 310.12,383.52 C308.17,371.78 285.36,388.1 285.36,388.1 Z" id="Shape" fill="#FDB797" fill-rule="nonzero"></path>
            <path d="M282.43,344.85 C291.64,344.85 300.02,342.22 304.43,334.85 C304.49,329.1 304.84,324.97 304.84,324.97 L282.72,326.97 C284.12,331.97 283.35,336.29 281.72,343.56 C282.19,343.55 282.02,344.85 282.43,344.85 Z" id="Shape" fill="#000000" fill-rule="nonzero" opacity="0.03"></path>
            <circle id="Oval" fill="#FDB797" fill-rule="nonzero" cx="282.76" cy="320.44" r="25.38"></circle>
            <path d="M310.41,418.36 C310.41,418.36 312.41,428.12 325.05,429.1" id="Shape" fill="#000000" fill-rule="nonzero" opacity="0.03"></path>
            <path d="M243.07,593.06 C230.71,578.06 225.5,586.55 201.43,580.7 C177.36,574.85 185.12,560.53 185.12,560.53 C201.39,554.02 249.54,509.13 249.54,509.13 C249.54,509.13 253.44,490.91 271.66,470.13 C289.88,449.35 276.87,424.58 276.87,424.58 C268.87,392.13 271.76,374.37 277.51,364.66 C280.718396,359.260659 286.324392,355.730407 292.58,355.17 C284.93865,354.36144 277.523518,358.065103 273.58,364.66 C267.84,374.37 264.97,392.12 272.94,424.58 C272.94,424.58 285.94,449.31 267.73,470.13 C249.52,490.95 245.61,509.13 245.61,509.13 C245.61,509.13 197.46,554.03 181.19,560.53 C181.19,560.53 173.38,574.84 197.46,580.7 C221.54,586.56 226.74,578.1 239.1,593.06 C247.65,603.41 263.66,605.67 278.54,605.43 C264.9,605.21 250.87,602.51 243.07,593.06 Z" id="Shape" fill="#000000" fill-rule="nonzero" opacity="0.03"></path>
            <path d="M291.97,349.85 C291.15,348.03 289.4,346.85 288.08,345.34 C283.79,340.47 284.53,333.17 284.28,326.68 C284.026444,320.480695 282.640267,314.380163 280.19,308.68 C281.725145,307.918653 283.121289,306.904504 284.32,305.68 C288.553284,301.166442 289.845491,294.635561 287.65,288.85 C284.597796,290.744904 281.082469,291.762134 277.49,291.79 C274.21,291.79 270.98,291 267.7,290.79 C262.157863,290.400381 256.622276,291.633986 251.77,294.34 C251.09,294.27 250.41,294.19 249.77,294.08 C236.96,292.14 228.06,308.45 215.24,315.13 C206.24,319.82 202.61,330.76 201.24,340.8 C199.87,350.84 199.66,361.52 194.44,370.21 C190.86,376.15 182.85,379.58 181.35,386.35 C178.42,399.55 181.67,396.29 184.92,413.86 C186,419.67 187.39,421.99 188.76,427.73 C190.24,433.93 188.6,440.4 188.38,446.73 C187.67,467.65 204.72,487.68 225.49,490.31 C224.903598,497.933633 221.772749,505.139164 216.6,510.77 C225.2,513.59 234.71,510.33 242.29,505.38 C254.568077,497.260784 263.529845,485.010197 267.55,470.85 C272.66,452.71 269.14,433.43 268.33,414.6 C267.52,395.77 270.49,374.83 284.81,362.6 C288.8,359.16 294.12,354.66 291.97,349.85 Z" id="Shape" fill="#000000" fill-rule="nonzero" opacity="0.1"></path>
            <path d="M290.67,349.22 C289.85,347.4 288.1,346.22 286.78,344.71 C282.49,339.84 283.23,332.54 282.98,326.05 C282.726444,319.850695 281.340267,313.750163 278.89,308.05 C280.425145,307.288653 281.821289,306.274504 283.02,305.05 C287.261198,300.532425 288.553896,293.991294 286.35,288.2 C283.297796,290.094904 279.782469,291.112134 276.19,291.14 C272.91,291.14 269.68,290.35 266.4,290.14 C260.857863,289.750381 255.322276,290.983986 250.47,293.69 C249.79,293.62 249.11,293.54 248.47,293.43 C235.66,291.49 226.76,307.8 213.94,314.48 C204.94,319.17 201.31,330.11 199.94,340.15 C198.57,350.19 198.36,360.87 193.14,369.56 C189.56,375.5 181.55,378.93 180.05,385.7 C177.12,398.9 180.37,395.64 183.62,413.21 C184.7,419.02 186.09,421.34 187.46,427.08 C188.94,433.28 187.3,439.75 187.08,446.08 C186.37,467 203.42,487.03 224.19,489.66 C223.603598,497.283633 220.472749,504.489164 215.3,510.12 C223.9,512.94 233.41,509.68 240.99,504.73 C253.298032,496.631485 262.292736,484.386624 266.34,470.22 C271.45,452.08 267.93,432.8 267.12,413.97 C266.31,395.14 269.28,374.2 283.6,361.97 C287.5,358.51 292.82,354.01 290.67,349.22 Z" id="Shape" fill="#252223" fill-rule="nonzero"></path>
            <path d="M203.7,715.71 C203.7,715.71 206.95,724.17 213.46,726.77 C213.46,726.77 229.73,730.67 219.32,734.58 C212.32,737.19 197.01,731.96 187.56,728.2 C185.751943,727.452797 184.421714,725.871024 183.995631,723.961616 C183.569549,722.052209 184.101126,720.054975 185.42,718.61 L188.73,715.06 L203.7,715.71 Z" id="Shape" fill="#333333" fill-rule="nonzero"></path>
            <path d="M341.64,724.17 C341.64,724.17 347.27,732.4 354.1,733.96 C354.1,733.96 370.78,735.29 361.1,740.76 C354.66,744.4 338.74,741.66 328.82,739.41 C326.887207,738.973208 325.294712,737.61031 324.564655,735.768166 C323.834598,733.926023 324.061139,731.842225 325.17,730.2 L327.86,726.2 L341.64,724.17 Z" id="Shape" fill="#333333" fill-rule="nonzero"></path>
            <path d="M244.04,508.85 C244.04,508.85 259.04,517.31 275.92,516.66" id="Shape" fill="#000000" fill-rule="nonzero" opacity="0.03"></path>
            <polygon id="Shape" fill="#6C63FF" fill-rule="nonzero" opacity="0.3" points="214.06 263.64 209.91 263.64 210.63 261.14 213.13 261.14"></polygon>
            <path d="M229.12,237.35 C229.12,246.85 221.4,260.85 211.88,260.85 C202.36,260.85 194.64,246.85 194.64,237.38 C194.64,227.858611 202.358611,220.14 211.88,220.14 C221.401389,220.14 229.12,227.858611 229.12,237.38 L229.12,237.35 Z" id="Shape" fill="#FF5A5F" fill-rule="nonzero"></path>
            <polygon id="Shape" fill="#535461" fill-rule="nonzero" points="213.13 261.25 210.63 261.25 209.18 260.42 214.58 260.42"></polygon>
            <path d="M205.64,223.96 C205.64,223.96 198.37,227.91 197.33,235.8" id="Shape" fill="#FFFFFF" fill-rule="nonzero" opacity="0.1"></path>
            <path d="M212.31,260.78 C210.084794,263.236046 209.085538,266.564451 209.59,269.84 C210.5,275.28 215.03,280.72 214.12,287.06 C213.21,293.4 210.49,297.06 210.49,299.75" id="Shape" stroke="#535461" stroke-width="0.75"></path>
            <polygon id="Shape" fill="#6C63FF" fill-rule="nonzero" opacity="0.3" points="662.22 318.23 658.06 318.23 658.79 315.73 661.28 315.73"></polygon>
            <path d="M677.27,291.94 C677.27,301.46 669.55,315.41 660.03,315.41 C650.51,315.41 642.79,301.41 642.79,291.94 C642.79,282.418611 650.508611,274.7 660.03,274.7 C669.551389,274.7 677.27,282.418611 677.27,291.94 Z" id="Shape" fill="#FF5A5F" fill-rule="nonzero"></path>
            <polygon id="Shape" fill="#535461" fill-rule="nonzero" points="661.28 315.84 658.79 315.84 657.34 315.01 662.74 315.01"></polygon>
            <path d="M653.8,278.55 C653.8,278.55 646.53,282.5 645.49,290.39" id="Shape" fill="#FFFFFF" fill-rule="nonzero" opacity="0.1"></path>
            <path d="M660.47,315.37 C658.244794,317.826046 657.245538,321.154451 657.75,324.43 C658.66,329.87 663.19,335.31 662.28,341.65 C661.37,347.99 658.65,351.65 658.65,354.34" id="Shape" stroke="#535461" stroke-width="0.75"></path>
            <polygon id="Shape" fill="#6C63FF" fill-rule="nonzero" opacity="0.3" points="739.7 288.48 735.63 287.62 736.86 285.33 739.3 285.85"></polygon>
            <path d="M759.87,265.85 C757.87,275.17 747.46,287.22 738.14,285.25 C728.82,283.28 724.14,268.03 726.14,258.72 C728.237273,249.545657 737.304384,243.74838 746.51193,245.694713 C755.719476,247.641045 761.664868,256.611733 759.87,265.85 Z" id="Shape" fill="#FF5A5F" fill-rule="nonzero"></path>
            <polygon id="Shape" fill="#535461" fill-rule="nonzero" points="739.28 285.95 736.84 285.44 735.59 284.32 740.87 285.44"></polygon>
            <path d="M739.68,247.92 C739.68,247.92 731.75,250.28 729.1,257.78" id="Shape" fill="#FFFFFF" fill-rule="nonzero" opacity="0.1"></path>
            <path d="M738.58,285.32 C735.893461,287.261358 734.225547,290.310629 734.04,293.62 C733.8,299.13 737.11,305.39 734.91,311.41 C732.71,317.43 729.3,320.41 728.74,323.07" id="Shape" stroke="#535461" stroke-width="0.75"></path>
        </g>
    </g>
</svg>