<?xml version="1.0" encoding="UTF-8"?>
<svg width="6413px" height="888px" viewBox="0 0 6413 888" version="1.1" xmlns="http://www.w3.org/2000/svg" xmlns:xlink="http://www.w3.org/1999/xlink">
    <!-- Generator: Sketch 48.2 (47327) - http://www.bohemiancoding.com/sketch -->
    <title>cineranode</title>
    <desc>Created with Sketch.</desc>
    <defs>
        <polygon id="path-1" points="0.329979638 0.882597104 633.850201 0.882597104 633.850201 326.124175 0.329979638 326.124175"></polygon>
    </defs>
    <g id="Page-1" stroke="none" stroke-width="1" fill="none" fill-rule="evenodd">
        <g id="cineranode">
            <path d="M4101.2,869 L3962,869 L3962,284.6 L4097.6,284.6 L4097.6,362.6 C4116.8001,328.999832 4142.19984,304.800074 4173.8,290 C4205.40016,275.199926 4237.59984,267.8 4270.4,267.8 C4306.40018,267.8 4337.59987,273.79994 4364,285.8 C4390.40013,297.80006 4412.19991,314.399894 4429.4,335.6 C4446.60009,356.800106 4459.59996,381.39986 4468.4,409.4 C4477.20004,437.40014 4481.6,467.39984 4481.6,499.4 L4481.6,869 L4342.4,869 L4342.4,523.4 C4342.4,487.39982 4333.40009,456.800126 4315.4,431.6 C4297.39991,406.399874 4266.40022,393.8 4222.4,393.8 C4182.3998,393.8 4152.2001,407.199866 4131.8,434 C4111.3999,460.800134 4101.2,493.399808 4101.2,531.8 L4101.2,869 Z M4847.6,762.2 C4869.20011,762.2 4889.7999,758.20004 4909.4,750.2 C4929.0001,742.19996 4946.39992,730.400078 4961.6,714.8 C4976.80008,699.199922 4988.79996,679.800116 4997.6,656.6 C5006.40004,633.399884 5010.8,606.600152 5010.8,576.2 C5010.8,545.799848 5006.40004,519.200114 4997.6,496.4 C4988.79996,473.599886 4976.80008,454.400078 4961.6,438.8 C4946.39992,423.199922 4929.0001,411.600038 4909.4,404 C4889.7999,396.399962 4869.20011,392.6 4847.6,392.6 C4825.99989,392.6 4805.4001,396.399962 4785.8,404 C4766.1999,411.600038 4749.00007,423.199922 4734.2,438.8 C4719.39993,454.400078 4707.40005,473.599886 4698.2,496.4 C4688.99995,519.200114 4684.4,545.799848 4684.4,576.2 C4684.4,606.600152 4688.99995,633.399884 4698.2,656.6 C4707.40005,679.800116 4719.39993,699.199922 4734.2,714.8 C4749.00007,730.400078 4766.1999,742.19996 4785.8,750.2 C4805.4001,758.20004 4825.99989,762.2 4847.6,762.2 Z M4847.6,266.6 C4891.60022,266.6 4931.99982,274.399922 4968.8,290 C5005.60018,305.600078 5037.59986,327.199862 5064.8,354.8 C5092.00014,382.400138 5113.19992,414.999812 5128.4,452.6 C5143.60008,490.200188 5151.2,531.399776 5151.2,576.2 C5151.2,621.000224 5143.60008,662.39981 5128.4,700.4 C5113.19992,738.40019 5092.00014,771.199862 5064.8,798.8 C5037.59986,826.400138 5005.60018,847.999922 4968.8,863.6 C4931.99982,879.200078 4891.60022,887 4847.6,887 C4804.39978,887 4764.20019,879.200078 4727,863.6 C4689.79981,847.999922 4657.80013,826.400138 4631,798.8 C4604.19987,771.199862 4583.20008,738.40019 4568,700.4 C4552.79992,662.39981 4545.2,621.000224 4545.2,576.2 C4545.2,531.399776 4552.79992,490.200188 4568,452.6 C4583.20008,414.999812 4604.19987,382.400138 4631,354.8 C4657.80013,327.199862 4689.79981,305.600078 4727,290 C4764.20019,274.399922 4804.39978,266.6 4847.6,266.6 Z M5319.2,575 C5319.2,631.00028 5333.39986,675.99983 5361.8,710 C5390.20014,744.00017 5428.39976,761 5476.4,761 C5498.80011,761 5519.5999,756.400046 5538.8,747.2 C5558.0001,737.999954 5574.39993,725.200082 5588,708.8 C5601.60007,692.399918 5612.19996,672.800114 5619.8,650 C5627.40004,627.199886 5631.2,601.80014 5631.2,573.8 C5631.2,517.79972 5617.00014,473.600162 5588.6,441.2 C5560.19986,408.799838 5523.20023,392.6 5477.6,392.6 C5431.99977,392.6 5394.20015,408.999836 5364.2,441.8 C5334.19985,474.600164 5319.2,518.99972 5319.2,575 Z M5765.6,762.2 C5765.6,788.600132 5766.39999,811.7999 5768,831.8 C5769.60001,851.8001 5770.8,864.199976 5771.6,869 L5638.4,869 C5636.79999,862.599968 5635.40001,851.40008 5634.2,835.4 C5632.99999,819.39992 5632.4,805.40006 5632.4,793.4 C5618.79993,818.200124 5597.20015,839.399912 5567.6,857 C5537.99985,874.600088 5502.40021,883.4 5460.8,883.4 C5418.39979,883.4 5380.00017,875.600078 5345.6,860 C5311.19983,844.399922 5281.80012,822.800138 5257.4,795.2 C5232.99988,767.599862 5214.00007,735.000188 5200.4,697.4 C5186.79993,659.799812 5180,619.00022 5180,575 C5180,533.399792 5186.79993,494.000186 5200.4,456.8 C5214.00007,419.599814 5232.99988,387.00014 5257.4,359 C5281.80012,330.99986 5311.19983,309.00008 5345.6,293 C5380.00017,276.99992 5417.5998,269 5458.4,269 C5484.00013,269 5506.3999,271.599974 5525.6,276.8 C5544.8001,282.000026 5561.39993,288.799958 5575.4,297.2 C5589.40007,305.600042 5600.79996,314.599952 5609.6,324.2 C5618.40004,333.800048 5625.19998,343.399952 5630,353 L5630,0.2 L5765.6,0.2 L5765.6,762.2 Z M6272,512.6 C6271.2,495.799916 6267.80003,479.600078 6261.8,464 C6255.79997,448.399922 6246.80006,434.60006 6234.8,422.6 C6222.79994,410.59994 6208.00009,401.000036 6190.4,393.8 C6172.79991,386.599964 6152.00012,383 6128,383 C6106.39989,383 6087.00009,386.799962 6069.8,394.4 C6052.59991,402.000038 6038.00006,411.999938 6026,424.4 C6013.99994,436.800062 6004.40004,450.799922 5997.2,466.4 C5989.99996,482.000078 5986,497.399924 5985.2,512.6 L6272,512.6 Z M6405.2,702.2 C6397.19996,727.800128 6385.60008,751.799888 6370.4,774.2 C6355.19992,796.600112 6336.40011,816.199916 6314,833 C6291.59989,849.800084 6266.00014,862.999952 6237.2,872.6 C6208.39986,882.200048 6176.40018,887 6141.2,887 C6101.1998,887 6063.20018,880.00007 6027.2,866 C5991.19982,851.99993 5959.60014,831.600134 5932.4,804.8 C5905.19986,777.999866 5883.40008,745.200194 5867,706.4 C5850.59992,667.599806 5842.4,623.400248 5842.4,573.8 C5842.4,527.399768 5850.19992,485.400188 5865.8,447.8 C5881.40008,410.199812 5902.39987,378.000134 5928.8,351.2 C5955.20013,324.399866 5985.59983,303.600074 6020,288.8 C6054.40017,273.999926 6089.99982,266.6 6126.8,266.6 C6171.60022,266.6 6211.79982,273.799928 6247.4,288.2 C6283.00018,302.600072 6312.99988,322.999868 6337.4,349.4 C6361.80012,375.800132 6380.39994,407.599814 6393.2,444.8 C6406.00006,482.000186 6412.4,523.799768 6412.4,570.2 C6412.4,581.400056 6412,591.199958 6411.2,599.6 C6410.4,608.000042 6409.6,612.999992 6408.8,614.6 L5981.6,614.6 C5982.4,637.000112 5987.19996,657.399908 5996,675.8 C6004.80004,694.200092 6016.39993,710.199932 6030.8,723.8 C6045.20007,737.400068 6061.79991,747.999962 6080.6,755.6 C6099.40009,763.200038 6119.59989,767 6141.2,767 C6183.60021,767 6216.19989,757.200098 6239,737.6 C6261.80011,717.999902 6277.99995,693.800144 6287.6,665 L6405.2,702.2 Z" id="node" fill="#FF5A5F" fill-rule="nonzero"></path>
            <g id="Page-1" transform="translate(0.000000, 155.000000)">
                <polygon id="Fill-1" fill="#484848" points="837 718 991 718 991 14 837 14"></polygon>
                <polygon id="Fill-2" fill="#484848" points="1562.65837 14 1562.65837 451.50105 1225.0289 14 1090 14 1090 718 1244.34163 718 1244.34163 280.522806 1581.94821 718 1717 718 1717 14"></polygon>
                <polygon id="Fill-3" fill="#484848" points="1972.38637 14 1818 14 1818 718 1851.76129 718 2368 718 2368 569.16042 1972.38637 569.16042 1972.38637 439.429753 2335.06272 439.429753 2335.06272 290.590173 1972.38637 290.590173 1972.38637 162.863436 2358.34084 162.863436 2358.34084 14"></polygon>
                <g id="Group-15" transform="translate(110.000000, 0.000000)">
                    <path d="M2502.44869,342.843542 L2691.25261,342.843542 C2749.03854,342.843542 2791.44687,307.523969 2791.44687,250.021982 C2791.44687,193.548952 2749.03854,158.229379 2691.25261,158.229379 L2502.44869,158.229379 L2502.44869,342.843542 Z M2984.08948,712.047937 L2984.08948,720.112095 L2821.28808,720.112095 L2668.1291,481.058889 L2502.44869,481.058889 L2502.44869,720.112095 L2348.33003,720.112095 L2348.33003,13.9838614 L2502.44869,13.9838614 L2709.55491,13.9838614 C2843.45192,13.9838614 2945.56553,108.815478 2945.56553,248.011925 C2945.56553,345.858627 2894.4973,421.522915 2818.40907,457.847516 L2984.08948,712.047937 Z" id="Fill-4" fill="#484848"></path>
                    <path d="M3443.587,457.847516 L3340.51373,192.519994 L3236.48078,457.847516 L3443.587,457.847516 Z M3711.38102,711.042909 L3711.38102,720.112095 L3545.67776,720.112095 L3497.5114,597.043963 L3182.53353,597.043963 L3135.34969,720.112095 L2969.66928,720.112095 L2969.66928,711.042909 L3259.60429,13.9838614 L3420.46349,13.9838614 L3711.38102,711.042909 Z" id="Fill-6" fill="#484848"></path>
                    <g id="Group-10" transform="translate(0.232512, 0.000000)">
                        <mask id="mask-2" fill="white">
                            <use xlink:href="#path-1"></use>
                        </mask>
                        <g id="Clip-9"></g>
                    </g>
                </g>
                <g id="Group-2">
                    <path d="M250.095069,326.00766 C264.435867,226.060913 332.052272,152.117544 442.554055,152.117544 C524.397079,152.117544 586.966802,194.483673 613.912887,260.030367 L742.91156,182.355143 C694.796813,74.4662415 584.089508,0.8577827 440.63586,0.8577827 C272.062979,0.8577827 153.500205,100.684919 109.769907,241.131868 L250.095069,326.00766 Z" id="Fill-8" fill="#484848"></path>
                    <path d="M618.738063,473.825023 C591.791978,539.371717 528.240322,581.737847 445.461036,581.737847 C339.846084,581.737847 271.476102,514.109926 252.613843,420.933147 L114.321055,504.564987 C161.819238,638.337656 279.902463,732.997608 443.520004,732.997608 C587.932751,732.997608 699.599154,658.384419 747.736736,550.471595 L618.738063,473.825023 Z" id="Fill-11" fill="#484848"></path>
                    <path d="M9.80449859,263.353154 C3.57036199,295.911202 0.236354872,330.024189 0.236354872,365.452895 C0.236354872,405.594264 4.50662426,444.037161 12.5219427,480.470597 L190.640131,372.725229 L9.80449859,263.353154 Z" id="Fill-13" fill="#FF5A5F"></path>
                </g>
            </g>
        </g>
    </g>
</svg>