<?xml version="1.0" encoding="UTF-8"?>
<svg width="970px" height="766px" viewBox="0 0 970 766" version="1.1" xmlns="http://www.w3.org/2000/svg" xmlns:xlink="http://www.w3.org/1999/xlink">
    <!-- Generator: Sketch 48.2 (47327) - http://www.bohemiancoding.com/sketch -->
    <title>undraw_btc_p2p_lth5</title>
    <desc>Created with Sketch.</desc>
    <defs>
        <linearGradient x1="50.0366418%" y1="100.01391%" x2="50.0366418%" y2="-0.00325046985%" id="linearGradient-1">
            <stop stop-color="#808080" stop-opacity="0.25" offset="0%"></stop>
            <stop stop-color="#808080" stop-opacity="0.12" offset="54%"></stop>
            <stop stop-color="#808080" stop-opacity="0.1" offset="100%"></stop>
        </linearGradient>
        <linearGradient x1="51488%" y1="73162%" x2="51488%" y2="73146%" id="linearGradient-2">
            <stop stop-color="#808080" stop-opacity="0.25" offset="0%"></stop>
            <stop stop-color="#808080" stop-opacity="0.12" offset="54%"></stop>
            <stop stop-color="#808080" stop-opacity="0.1" offset="100%"></stop>
        </linearGradient>
        <linearGradient x1="51244%" y1="73162%" x2="51244%" y2="73006%" id="linearGradient-3">
            <stop stop-color="#808080" stop-opacity="0.25" offset="0%"></stop>
            <stop stop-color="#808080" stop-opacity="0.12" offset="54%"></stop>
            <stop stop-color="#808080" stop-opacity="0.1" offset="100%"></stop>
        </linearGradient>
        <linearGradient x1="47867%" y1="74938%" x2="47867%" y2="20196%" id="linearGradient-4">
            <stop stop-color="#808080" stop-opacity="0.25" offset="0%"></stop>
            <stop stop-color="#808080" stop-opacity="0.12" offset="54%"></stop>
            <stop stop-color="#808080" stop-opacity="0.1" offset="100%"></stop>
        </linearGradient>
    </defs>
    <g id="Page-1" stroke="none" stroke-width="1" fill="none" fill-rule="evenodd">
        <g id="undraw_btc_p2p_lth5" transform="translate(0.000000, -1.000000)">
            <path d="M246.39,89.38 C234.23,95.71 222.05,103.68 215.86,115.91 C211.31,124.91 210.48,135.23 209.73,145.27 L200.73,265.13 C198.73,291.84 196.54,319.29 184.88,343.41 C164.79,384.96 121.05,408.67 88.21,441.09 C34.4,494.22 11.3,583.78 51.71,647.7 C69.5372693,675.640224 97.0771239,695.991432 129.02,704.83 C147.76,709.93 167.34,710.83 186.74,711.7 C349.24,718.746667 511.85,721.573333 674.57,720.18 C693.89,720.01 713.74,719.68 731.57,712.34 C756.2,702.21 773.9,679.91 786.09,656.23 C798.28,632.55 806.09,606.84 817.62,582.84 C841.22,533.84 879.62,493.9 913.08,451.07 C931.53,427.47 948.8,402.46 959.16,374.36 C975.63,329.7 972.75,277.17 947.01,237.12 C935.89,219.81 920.75,204.82 913.18,185.69 C902.61,158.94 908.51,128.98 911.03,100.33 C913.55,71.68 910.79,38.97 888.74,20.5 C876.57,10.31 860.45,6.29 844.74,3.99 C769.53,-7.01 693.99,14.76 619.41,29.44 C553.6,42.44 486.88,49.88 420.12,55.81 C360.86,61.09 300.47,61.23 246.39,89.38 Z" id="Shape" fill="#FF5A5F" fill-rule="nonzero"></path>
            <path d="M220.92,648.2 C220.92,648.2 191.81,549.37 226.38,476.63 C240.89,446.1 245.71,411.83 239,378.7 C235.795705,362.975265 231.156282,347.577471 225.14,332.7" id="Shape" stroke="#535461" stroke-width="2"></path>
            <path d="M246.64,286.78 C246.64,298.89 224.71,334.01 224.71,334.01 C224.71,334.01 202.78,298.89 202.78,286.78 C202.78,274.668395 212.598395,264.85 224.71,264.85 C236.821605,264.85 246.64,274.668395 246.64,286.78 Z" id="Shape" fill="#FF5A5F" fill-rule="nonzero"></path>
            <path d="M282.89,353.83 C276.31,364 238.81,381.56 238.81,381.56 C238.81,381.56 239.49,340.16 246.07,329.99 C250.328606,323.41274 257.772646,319.607041 265.598023,320.006472 C273.4234,320.405903 280.441252,324.949781 284.008023,331.926472 C287.574794,338.903163 287.148606,347.25274 282.89,353.83 Z" id="Shape" fill="#FF5A5F" fill-rule="nonzero"></path>
            <path d="M281.31,468.51 C270.5,473.96 229.31,470.2 229.31,470.2 C229.31,470.2 250.73,434.83 261.56,429.35 C272.355398,424.016933 285.431639,428.385375 290.853779,439.136311 C296.275918,449.887247 292.015739,462.999158 281.31,468.51 Z" id="Shape" fill="#FF5A5F" fill-rule="nonzero"></path>
            <path d="M260.58,554.98 C250.84,562.18 209.58,565.44 209.58,565.44 C209.58,565.44 224.78,526.92 234.51,519.72 C240.802785,514.950148 249.173996,513.931597 256.42697,517.053295 C263.679945,520.174993 268.694684,526.95489 269.556242,534.803989 C270.417799,542.653088 266.993133,550.359338 260.59,554.98 L260.58,554.98 Z" id="Shape" fill="#FF5A5F" fill-rule="nonzero"></path>
            <path d="M192.73,383.94 C201.42,392.38 241.89,401.12 241.89,401.12 C241.89,401.12 231.98,360.92 223.29,352.48 C214.590502,344.118829 200.770742,344.356128 192.363428,353.011041 C183.956113,361.665953 184.119918,375.486779 192.73,383.94 Z" id="Shape" fill="#FF5A5F" fill-rule="nonzero"></path>
            <path d="M169.8,485.38 C180.61,490.83 221.8,487.07 221.8,487.07 C221.8,487.07 200.31,451.67 189.5,446.22 C182.495499,442.614392 174.095218,443.042945 167.494019,447.342668 C160.89282,451.642391 157.105155,459.152515 157.571579,467.016731 C158.038003,474.880947 162.686837,481.890706 169.75,485.38 L169.8,485.38 Z" id="Shape" fill="#FF5A5F" fill-rule="nonzero"></path>
            <path d="M161.01,587.04 C170.75,594.24 212.01,597.5 212.01,597.5 C212.01,597.5 196.81,558.98 187.08,551.78 C177.340097,544.75144 163.758473,546.865689 156.615953,556.522333 C149.473433,566.178976 151.427949,579.784505 161,587.04 L161.01,587.04 Z" id="Shape" fill="#FF5A5F" fill-rule="nonzero"></path>
            <path d="M246.64,286.78 C246.64,298.89 224.71,334.01 224.71,334.01 C224.71,334.01 202.78,298.89 202.78,286.78 C202.78,274.668395 212.598395,264.85 224.71,264.85 C236.821605,264.85 246.64,274.668395 246.64,286.78 Z" id="Shape" fill="#000000" fill-rule="nonzero" opacity="0.25"></path>
            <path d="M282.89,353.83 C276.31,364 238.81,381.56 238.81,381.56 C238.81,381.56 239.49,340.16 246.07,329.99 C250.328606,323.41274 257.772646,319.607041 265.598023,320.006472 C273.4234,320.405903 280.441252,324.949781 284.008023,331.926472 C287.574794,338.903163 287.148606,347.25274 282.89,353.83 Z" id="Shape" fill="#000000" fill-rule="nonzero" opacity="0.25"></path>
            <path d="M281.31,468.51 C270.5,473.96 229.31,470.2 229.31,470.2 C229.31,470.2 250.73,434.83 261.56,429.35 C272.355398,424.016933 285.431639,428.385375 290.853779,439.136311 C296.275918,449.887247 292.015739,462.999158 281.31,468.51 Z" id="Shape" fill="#000000" fill-rule="nonzero" opacity="0.25"></path>
            <path d="M260.58,554.98 C250.84,562.18 209.58,565.44 209.58,565.44 C209.58,565.44 224.78,526.92 234.51,519.72 C240.802785,514.950148 249.173996,513.931597 256.42697,517.053295 C263.679945,520.174993 268.694684,526.95489 269.556242,534.803989 C270.417799,542.653088 266.993133,550.359338 260.59,554.98 L260.58,554.98 Z" id="Shape" fill="#000000" fill-rule="nonzero" opacity="0.25"></path>
            <path d="M192.73,383.94 C201.42,392.38 241.89,401.12 241.89,401.12 C241.89,401.12 231.98,360.92 223.29,352.48 C214.590502,344.118829 200.770742,344.356128 192.363428,353.011041 C183.956113,361.665953 184.119918,375.486779 192.73,383.94 Z" id="Shape" fill="#000000" fill-rule="nonzero" opacity="0.25"></path>
            <path d="M169.8,485.38 C180.61,490.83 221.8,487.07 221.8,487.07 C221.8,487.07 200.31,451.67 189.5,446.22 C182.495499,442.614392 174.095218,443.042945 167.494019,447.342668 C160.89282,451.642391 157.105155,459.152515 157.571579,467.016731 C158.038003,474.880947 162.686837,481.890706 169.75,485.38 L169.8,485.38 Z" id="Shape" fill="#000000" fill-rule="nonzero" opacity="0.25"></path>
            <path d="M161.01,587.04 C170.75,594.24 212.01,597.5 212.01,597.5 C212.01,597.5 196.81,558.98 187.08,551.78 C177.340097,544.75144 163.758473,546.865689 156.615953,556.522333 C149.473433,566.178976 151.427949,579.784505 161,587.04 L161.01,587.04 Z" id="Shape" fill="#000000" fill-rule="nonzero" opacity="0.25"></path>
            <path d="M779.3,595.06 C779.3,595.06 750.19,496.24 784.73,423.5 C799.24,392.97 804.06,358.7 797.35,325.57 C794.145705,309.845265 789.506282,294.447471 783.49,279.57" id="Shape" stroke="#535461" stroke-width="2"></path>
            <path d="M805.02,233.64 C805.02,245.75 783.09,280.87 783.09,280.87 C783.09,280.87 761.16,245.75 761.16,233.64 C761.16,221.528395 770.978395,211.71 783.09,211.71 C795.201605,211.71 805.02,221.528395 805.02,233.64 Z" id="Shape" fill="#FF5A5F" fill-rule="nonzero"></path>
            <path d="M841.27,300.73 C834.69,310.9 797.19,328.46 797.19,328.46 C797.19,328.46 797.87,287.06 804.45,276.89 C808.708606,270.31274 816.152646,266.507041 823.978023,266.906472 C831.8034,267.305903 838.821252,271.849781 842.388023,278.826472 C845.954794,285.803163 845.528606,294.15274 841.27,300.73 Z" id="Shape" fill="#FF5A5F" fill-rule="nonzero"></path>
            <path d="M839.73,415.37 C828.92,420.82 787.73,417.06 787.73,417.06 C787.73,417.06 809.22,381.66 820.03,376.21 C827.060731,372.376634 835.621921,372.680264 842.363422,377.002074 C849.104923,381.323883 852.954759,388.976655 852.406422,396.965722 C851.858084,404.95479 846.998764,412.009799 839.73,415.37 Z" id="Shape" fill="#FF5A5F" fill-rule="nonzero"></path>
            <path d="M818.96,501.83 C809.22,509.03 767.96,512.29 767.96,512.29 C767.96,512.29 783.16,473.77 792.89,466.57 C799.178122,461.72103 807.596239,460.650019 814.898221,463.769963 C822.200203,466.889907 827.245224,473.713361 828.087861,481.609116 C828.930499,489.504872 825.439103,497.239334 818.96,501.83 Z" id="Shape" fill="#FF5A5F" fill-rule="nonzero"></path>
            <path d="M751.14,330.83 C759.83,339.27 800.3,348.01 800.3,348.01 C800.3,348.01 790.39,307.83 781.73,299.34 C776.104853,293.875623 767.991793,291.82731 760.44693,293.966641 C752.902067,296.105973 747.071646,302.107933 745.15193,309.711641 C743.232214,317.31535 745.514853,325.365623 751.14,330.83 Z" id="Shape" fill="#FF5A5F" fill-rule="nonzero"></path>
            <path d="M728.18,432.24 C738.99,437.69 780.18,433.93 780.18,433.93 C780.18,433.93 758.73,398.53 747.93,393.08 C740.925499,389.474392 732.525218,389.902945 725.924019,394.202668 C719.32282,398.502391 715.535155,406.012515 716.001579,413.876731 C716.468003,421.740947 721.116837,428.750706 728.18,432.24 Z" id="Shape" fill="#FF5A5F" fill-rule="nonzero"></path>
            <path d="M719.39,533.9 C729.13,541.1 770.39,544.36 770.39,544.36 C770.39,544.36 755.19,505.84 745.46,498.64 C735.720097,491.61144 722.138473,493.725689 714.995953,503.382333 C707.853433,513.038976 709.807949,526.644505 719.38,533.9 L719.39,533.9 Z" id="Shape" fill="#FF5A5F" fill-rule="nonzero"></path>
            <path d="M805.02,233.64 C805.02,245.75 783.09,280.87 783.09,280.87 C783.09,280.87 761.16,245.75 761.16,233.64 C761.16,221.528395 770.978395,211.71 783.09,211.71 C795.201605,211.71 805.02,221.528395 805.02,233.64 Z" id="Shape" fill="#000000" fill-rule="nonzero" opacity="0.25"></path>
            <path d="M841.27,300.73 C834.69,310.9 797.19,328.46 797.19,328.46 C797.19,328.46 797.87,287.06 804.45,276.89 C808.708606,270.31274 816.152646,266.507041 823.978023,266.906472 C831.8034,267.305903 838.821252,271.849781 842.388023,278.826472 C845.954794,285.803163 845.528606,294.15274 841.27,300.73 Z" id="Shape" fill="#000000" fill-rule="nonzero" opacity="0.25"></path>
            <path d="M839.73,415.37 C828.92,420.82 787.73,417.06 787.73,417.06 C787.73,417.06 809.22,381.66 820.03,376.21 C827.060731,372.376634 835.621921,372.680264 842.363422,377.002074 C849.104923,381.323883 852.954759,388.976655 852.406422,396.965722 C851.858084,404.95479 846.998764,412.009799 839.73,415.37 Z" id="Shape" fill="#000000" fill-rule="nonzero" opacity="0.25"></path>
            <path d="M818.96,501.83 C809.22,509.03 767.96,512.29 767.96,512.29 C767.96,512.29 783.16,473.77 792.89,466.57 C799.178122,461.72103 807.596239,460.650019 814.898221,463.769963 C822.200203,466.889907 827.245224,473.713361 828.087861,481.609116 C828.930499,489.504872 825.439103,497.239334 818.96,501.83 Z" id="Shape" fill="#000000" fill-rule="nonzero" opacity="0.25"></path>
            <path d="M751.14,330.83 C759.83,339.27 800.3,348.01 800.3,348.01 C800.3,348.01 790.39,307.83 781.73,299.34 C776.104853,293.875623 767.991793,291.82731 760.44693,293.966641 C752.902067,296.105973 747.071646,302.107933 745.15193,309.711641 C743.232214,317.31535 745.514853,325.365623 751.14,330.83 Z" id="Shape" fill="#000000" fill-rule="nonzero" opacity="0.25"></path>
            <path d="M728.18,432.24 C738.99,437.69 780.18,433.93 780.18,433.93 C780.18,433.93 758.73,398.53 747.93,393.08 C740.925499,389.474392 732.525218,389.902945 725.924019,394.202668 C719.32282,398.502391 715.535155,406.012515 716.001579,413.876731 C716.468003,421.740947 721.116837,428.750706 728.18,432.24 Z" id="Shape" fill="#000000" fill-rule="nonzero" opacity="0.25"></path>
            <path d="M719.39,533.9 C729.13,541.1 770.39,544.36 770.39,544.36 C770.39,544.36 755.19,505.84 745.46,498.64 C735.720097,491.61144 722.138473,493.725689 714.995953,503.382333 C707.853433,513.038976 709.807949,526.644505 719.38,533.9 L719.39,533.9 Z" id="Shape" fill="#000000" fill-rule="nonzero" opacity="0.25"></path>
            <g id="Group" opacity="0.1" transform="translate(0.000000, 764.000000)" fill="#00FFFF" fill-rule="nonzero">
                <path d="M0.87,2.65 C11.97,-1.35 2.23,1.91 0.31,2.55 C0.488160082,2.62023898 0.678540894,2.65423556 0.87,2.65 Z" id="Shape"></path>
            </g>
            <g id="Group" opacity="0.1" transform="translate(0.000000, 766.000000)" fill="#00FFFF" fill-rule="nonzero">
                <polygon id="Shape" points="0.31 0.54 0.01 0.45 0.01 0.65"></polygon>
            </g>
            <path d="M762.01,641.51 C762.01,641.39 762.01,641.26 762.08,641.13 C762.15,641 762.08,641.06 762.08,641.03 C762.100282,640.780411 762.100282,640.529589 762.08,640.28 C762.08,640.28 760.74,637.71 759.18,634.18 C757.05,629.33 754.52,622.66 754.52,618.29 C754.52,618.29 731.15,536.51 715.35,527.58 C715.35,527.58 702.35,504.43 702.49,491.4 C702.508472,487.235854 702.173941,483.077636 701.49,478.97 C699.18,464.6 695.33,437.09 698.85,432.06 C703.32,425.67 710.77,397.87 692.98,376.88 L696.1,376.4 C696.1,376.4 695.93,376.19 695.65,375.78 L696.1,375.71 C696.1,375.71 689.22,367.45 689.22,349.2 C689.32,338.69 691.69,324.96 698.85,307.67 C699.796667,305.376667 700.663333,303.106667 701.45,300.86 C704.782381,299.203726 707.822293,297.014989 710.45,294.38 L710.77,294.05 L711.14,293.7 C717.71,287.1 721.69,278.34 724.46,269.45 C727.002958,261.278953 728.629615,252.850517 729.31,244.32 C730.05,235.05 729.66,225.74 729.31,216.45 C728.86,205.61 728.31,194.45 723.97,184.56 C722.26,180.69 719.97,177.03 718.92,172.93 C718.337008,170.11506 717.932866,167.266025 717.71,164.4 C716.28,153.17 710.96,142.28 702.24,135.07 C693.52,127.86 681.33,124.65 670.42,127.67 C664.18,129.4 658.61,132.98 653.42,136.9 C651.196493,138.575522 649.097637,140.41035 647.14,142.39 C640.87,148.54 636.14,156.6 640.68,165.07 C641.013333,165.683333 641.37,166.283333 641.75,166.87 C636.897062,174.613103 635.717784,184.106286 638.528703,192.801422 C641.339623,201.496558 647.852803,208.502962 656.32,211.94 L657.13,213.36 L657.22,213.36 C659.59,217.74 662.17,223.21 662.85,227.36 C659.881375,229.474897 657.193223,231.958078 654.85,234.75 C646.76,244.4 642.33,250.95 639.91,255.22 C637.621571,259.176736 634.966579,262.909796 631.98,266.37 C628.31,270.71 623.98,279.18 623.98,294.94 C623.98,296.093333 623.98,297.29 623.98,298.53 C604.61,319.62 529.07,304.16 529.07,304.16 C519.97,300.62 509.38,304.89 504.42,307.4 C503.598986,307.803603 503.007004,308.559775 502.812258,309.453662 C502.617511,310.347549 502.841286,311.281445 503.42,311.99 C511.42,321.63 531.1,315.85 531.1,315.85 C531.1,315.85 601.88,328.22 607.38,332.34 C611.12,335.15 617.73,332.86 621.57,331.11 L620.78,332 L621.78,331.51 L616.34,380.44 L616.42,380.44 L616.34,381.13 C616.34,381.13 617.6,381.02 619.61,380.88 L621.29,385.23 L621.15,385.23 L622.89,389.35 L624.32,392.74 C620.05,408.18 602.84,471.74 604.65,486.25 C604.65,486.25 593.65,512.36 597.78,526.8 C597.78,526.8 582.66,635.38 573.04,640.88 L574.39,641.49 C564.12,647.36 541.75,658.4 526.31,653.25 C526.31,653.25 516.69,656 531.81,665.62 C531.81,665.62 593.66,682.11 601.91,676.62 L600.54,652.85 L601.24,653.1 C601.34,651.76 602.24,641.93 606.04,637.45 C606.04,637.45 630.78,570.1 629.41,535.74 L652.5,479.94 C655,486.34 657.65,491.77 660.33,495.2 L669.95,519.94 L685.76,540.56 C685.76,540.56 735.24,618.9 731.76,642.27 L732.92,642.56 C728.29,650.8 716.77,667.69 700.14,667.69 C700.14,667.69 685.71,682.81 712.51,680.75 C712.51,680.75 746.18,678.69 770.92,664.94 L762.01,641.51 Z" id="Shape" fill="url(#linearGradient-1)" fill-rule="nonzero"></path>
            <path d="M586.65,635.16 C586.65,635.16 554.84,656.37 534.96,649.74 C534.96,649.74 525.68,652.39 540.26,661.67 C540.26,661.67 599.91,677.58 607.86,672.27 L605.86,637.81 L586.65,635.16 Z" id="Shape" fill="#333333" fill-rule="nonzero"></path>
            <path d="M736.43,635.16 C736.43,635.16 723.84,663.66 702.63,663.66 C702.63,663.66 688.71,678.24 714.56,676.25 C714.56,676.25 747.03,674.25 770.89,661.01 L759.48,631.27 L736.43,635.16 Z" id="Shape" fill="#333333" fill-rule="nonzero"></path>
            <polygon id="Shape" fill="#FDB797" fill-rule="nonzero" points="623.1 382.32 628.1 395.25 660.55 392.93 657.23 371.06"></polygon>
            <path d="M630.39,395.25 C630.39,395.25 608.52,472.83 610.51,488.7 C610.51,488.7 599.91,513.88 603.88,527.8 C603.88,527.8 589.3,632.51 580.02,637.8 C580.02,637.8 607.02,650.02 607.85,649.73 C617.13,646.42 607.19,649.73 607.19,649.73 C607.19,649.73 607.85,639.13 611.83,634.49 C611.83,634.49 635.69,569.54 634.36,536.41 L666.17,459.53 L630.39,395.25 Z" id="Shape" fill="#252A62" fill-rule="nonzero"></path>
            <path d="M630.39,395.25 C630.39,395.25 608.52,472.83 610.51,488.7 C610.51,488.7 599.91,513.88 603.88,527.8 C603.88,527.8 589.3,632.51 580.02,637.8 C580.02,637.8 607.02,650.02 607.85,649.73 C617.13,646.42 607.19,649.73 607.19,649.73 C607.19,649.73 607.85,639.13 611.83,634.49 C611.83,634.49 635.69,569.54 634.36,536.41 L666.17,459.53 L630.39,395.25 Z" id="Shape" fill="#000000" fill-rule="nonzero" opacity="0.1"></path>
            <path d="M626.42,391.27 L641,425.73 C641,425.73 652.27,482.06 664.2,497.3 L673.48,521.16 L688.73,541.05 C688.73,541.05 736.45,616.6 733.13,639.13 C733.13,639.13 762.95,647.13 762.29,637.13 C762.29,637.13 755,623.21 755,615.92 C755,615.92 732.47,537.06 717.22,528.44 C717.22,528.44 704.7,506.11 704.82,493.55 C704.826791,489.528911 704.492257,485.514502 703.82,481.55 C701.59,467.69 697.88,441.17 701.28,436.32 C705.92,429.69 713.87,399.21 691.34,378.66 L626.42,391.27 Z" id="Shape" fill="#252A62" fill-rule="nonzero"></path>
            <path d="M762.27,637.15 C762.27,637.15 754.98,623.23 754.98,615.94 C754.98,615.94 732.45,537.08 717.2,528.46 C717.2,528.46 704.68,506.13 704.8,493.57 C704.806791,489.548911 704.472257,485.534502 703.8,481.57 C701.57,467.71 697.86,441.19 701.26,436.34 C705.9,429.71 713.85,399.23 691.32,378.68 L687.48,379.43 C709.02,399.96 701.21,429.79 696.63,436.34 C692.05,442.89 700.63,490.02 700.63,490.02 C697.32,501.29 712.56,528.46 712.56,528.46 C727.8,537.08 750.34,615.94 750.34,615.94 C750.34,623.23 757.63,637.15 757.63,637.15 C757.85,640.43 754.74,641.76 750.48,642.07 C756.9,642.44 762.57,641.54 762.27,637.15 Z" id="Shape" fill="#000000" fill-rule="nonzero" opacity="0.1"></path>
            <path d="M656.9,218.3 C656.9,218.3 669.49,237.52 666.18,243.48 L698.65,235.48 C698.65,235.48 690.03,226.2 692.02,203.67 L656.9,218.3 Z" id="Shape" fill="#FDB797" fill-rule="nonzero"></path>
            <path d="M703.29,232.22 C703.29,232.22 676.12,226.22 658.89,246.8 C651.09,256.1 646.82,262.42 644.48,266.54 C642.275373,270.354535 639.717483,273.953662 636.84,277.29 C632.53,282.38 627.25,293.35 629.73,315.72 L621.73,387.29 C621.73,387.29 644.93,385.29 650.89,387.29 C656.85,389.29 698.61,382.65 698.61,382.65 C698.61,382.65 682.04,362.77 701.26,316.38 C720.48,269.99 703.29,232.22 703.29,232.22 Z" id="Shape" fill="#000000" fill-rule="nonzero" opacity="0.1"></path>
            <path d="M703.29,231.56 C703.29,231.56 676.12,225.56 658.89,246.14 C651.09,255.44 646.82,261.76 644.48,265.88 C642.275373,269.694535 639.717483,273.293662 636.84,276.63 C632.53,281.72 627.25,292.69 629.73,315.06 L621.73,386.63 C621.73,386.63 644.93,384.63 650.89,386.63 C656.85,388.63 698.61,381.99 698.61,381.99 C698.61,381.99 682.04,362.11 701.26,315.72 C720.48,269.33 703.29,231.56 703.29,231.56 Z" id="Shape" fill="#F55F44" fill-rule="nonzero"></path>
            <path d="M670.49,292.83 C670.49,292.83 644.64,329.97 632.73,336.6 L626.1,339.91 C626.1,339.91 667.84,292.83 670.49,292.83 Z" id="Shape" fill="#000000" fill-rule="nonzero" opacity="0.1"></path>
            <path d="M646.3,273.97 C646.3,273.97 663.3,267.28 670.59,289.46 C671.194277,291.293393 670.75799,293.310266 669.45,294.73 L629.73,337.59 C629.73,337.59 618.46,344.22 613.16,340.24 C607.86,336.26 539.6,324.33 539.6,324.33 C539.6,324.33 520.65,329.9 512.91,320.61 C512.34313,319.934771 512.118058,319.036467 512.299585,318.173725 C512.481112,317.310983 513.049094,316.579543 513.84,316.19 C517.54,314.32 523.71,315.4 530.99,314.5 C536.578921,313.832659 542.233722,313.950467 547.79,314.85 C570.52,318.41 624.07,324.29 632.38,302.46 C642.98,274.64 646.3,273.97 646.3,273.97 Z" id="Shape" fill="#FDB797" fill-rule="nonzero"></path>
            <path d="M645.97,274.3 C645.97,274.3 666.51,270.99 671.15,291.53 L671.15,290.2 C671.15,290.2 665.19,267.68 645.97,274.3 Z" id="Shape" fill="#000000" fill-rule="nonzero" opacity="0.1"></path>
            <path d="M692.73,205.05 L657.56,219.63 C657.56,219.63 659.15,222.05 661.04,225.44 C664.47,226.82 669.21,225.93 673.13,225.93 C681.13,225.93 686.98,223.82 692.35,218.64 C691.86,214.66 692.2,210.54 692.73,205.05 Z" id="Shape" fill="#000000" fill-rule="nonzero" opacity="0.1"></path>
            <circle id="Oval" fill="#FDB797" fill-rule="nonzero" cx="671.48" cy="196.43" r="29.82"></circle>
            <path d="M671.53,192.4 C672.18,194.7 670.27,196.83 668.89,198.78 C664.06,205.61 664.95,214.91 667.16,222.97 C668.24,226.92 669.86,231.12 673.39,233.19 C676.21,234.84 679.68,234.77 682.84,235.6 C688.53,237.09 693.13,241.6 695.84,246.79 C698.55,251.98 699.52,257.97 699.84,263.85 C700.806311,280.857839 696.717993,297.771294 688.09,312.46 C696.94,313.97 706.09,309.94 712.44,303.57 C718.79,297.2 722.61,288.76 725.28,280.19 C727.733018,272.311702 729.302657,264.185131 729.96,255.96 C730.67,247.02 730.3,238.04 729.96,229.08 C729.53,218.63 729.03,207.9 724.81,198.33 C723.16,194.59 720.96,191.07 719.94,187.11 C719.376951,184.397431 718.98617,181.651942 718.77,178.89 C717.39,168.06 712.26,157.56 703.85,150.6 C695.44,143.64 683.69,140.6 673.17,143.47 C667.17,145.14 661.79,148.59 656.81,152.37 C648.75,158.5 639.5,168.37 645.19,178.87 C650.14,188.06 661.08,194.04 671.53,192.4 Z" id="Shape" fill="#000000" fill-rule="nonzero" opacity="0.1"></path>
            <path d="M672.19,191.74 C672.84,194.04 670.93,196.17 669.55,198.12 C664.72,204.95 665.61,214.25 667.82,222.31 C668.9,226.26 670.52,230.46 674.05,232.53 C676.87,234.18 680.34,234.11 683.5,234.94 C689.19,236.43 693.79,240.94 696.5,246.13 C699.21,251.32 700.18,257.31 700.5,263.19 C701.466268,280.209913 697.370749,297.134811 688.73,311.83 C697.58,313.34 706.73,309.31 713.08,302.94 C719.43,296.57 723.25,288.13 725.92,279.56 C728.373018,271.681702 729.942657,263.555131 730.6,255.33 C731.31,246.39 730.94,237.41 730.6,228.45 C730.17,218 729.67,207.27 725.45,197.7 C723.8,193.96 721.6,190.44 720.58,186.48 C720.016951,183.767431 719.62617,181.021942 719.41,178.26 C718.03,167.43 712.9,156.93 704.49,149.97 C696.08,143.01 684.33,139.97 673.81,142.84 C667.81,144.51 662.43,147.96 657.45,151.74 C649.39,157.87 640.14,167.74 645.83,178.24 C650.81,187.4 661.73,193.38 672.19,191.74 Z" id="Shape" fill="#72351C" fill-rule="nonzero"></path>
            <path d="M675.13,339.91 C675.13,339.91 687.72,339.91 692.36,333.91" id="Shape" fill="#000000" fill-rule="nonzero" opacity="0.1"></path>
            <path d="M675.13,344.55 C675.13,344.55 687.72,344.55 692.36,338.55" id="Shape" fill="#000000" fill-rule="nonzero" opacity="0.1"></path>
            <path d="M687.06,268.34 C687.06,268.34 685.06,284.25 677.78,291.54" id="Shape" fill="#000000" fill-rule="nonzero" opacity="0.1"></path>
            <g id="Group" opacity="0.1" transform="translate(399.000000, 665.000000)" fill="url(#linearGradient-2)" fill-rule="nonzero">
                <polygon id="Shape" points="0.73 0.45 0.73 0.29 0.49 0.37"></polygon>
            </g>
            <g id="Group" opacity="0.1" transform="translate(394.000000, 663.000000)" fill="url(#linearGradient-3)" fill-rule="nonzero">
                <path d="M5.03,2.45 C5.18384173,2.45371015 5.33686341,2.42650629 5.48,2.37 C3.94,1.83 -3.85,-0.73 5.03,2.45 Z" id="Shape"></path>
            </g>
            <path d="M498.48,314.39 C493.42,311.92 482.62,307.7 473.34,311.19 C473.34,311.19 384.34,328.83 373.12,300.33 C372.593333,298.996667 372.083333,297.713333 371.59,296.48 C371.814445,294.6121 371.911336,292.731075 371.88,290.85 C371.918729,288.536778 371.754769,286.224609 371.39,283.94 C370.803172,280.596466 369.518618,277.414043 367.62,274.6 C365.412303,270.899301 363.605426,266.973785 362.23,262.89 C357.862245,250.985032 348.60524,241.520535 336.8,236.89 C336.97,232.63 339.98,226.34 342.71,221.45 L342.8,221.45 L343.63,220.05 C355.388489,215.570761 363.199615,204.342268 363.31,191.76 C363.30933,185.836275 361.53668,180.048172 358.22,175.14 C367.63,173.63 364.41,165.63 358.59,158.77 C357.461377,157.44071 356.255986,156.178555 354.98,154.99 C349.297384,149.393512 342.143848,145.523737 334.35,143.83 C333.42,143.63 332.48,143.48 331.54,143.35 C320.196876,139.442399 307.686486,140.973004 297.62,147.5 C295.134735,140.446753 288.437923,135.755768 280.96,135.83 C271.28,135.83 263.44,143.42 263.44,152.83 C263.44,162.24 271.28,169.83 280.96,169.83 L281.96,169.83 C281.311991,172.505525 280.976416,175.247168 280.96,178 C280.96,195.12 293.09,209.5 309.49,213.52 L309.78,213.79 C309.78,214.07 309.73,214.36 309.69,214.64 L309.76,214.7 C309.135168,219.736144 307.546229,224.604814 305.08,229.04 L304.46,228.89 C291.53,237.89 286.85,251.54 286.96,265.76 C286.89,277.84 290.23,290.48 294.96,300.76 C296.697212,304.870233 297.555588,309.298362 297.48,313.76 C297.23,329.16 290.14,347.64 285.32,358.46 C283.41,362.75 255.72,429.71 255.72,429.71 L256.35,429.55 L255.72,431.07 C261.78,429.37 268.28,430.15 273.8,431.64 C281.476813,433.655578 289.641531,432.502573 296.46,428.44 C297.201358,431.655778 298.475621,434.724827 300.23,437.52 C303.82,442.52 299.9,469.64 297.54,483.83 C296.848841,487.886294 296.514229,491.995324 296.54,496.11 C296.67,508.98 283.43,531.84 283.43,531.84 C267.31,540.66 243.48,621.4 243.48,621.4 C243.48,625.72 240.9,632.3 238.73,637.09 C237.15,640.58 235.73,643.09 235.73,643.09 C235.709362,643.336235 235.709362,643.583765 235.73,643.83 C235.73,643.83 235.73,643.9 235.73,643.93 C235.746788,644.057785 235.770152,644.18462 235.8,644.31 L226.6,667.52 C251.83,681.09 286.17,683.13 286.17,683.13 C313.5,685.13 298.79,670.24 298.79,670.24 C281.79,670.24 270.09,653.56 265.36,645.43 L266.55,645.14 C263.05,622.07 313.55,544.72 313.55,544.72 L329.67,524.36 L339.48,499.83 C342.21,496.45 344.92,491.09 347.48,484.77 L371.02,539.83 C369.62,573.76 394.85,640.25 394.85,640.25 C398.76,644.67 399.64,654.38 399.74,655.7 L400.45,655.46 L399.05,678.93 C407.46,684.36 470.54,668.07 470.54,668.07 C485.96,658.57 476.15,655.86 476.15,655.86 C460.41,660.94 437.59,650.04 427.15,644.25 L428.52,643.65 C418.71,638.22 403.29,531.02 403.29,531.02 C407.5,516.77 396.29,491.02 396.29,491.02 C397.57,481.12 389.51,447.87 383.01,423.34 C391.354352,423.268929 399.673823,422.418569 407.86,420.8 C407.34,420.47 406.86,420.12 406.33,419.8 C407.33,419.61 407.86,419.49 407.86,419.49 C386.2,405.64 373.86,358.86 368.53,332.36 C369.863177,333.491776 371.299452,334.496164 372.82,335.36 L379.82,338.75 L379.02,337.88 C382.93,339.61 389.67,341.88 393.49,339.09 C399.1,335.02 471.28,322.81 471.28,322.81 C471.28,322.81 491.28,328.52 499.51,319 C500.132224,318.300662 500.380039,317.344699 500.175927,316.431149 C499.971815,315.517598 499.340699,314.758013 498.48,314.39 Z" id="Shape" fill="url(#linearGradient-4)" fill-rule="nonzero"></path>
            <circle id="Oval" fill="#FFC533" fill-rule="nonzero" cx="321.23" cy="184.83" r="35.79"></circle>
            <path d="M348.07,220.29 C348.07,220.29 335.48,239.51 338.79,245.47 L306.32,237.47 C306.32,237.47 314.94,228.19 312.95,205.66 L348.07,220.29 Z" id="Shape" fill="#FDB797" fill-rule="nonzero"></path>
            <path d="M312.28,207.04 L347.4,221.62 C347.4,221.62 345.81,224.04 343.92,227.43 C340.49,228.81 335.75,227.92 331.83,227.92 C323.83,227.92 317.98,225.81 312.61,220.63 C313.11,216.65 312.73,212.53 312.28,207.04 Z" id="Shape" fill="#000000" fill-rule="nonzero" opacity="0.1"></path>
            <circle id="Oval" fill="#FDB797" fill-rule="nonzero" cx="333.49" cy="198.42" r="29.82"></circle>
            <circle id="Oval" fill="#FFC533" fill-rule="nonzero" cx="285.44" cy="160.31" r="16.57"></circle>
            <path d="M354.67,182.43 C347.21,182.3 338.73,180.8 333.14,185.73 C329.14,189.27 328.06,194.99 326.7,200.17 C324.7,207.95 320.12,216.5 312.16,217.66 C307.3,218.37 302.41,215.95 298.96,212.45 C295.51,208.95 293.28,204.45 291.17,200.04 C289.06,195.63 287,191.04 287.17,186.15 C287.38,180.34 290.77,175.15 294.23,170.5 C296.316949,167.579978 298.641518,164.837321 301.18,162.3 C309.104676,154.663803 319.886747,150.73117 330.866868,151.472067 C341.84699,152.212963 352.003011,157.558418 358.83,166.19 C365.04,173.72 368.13,182.66 354.67,182.43 Z" id="Shape" fill="#000000" fill-rule="nonzero" opacity="0.1"></path>
            <path d="M354.01,181.77 C346.55,181.64 338.07,180.14 332.48,185.07 C328.48,188.61 327.4,194.33 326.04,199.51 C324.04,207.29 319.46,215.84 311.5,217 C306.64,217.71 301.75,215.29 298.3,211.79 C294.85,208.29 292.62,203.79 290.51,199.38 C288.4,194.97 286.34,190.38 286.51,185.49 C286.72,179.68 290.11,174.49 293.57,169.84 C295.656949,166.919978 297.981518,164.177321 300.52,161.64 C308.444676,154.003803 319.226747,150.07117 330.206868,150.812067 C341.18699,151.552963 351.343011,156.898418 358.17,165.53 C364.37,173.06 367.47,182 354.01,181.77 Z" id="Shape" fill="#FFC533" fill-rule="nonzero"></path>
            <path d="M418.32,637.15 C418.32,637.15 450.13,658.36 470.01,651.73 C470.01,651.73 479.29,654.38 464.71,663.66 C464.71,663.66 405.06,679.57 397.11,674.26 L399.11,639.8 L418.32,637.15 Z" id="Shape" fill="#333333" fill-rule="nonzero"></path>
            <path d="M268.54,637.15 C268.54,637.15 281.13,665.65 302.34,665.65 C302.34,665.65 316.26,680.23 290.41,678.24 C290.41,678.24 257.94,676.24 234.08,663 L245.49,633.26 L268.54,637.15 Z" id="Shape" fill="#333333" fill-rule="nonzero"></path>
            <path d="M374.58,397.24 C374.58,397.24 396.45,474.78 394.46,490.68 C394.46,490.68 405.06,515.86 401.09,529.78 C401.09,529.78 415.67,634.49 424.95,639.78 C424.95,639.78 397.95,652 397.12,651.71 C387.84,648.4 397.78,651.71 397.78,651.71 C397.78,651.71 397.12,641.11 393.14,636.47 C393.14,636.47 369.28,571.52 370.61,538.39 L338.8,461.51 L374.58,397.24 Z" id="Shape" fill="#3AD29F" fill-rule="nonzero"></path>
            <path d="M374.58,397.24 C374.58,397.24 396.45,474.78 394.46,490.68 C394.46,490.68 405.06,515.86 401.09,529.78 C401.09,529.78 415.67,634.49 424.95,639.78 C424.95,639.78 397.95,652 397.12,651.71 C387.84,648.4 397.78,651.71 397.78,651.71 C397.78,651.71 397.12,641.11 393.14,636.47 C393.14,636.47 369.28,571.52 370.61,538.39 L338.8,461.51 L374.58,397.24 Z" id="Shape" fill="#000000" fill-rule="nonzero" opacity="0.1"></path>
            <path d="M378.56,393.26 L363.98,427.72 C363.98,427.72 352.71,484.05 340.78,499.29 L331.5,523.15 L316.26,543.03 C316.26,543.03 268.54,618.58 271.86,641.11 C271.86,641.11 242.04,649.11 242.7,639.11 C242.7,639.11 249.99,625.19 249.99,617.9 C249.99,617.9 272.52,539.04 287.77,530.42 C287.77,530.42 300.29,508.09 300.17,495.53 C300.163209,491.508911 300.497743,487.494502 301.17,483.53 C303.4,469.67 307.11,443.15 303.71,438.3 C299.07,431.67 291.12,401.19 313.65,380.64 L378.56,393.26 Z" id="Shape" fill="#3AD29F" fill-rule="nonzero"></path>
            <path d="M242.73,639.13 C242.73,639.13 250.02,625.21 250.02,617.92 C250.02,617.92 272.55,539.06 287.8,530.44 C287.8,530.44 300.32,508.11 300.2,495.55 C300.193209,491.528911 300.527743,487.514502 301.2,483.55 C303.43,469.69 307.14,443.17 303.74,438.32 C299.1,431.69 291.15,401.21 313.68,380.66 L317.52,381.41 C295.91,401.95 303.73,431.83 308.31,438.33 C312.89,444.83 304.31,492.01 304.31,492.01 C307.62,503.28 292.38,530.45 292.38,530.45 C277.14,539.07 254.6,617.93 254.6,617.93 C254.6,625.22 247.31,639.14 247.31,639.14 C247.09,642.42 250.2,643.75 254.46,644.06 C248.07,644.43 242.4,643.53 242.73,639.13 Z" id="Shape" fill="#000000" fill-rule="nonzero" opacity="0.1"></path>
            <path d="M307.67,235.83 L332.3,241.89 C346.266883,245.343075 357.548891,255.609702 362.3,269.19 C363.59406,273.170025 365.299967,277.004127 367.39,280.63 C369.190686,283.396756 370.402505,286.504595 370.95,289.76 C371.95,296.25 371.87,306.76 365.07,318.68 C365.07,318.68 376.28,402.85 405.39,422.07 C405.39,422.07 376.98,428.61 352.08,420.52 C335.39,415.1 317.08,417.38 302.78,427.62 L302.16,428.07 C295.452638,433.081781 286.818565,434.743739 278.73,432.58 C273.51,431.13 267.36,430.37 261.63,432.03 C261.63,432.03 287.82,366.64 289.63,362.44 C295.73,348.25 305.73,320.57 298.73,304.83 C289,282.92 285.44,250.45 307.67,235.83 Z" id="Shape" fill="#000000" fill-rule="nonzero" opacity="0.1"></path>
            <path d="M307.67,234.54 L332.3,240.6 C346.266883,244.053075 357.548891,254.319702 362.3,267.9 C363.59406,271.880025 365.299967,275.714127 367.39,279.34 C369.190686,282.106756 370.402505,285.214595 370.95,288.47 C371.95,294.96 371.87,305.47 365.07,317.39 C365.07,317.39 376.28,401.56 405.39,420.78 C405.39,420.78 376.98,427.32 352.08,419.23 C335.39,413.81 317.08,416.09 302.78,426.33 L302.16,426.78 C295.447647,431.781406 286.814008,433.432225 278.73,431.26 C273.51,429.81 267.36,429.05 261.63,430.71 C261.63,430.71 287.82,365.32 289.63,361.12 C295.73,346.92 305.73,319.24 298.73,303.46 C289,281.59 285.44,250.45 307.67,234.54 Z" id="Shape" fill="#535461" fill-rule="nonzero"></path>
            <path d="M334.49,294.83 C334.49,294.83 360.34,331.94 372.27,338.57 L378.9,341.88 C378.9,341.88 337.14,294.83 334.49,294.83 Z" id="Shape" fill="#000000" fill-rule="nonzero" opacity="0.1"></path>
            <path d="M358.67,275.96 C358.67,275.96 341.67,269.27 334.38,291.45 C333.775723,293.283393 334.21201,295.300266 335.52,296.72 L375.24,339.59 C375.24,339.59 386.51,346.22 391.81,342.24 C397.11,338.26 465.37,326.33 465.37,326.33 C465.37,326.33 484.19,331.86 491.98,322.7 C492.565128,322.022374 492.809603,321.115055 492.644141,320.235184 C492.478678,319.355313 491.92131,318.598782 491.13,318.18 C487.02,316.11 479.5,316.18 471.41,315.49 C468.612094,315.248404 465.794557,315.376168 463.03,315.87 C445.73,318.94 381.73,328.48 372.59,304.46 C361.99,276.62 358.67,275.96 358.67,275.96 Z" id="Shape" fill="#FDB797" fill-rule="nonzero"></path>
            <path d="M359.01,276.29 C359.01,276.29 338.47,272.98 333.83,293.52 L333.83,292.19 C333.83,292.19 339.79,269.66 359.01,276.29 Z" id="Shape" fill="#000000" fill-rule="nonzero" opacity="0.1"></path>
            <g id="Group-2" transform="translate(532.000000, 123.000000)"></g>
            <path d="M573.73,245.14 C573.73,274.892243 555.807681,301.714888 528.320193,313.100578 C500.832705,324.486269 469.193238,318.192787 448.155225,297.154775 C427.117213,276.116762 420.823731,244.477295 432.209422,216.989807 C443.595112,189.502319 470.417757,171.58 500.17,171.58 C540.796066,171.58 573.73,204.513934 573.73,245.14 Z M478.746106,239.946384 C480.499996,228.105165 488.769536,219.344703 502.283991,219.344703 C512.293457,219.344703 519.945783,224.364042 523.241311,232.129705 L539.01795,222.927111 C533.133479,210.144943 519.593888,201.42416 502.049394,201.42416 C481.432798,201.42416 466.932478,213.251208 461.584228,229.8907 L478.746106,239.946384 Z M524.203992,257.865557 C520.908464,265.63122 513.136047,270.65056 503.012075,270.65056 C490.095283,270.65056 481.733581,262.638322 479.426712,251.599177 L462.513395,261.507483 C468.32246,277.356238 482.764131,288.571103 502.774685,288.571103 C520.436478,288.571103 534.093367,279.731284 539.980631,266.946282 L524.203992,257.865557 Z M449.746082,233.015837 C448.983642,236.873161 448.57589,240.914707 448.57589,245.112133 C448.57589,249.867893 449.098147,254.422427 450.078427,258.738888 L471.862422,245.973725 L449.746082,233.015837 Z" id="Shape" fill="#FFFFFF" fill-rule="nonzero" opacity="0.5"></path>
            <path d="M491.67,632.83 C491.67,632.83 475.91,579.33 494.67,539.95 C502.619356,523.487125 505.01588,504.890376 501.5,486.95 C499.761737,478.44472 497.247897,470.11658 493.99,462.07" id="Shape" stroke="#535461" stroke-width="2"></path>
            <path d="M505.6,437.16 C505.6,443.72 493.73,462.73 493.73,462.73 C493.73,462.73 481.86,443.73 481.86,437.16 C481.86,432.917471 484.123362,428.997212 487.7975,426.875947 C491.471638,424.754683 495.998362,424.754683 499.6725,426.875947 C503.346638,428.997212 505.61,432.917471 505.61,437.16 L505.6,437.16 Z" id="Shape" fill="#FF5A5F" fill-rule="nonzero"></path>
            <path d="M525.22,473.48 C521.66,478.98 501.36,488.48 501.36,488.48 C501.36,488.48 501.73,466.07 505.29,460.56 C508.854998,455.056482 516.206482,453.485002 521.71,457.05 C527.213518,460.614998 528.784998,467.966482 525.22,473.47 L525.22,473.48 Z" id="Shape" fill="#FF5A5F" fill-rule="nonzero"></path>
            <path d="M524.36,535.55 C518.51,538.55 496.18,536.46 496.18,536.46 C496.18,536.46 507.81,517.3 513.67,514.34 C517.457015,512.430415 521.975113,512.686235 525.52237,515.011094 C529.069626,517.335953 531.107129,521.37665 530.86737,525.611094 C530.627611,529.845538 528.147016,533.630416 524.36,535.54 L524.36,535.55 Z" id="Shape" fill="#FF5A5F" fill-rule="nonzero"></path>
            <path d="M513.14,582.37 C507.87,586.27 485.52,588.03 485.52,588.03 C485.52,588.03 493.75,567.18 499.02,563.28 C502.4301,560.757705 506.926791,560.246275 510.816213,561.93836 C514.705634,563.630446 517.396891,567.26898 517.876213,571.483361 C518.355534,575.697741 516.5501,579.847705 513.14,582.37 Z" id="Shape" fill="#FF5A5F" fill-rule="nonzero"></path>
            <path d="M476.43,489.77 C481.13,494.34 503.05,499.07 503.05,499.07 C503.05,499.07 497.68,477.3 492.98,472.74 C489.978072,469.606379 485.505396,468.360649 481.315787,469.491283 C477.126179,470.621918 473.887467,473.948691 472.869609,478.167117 C471.85175,482.385543 473.216992,486.823198 476.43,489.74 L476.43,489.77 Z" id="Shape" fill="#FF5A5F" fill-rule="nonzero"></path>
            <path d="M464,544.68 C469.85,547.68 492.18,545.59 492.18,545.59 C492.18,545.59 480.54,526.43 474.73,523.48 C470.942985,521.570415 466.424887,521.826235 462.87763,524.151094 C459.330374,526.475953 457.292871,530.51665 457.53263,534.751094 C457.772389,538.985538 460.252984,542.770416 464.04,544.68 L464,544.68 Z" id="Shape" fill="#FF5A5F" fill-rule="nonzero"></path>
            <path d="M459.24,599.72 C464.51,603.62 486.86,605.38 486.86,605.38 C486.86,605.38 478.63,584.53 473.36,580.63 C468.088442,576.73087 460.65413,577.843442 456.755,583.115 C452.85587,588.386558 453.968442,595.82087 459.24,599.72 Z" id="Shape" fill="#FF5A5F" fill-rule="nonzero"></path>
            <path d="M505.6,437.16 C505.6,443.72 493.73,462.73 493.73,462.73 C493.73,462.73 481.86,443.73 481.86,437.16 C481.86,432.917471 484.123362,428.997212 487.7975,426.875947 C491.471638,424.754683 495.998362,424.754683 499.6725,426.875947 C503.346638,428.997212 505.61,432.917471 505.61,437.16 L505.6,437.16 Z" id="Shape" fill="#FFFFFF" fill-rule="nonzero" opacity="0.5"></path>
            <path d="M525.22,473.48 C521.66,478.98 501.36,488.48 501.36,488.48 C501.36,488.48 501.73,466.07 505.29,460.56 C508.854998,455.056482 516.206482,453.485002 521.71,457.05 C527.213518,460.614998 528.784998,467.966482 525.22,473.47 L525.22,473.48 Z" id="Shape" fill="#FFFFFF" fill-rule="nonzero" opacity="0.5"></path>
            <path d="M524.36,535.55 C518.51,538.55 496.18,536.46 496.18,536.46 C496.18,536.46 507.81,517.3 513.67,514.34 C517.457015,512.430415 521.975113,512.686235 525.52237,515.011094 C529.069626,517.335953 531.107129,521.37665 530.86737,525.611094 C530.627611,529.845538 528.147016,533.630416 524.36,535.54 L524.36,535.55 Z" id="Shape" fill="#FFFFFF" fill-rule="nonzero" opacity="0.5"></path>
            <path d="M513.14,582.37 C507.87,586.27 485.52,588.03 485.52,588.03 C485.52,588.03 493.75,567.18 499.02,563.28 C502.4301,560.757705 506.926791,560.246275 510.816213,561.93836 C514.705634,563.630446 517.396891,567.26898 517.876213,571.483361 C518.355534,575.697741 516.5501,579.847705 513.14,582.37 Z" id="Shape" fill="#FFFFFF" fill-rule="nonzero" opacity="0.5"></path>
            <path d="M476.43,489.77 C481.13,494.34 503.05,499.07 503.05,499.07 C503.05,499.07 497.68,477.3 492.98,472.74 C489.978072,469.606379 485.505396,468.360649 481.315787,469.491283 C477.126179,470.621918 473.887467,473.948691 472.869609,478.167117 C471.85175,482.385543 473.216992,486.823198 476.43,489.74 L476.43,489.77 Z" id="Shape" fill="#FFFFFF" fill-rule="nonzero" opacity="0.5"></path>
            <path d="M464,544.68 C469.85,547.68 492.18,545.59 492.18,545.59 C492.18,545.59 480.54,526.43 474.73,523.48 C470.942985,521.570415 466.424887,521.826235 462.87763,524.151094 C459.330374,526.475953 457.292871,530.51665 457.53263,534.751094 C457.772389,538.985538 460.252984,542.770416 464.04,544.68 L464,544.68 Z" id="Shape" fill="#FFFFFF" fill-rule="nonzero" opacity="0.5"></path>
            <path d="M459.24,599.72 C464.51,603.62 486.86,605.38 486.86,605.38 C486.86,605.38 478.63,584.53 473.36,580.63 C468.088442,576.73087 460.65413,577.843442 456.755,583.115 C452.85587,588.386558 453.968442,595.82087 459.24,599.72 Z" id="Shape" fill="#FFFFFF" fill-rule="nonzero" opacity="0.5"></path>
        </g>
    </g>
</svg>