<?xml version="1.0" encoding="UTF-8"?>
<svg width="942px" height="746px" viewBox="0 0 942 746" version="1.1" xmlns="http://www.w3.org/2000/svg" xmlns:xlink="http://www.w3.org/1999/xlink">
    <!-- Generator: Sketch 48.2 (47327) - http://www.bohemiancoding.com/sketch -->
    <title>loading1</title>
    <desc>Created with Sketch.</desc>
    <defs>
        <linearGradient x1="49.9985045%" y1="100%" x2="49.9985045%" y2="0%" id="linearGradient-1">
            <stop stop-color="#808080" stop-opacity="0.25" offset="0%"></stop>
            <stop stop-color="#808080" stop-opacity="0.12" offset="54%"></stop>
            <stop stop-color="#808080" stop-opacity="0.1" offset="100%"></stop>
        </linearGradient>
        <linearGradient x1="42502%" y1="45978%" x2="42502%" y2="16272%" id="linearGradient-2">
            <stop stop-color="#808080" stop-opacity="0.25" offset="0%"></stop>
            <stop stop-color="#808080" stop-opacity="0.12" offset="54%"></stop>
            <stop stop-color="#808080" stop-opacity="0.1" offset="100%"></stop>
        </linearGradient>
        <linearGradient x1="60000%" y1="82436%" x2="60000%" y2="33487%" id="linearGradient-3">
            <stop stop-color="#808080" stop-opacity="0.25" offset="0%"></stop>
            <stop stop-color="#808080" stop-opacity="0.12" offset="54%"></stop>
            <stop stop-color="#808080" stop-opacity="0.1" offset="100%"></stop>
        </linearGradient>
        <linearGradient x1="61759%" y1="47982%" x2="61759%" y2="13705%" id="linearGradient-4">
            <stop stop-color="#808080" stop-opacity="0.25" offset="0%"></stop>
            <stop stop-color="#808080" stop-opacity="0.12" offset="54%"></stop>
            <stop stop-color="#808080" stop-opacity="0.1" offset="100%"></stop>
        </linearGradient>
    </defs>
    <g id="Page-1" stroke="none" stroke-width="1" fill="none" fill-rule="evenodd">
        <g id="loading" fill-rule="nonzero">
            <g id="Group" opacity="0.5" transform="translate(52.000000, 0.000000)" fill="url(#linearGradient-1)">
                <rect id="Rectangle-path" x="0.32" y="0" width="334.33" height="505.38" rx="4.5"></rect>
            </g>
            <rect id="Rectangle-path" fill="#F2F2F2" x="56.6" y="3.71" width="325.76" height="495.16" rx="4.5"></rect>
            <g id="Group" opacity="0.5" transform="translate(89.000000, 94.000000)" fill="#FD4703">
                <rect id="Rectangle-path" x="0.18" y="0.93" width="65.15" height="58.64" rx="4.5"></rect>
            </g>
            <rect id="Rectangle-path" fill="#E0E0E0" x="173.88" y="94.93" width="175.91" height="6.52" rx="2.82"></rect>
            <rect id="Rectangle-path" fill="#E0E0E0" x="173.88" y="114.47" width="146.23" height="6.52" rx="2.82"></rect>
            <g id="Group" opacity="0.5" transform="translate(89.000000, 186.000000)" fill="#FD4703">
                <rect id="Rectangle-path" x="0.18" y="0.14" width="65.15" height="58.64" rx="4.5"></rect>
            </g>
            <rect id="Rectangle-path" fill="#E0E0E0" x="173.88" y="186.14" width="175.91" height="6.52" rx="2.82"></rect>
            <rect id="Rectangle-path" fill="#E0E0E0" x="173.88" y="205.68" width="175.91" height="6.52" rx="2.82"></rect>
            <g id="Group" opacity="0.5" transform="translate(89.000000, 277.000000)" fill="#FD4703">
                <rect id="Rectangle-path" x="0.18" y="0.35" width="65.15" height="58.64" rx="4.5"></rect>
            </g>
            <rect id="Rectangle-path" fill="#E0E0E0" x="173.88" y="277.35" width="175.91" height="6.52" rx="2.82"></rect>
            <rect id="Rectangle-path" fill="#E0E0E0" x="173.88" y="296.9" width="19.55" height="6.52" rx="2.82"></rect>
            <g id="Group" opacity="0.5" transform="translate(260.000000, 162.000000)" fill="url(#linearGradient-2)">
                <rect id="Rectangle-path" x="0.36" y="0.72" width="329.32" height="297.06" rx="4.5"></rect>
            </g>
            <rect id="Rectangle-path" fill="#FFFFFF" x="265.45" y="165.7" width="319.7" height="287.73" rx="4.5"></rect>
            <g id="Group" opacity="0.5" transform="translate(296.000000, 227.000000)" fill="#FD4703">
                <rect id="Rectangle-path" x="0.84" y="0.52" width="68.69" height="61.82" rx="4.5"></rect>
            </g>
            <rect id="Rectangle-path" fill="#E0E0E0" x="386.14" y="227.52" width="185.46" height="6.87" rx="2.98"></rect>
            <rect id="Rectangle-path" fill="#E0E0E0" x="386.14" y="248.13" width="185.46" height="6.87" rx="2.98"></rect>
            <rect id="Rectangle-path" fill="#E0E0E0" x="289.97" y="322.92" width="281.63" height="6.87" rx="2.98"></rect>
            <rect id="Rectangle-path" fill="#E0E0E0" x="289.97" y="343.53" width="281.63" height="6.87" rx="2.98"></rect>
            <rect id="Rectangle-path" fill="#E0E0E0" x="289.97" y="371" width="281.63" height="6.87" rx="2.98"></rect>
            <rect id="Rectangle-path" fill="#E0E0E0" x="289.97" y="391.61" width="212.94" height="6.87" rx="2.98"></rect>
            <g id="Group" opacity="0.5" transform="translate(0.000000, 256.000000)" fill="url(#linearGradient-3)">
                <path d="M597.64,17.88 L598.81,12.66 L597.17,17.76 C554.517974,6.23999783 510.549968,0.310367609 466.37,0.12 C148.05,-1.76 0,279.57 0,279.57 L301.66,438.73 C301.66,438.73 338.66,323.99 470.07,327.73 C479.109084,327.976244 488.125267,328.764325 497.07,330.09 L457.09,454.62 C452.437956,461.241078 451.757005,469.868934 455.312788,477.137813 C458.868571,484.406691 466.097783,489.165061 474.180285,489.556666 C482.262786,489.948272 489.918153,485.911075 494.16,479.02 L494.16,478.96 C496.23497,475.587601 497.364442,471.719076 497.43,467.76 C497.43,467.09 497.43,466.42 497.36,465.76 L526.26,336.62 C612.36,363.1 638.45,438.72 638.45,438.72 L942,286.97 C942,286.97 828,80.44 597.64,17.88 Z" id="Shape"></path>
            </g>
            <path d="M466.43,259.24 C152.17,257.41 6,535.13 6,535.13 L303.82,692.24 C303.82,692.24 340.36,578.96 470.09,582.61 C479.227636,582.857136 488.341464,583.665324 497.38,585.03 L596,276.78 C553.75585,265.326992 510.198748,259.43063 466.43,259.24 Z" id="Shape" fill="#FD4703"></path>
            <path d="M596,276.78 L497.38,585.06 C605,601.41 636.35,692.24 636.35,692.24 L936,542.44 C936,542.44 823.41,338.54 596,276.78 Z" id="Shape" fill="#E0E0E0"></path>
            <path d="M497.06,718.95 L597.18,271.62 L457.26,707.95 C452.591702,714.48427 451.870234,723.048206 455.379538,730.271397 C458.888841,737.494587 466.067055,742.220555 474.089129,742.589354 C482.111204,742.958153 489.692756,738.910736 493.85,732.04 L493.85,731.98 C495.897808,728.652834 497.013413,724.836292 497.08,720.93 C497.14,720.24 497.11,719.6 497.06,718.95 Z" id="Shape" fill="#535461"></path>
            <g id="Group" opacity="0.7" transform="translate(433.000000, 58.000000)" fill="url(#linearGradient-4)">
                <path d="M100.25,200.71 L97.63,200.22 L102.8,181.22 C110.94,120.22 80.19,114.03 68.66,113.82 C67.3339596,113.334897 65.9818527,112.924257 64.61,112.59 L64.61,105.39 C79.4375838,101.731364 90.6637319,89.5969009 93.16,74.53 L93.26,74.53 C95.09,74.53 96.58,71.74 96.58,68.3 C96.6516108,66.4765312 96.1440205,64.6772109 95.13,63.16 C95.2633333,61.8266667 95.33,60.4933333 95.33,59.16 C95.3366507,48.2796276 90.8797033,37.8728544 83,30.37 C82.4675723,27.7098734 81.5156964,25.1512852 80.18,22.79 C77.35,17.79 72.64,12.61 74.56,7.2 L62.13,8.48 L62.01,0.29 C58.13,0.99 56.5,5.48 54.2,8.68 C48.66,16.38 37.55,17.45 30.2,23.45 C27.7,25.45 22.08,31.69 23.15,35.76 C18.2133307,42.5512831 15.5592738,50.7340418 15.57,59.13 C15.57,60.4633333 15.6366667,61.7966667 15.77,63.13 C14.7559795,64.6472109 14.2483892,66.4465312 14.32,68.27 C14.32,71.71 15.81,74.5 17.64,74.5 L17.74,74.5 C20.2362681,89.5669009 31.4624162,101.701364 46.29,105.36 L46.29,112.56 C44.9181473,112.894257 43.5660404,113.304897 42.24,113.79 C30.71,114 -0.04,120.15 8.1,181.19 L13.27,200.19 L12.04,200.42 C8.3454617,201.109424 5.07614513,203.238334 2.95133201,206.338348 C0.826518884,209.438362 0.0202815043,213.255517 0.71,216.95 L21.14,326.14 C21.5748068,328.467058 23.8124321,330.002069 26.14,329.57 L29.73,328.9 L29.73,331.02 C25.6660121,333.027881 23.0925917,337.167057 23.09,341.7 L23.09,343.05 L47.17,343.05 L47.17,341.7 C47.1682561,337.505245 44.9617732,333.620164 41.36,331.47 L41.36,326.72 L44.64,326.11 C46.967058,325.675193 48.502069,323.437568 48.07,321.11 L28.93,218.53 L82,218.53 L62.88,321.12 C62.447931,323.447568 63.982942,325.685193 66.31,326.12 L69.59,326.73 L69.59,331.48 C65.9882268,333.630164 63.7817439,337.515245 63.78,341.71 L63.78,343.06 L87.86,343.06 L87.86,341.71 C87.8574083,337.177057 85.2839879,333.037881 81.22,331.03 L81.22,328.91 L84.81,329.58 C87.1375679,330.012069 89.3751932,328.477058 89.81,326.15 L110.45,215.59 C111.072388,212.263983 110.347125,208.826972 108.433957,206.035997 C106.520789,203.245022 103.576645,201.329018 100.25,200.71 Z" id="Shape"></path>
            </g>
            <rect id="Rectangle-path" fill="#FDB797" x="463.72" y="373" width="11.18" height="15.18"></rect>
            <rect id="Rectangle-path" fill="#FDB797" x="502.06" y="373" width="11.18" height="15.18"></rect>
            <rect id="Rectangle-path" fill="#4D8AF0" x="451.74" y="248.4" width="73.49" height="26.36"></rect>
            <g id="Group" opacity="0.05" transform="translate(451.000000, 248.000000)" fill="#000000">
                <rect id="Rectangle-path" x="0.74" y="0.4" width="73.49" height="26.36"></rect>
            </g>
            <path d="M451.74,253.19 C451.74,253.19 479.16,259.58 488.48,259.58 C497.8,259.58 525.22,253.19 525.22,253.19 L525.22,249.19 L451.74,249.19 L451.74,253.19 Z" id="Shape" fill="#000000" opacity="0.1"></path>
            <path d="M525.22,252.39 C525.22,252.39 497.8,258.78 488.48,258.78 C479.16,258.78 451.74,252.39 451.74,252.39 L451.74,208.46 C451.74,188.169058 468.189058,171.72 488.48,171.72 C508.770942,171.72 525.22,188.169058 525.22,208.46 L525.22,252.39 Z" id="Shape" fill="#FFB400"></path>
            <path d="M479.7,153.34 L497.27,153.34 L497.27,174.48 C497.27,178.682887 493.862887,182.09 489.66,182.09 L487.32,182.09 C483.117113,182.09 479.71,178.682887 479.71,174.48 L479.71,153.34 L479.7,153.34 Z" id="Shape" fill="#FDB797"></path>
            <path d="M477,378.46 L461.25,381.4 C458.455094,381.90511 455.776056,380.061039 455.25,377.27 L436.47,276.63 C435.637049,272.180824 436.606402,267.583006 439.164648,263.848792 C441.722894,260.114578 445.660295,257.550119 450.11,256.72 L454.17,255.96 C456.964906,255.45489 459.643944,257.298961 460.17,260.09 L481.17,372.42 C481.423502,373.774569 481.125714,375.174289 480.342759,376.308354 C479.559804,377.442418 478.356486,378.216963 477,378.46 Z" id="Shape" fill="#4D8AF0"></path>
            <path d="M499.92,378.46 L515.67,381.4 C518.464906,381.90511 521.143944,380.061039 521.67,377.27 L540.77,274.95 C542.321896,266.613851 536.825185,258.597067 528.49,257.04 L522.75,255.97 C519.955094,255.46489 517.276056,257.308961 516.75,260.1 L495.75,372.43 C495.499445,373.78306 495.798637,375.18018 496.58132,376.311973 C497.364003,377.443766 498.565592,378.21684 499.92,378.46 Z" id="Shape" fill="#4D8AF0"></path>
            <path d="M479.7,166.66 C485.470616,168.07982 491.499384,168.07982 497.27,166.66 L497.27,154.14 L479.7,154.14 L479.7,166.66 Z" id="Shape" fill="#000000" opacity="0.1"></path>
            <circle id="Oval" fill="#333333" cx="488.48" cy="121.39" r="38.34"></circle>
            <circle id="Oval" fill="#FDB797" cx="488.48" cy="130.18" r="36.74"></circle>
            <path d="M464.22,87.06 C471.29,81.29 481.98,80.26 487.3,72.85 C489.51,69.77 491.08,65.44 494.81,64.77 L494.92,72.65 L506.92,71.42 C505.07,76.62 509.6,81.62 512.33,86.42 C514.336278,89.9669803 515.432278,93.9558711 515.52,98.03 C511.37,100.52 506.22,97.8 501.6,96.35 C496.98,94.9 492.33,94.79 487.6,94.66 C485.186067,94.4921125 482.760615,94.6264865 480.38,95.06 C478.319708,95.612828 476.311985,96.3456469 474.38,97.25 C471.2,98.58 461.15,103.61 458.2,100.37 C454.88,96.7 461.49,89.29 464.22,87.06 Z" id="Shape" fill="#333333"></path>
            <path d="M466.22,111.75 C468.228214,112.85152 470.43992,113.532045 472.72,113.75 C482.132362,115.037248 491.717117,113.961584 500.61,110.62 C502.07,114.31 505.61,116.85 509.4,118.05 C513.19,119.25 517.21,119.31 521.18,119.37 C522.052426,119.468377 522.93423,119.301078 523.71,118.89 C525.48,117.7 524.62,114.96 523.59,113.1 L518.47,103.82 C516.96,101.08 515.4,98.28 513.06,96.21 C510.12,93.61 506.22,92.39 502.38,91.62 C493.291669,89.8102769 483.908345,90.1216855 474.96,92.53 C465.39,95.06 453.1,103.81 466.22,111.75 Z" id="Shape" fill="#000000" opacity="0.1"></path>
            <path d="M466.22,110.95 C468.228214,112.05152 470.43992,112.732045 472.72,112.95 C482.132362,114.237248 491.717117,113.161584 500.61,109.82 C502.07,113.51 505.61,116.05 509.4,117.25 C513.19,118.45 517.21,118.51 521.18,118.57 C522.052426,118.668377 522.93423,118.501078 523.71,118.09 C525.48,116.9 524.62,114.16 523.59,112.3 L518.47,103.02 C516.96,100.28 515.4,97.48 513.06,95.41 C510.12,92.81 506.22,91.59 502.38,90.82 C493.291669,89.0102769 483.908345,89.3216855 474.96,91.73 C465.39,94.24 453.1,103.02 466.22,110.95 Z" id="Shape" fill="#333333"></path>
            <ellipse id="Oval" fill="#FDB797" cx="524.83" cy="130.18" rx="3.2" ry="5.99"></ellipse>
            <ellipse id="Oval" fill="#FDB797" cx="452.14" cy="130.18" rx="3.2" ry="5.99"></ellipse>
            <path d="M479.84,174.16 C479.84,174.16 433.36,166.92 442.95,238.81 L448.54,259.42 L464.54,258.78 C464.54,258.78 454.16,234.78 460.54,218.84 C466.92,202.9 479.84,174.16 479.84,174.16 Z" id="Shape" fill="#FFB400"></path>
            <path d="M497.12,174.16 C497.12,174.16 543.6,166.92 534.01,238.81 L528.42,259.42 L512.42,258.78 C512.42,258.78 522.8,234.78 516.42,218.84 C510.04,202.9 497.12,174.16 497.12,174.16 Z" id="Shape" fill="#FFB400"></path>
            <circle id="Oval" fill="#FDB797" cx="457.33" cy="261.97" r="8.79"></circle>
            <circle id="Oval" fill="#FDB797" cx="521.23" cy="261.97" r="8.79"></circle>
            <path d="M467.37,381.79 L470.46,381.79 C475.982847,381.79 480.46,386.267153 480.46,391.79 L480.46,394.53 L457.33,394.53 L457.33,391.79 C457.329979,389.13089 458.389036,386.58127 460.27306,384.704752 C462.157084,382.828235 464.710911,381.779364 467.37,381.79 Z" id="Shape" fill="#333333"></path>
            <path d="M506.51,381.79 L509.6,381.79 C515.122847,381.79 519.6,386.267153 519.6,391.79 L519.6,394.53 L496.47,394.53 L496.47,391.79 C496.469979,389.13089 497.529036,386.58127 499.41306,384.704752 C501.297084,382.828235 503.850911,381.779364 506.51,381.79 Z" id="Shape" fill="#333333"></path>
            <path d="M459.73,212.45 C459.73,212.45 456.53,229.22 462.13,236.45" id="Shape" fill="#000000" opacity="0.1"></path>
            <path d="M517.24,212.45 C517.24,212.45 520.44,229.22 514.84,236.45" id="Shape" fill="#000000" opacity="0.1"></path>
        </g>
    </g>
</svg>