<?xml version="1.0" encoding="UTF-8"?>
<svg width="6413px" height="887px" viewBox="0 0 6413 887" version="1.1" xmlns="http://www.w3.org/2000/svg" xmlns:xlink="http://www.w3.org/1999/xlink">
    <!-- Generator: Sketch 48.2 (47327) - http://www.bohemiancoding.com/sketch -->
    <title>Group</title>
    <desc>Created with Sketch.</desc>
    <defs></defs>
    <g id="Page-1" stroke="none" stroke-width="1" fill="none" fill-rule="evenodd">
        <g id="Group">
            <g id="cinerapresvg" transform="translate(3962.000000, 0.000000)"></g>
            <g id="layer102" transform="translate(0.000000, 149.000000)" fill-rule="nonzero">
                <path d="M336,719 C252,693 187,642 141,565 C130,546 120,523 120,515 C120,501 230,425 251,425 C256,425 260,433 260,443 C260,471 306,531 346,556 C374,573 398,579 444,579 C515,578 555,561 596,511 L625,476 L687,514 L750,552 L720,598 C650,709 479,762 336,719 Z" id="Shape" fill="#F3391F"></path>
                <polygon id="Shape" fill="#F3391F" points="840 365 840 5 915 5 990 5 990 365 990 725 915 725 840 725"></polygon>
                <polygon id="Shape" fill="#F3391F" points="1090 365 1090 5 1158 5 1225 5 1393 227 1560 448 1560 226 1560 5 1640 5 1720 5 1720 365 1720 725 1652 725 1584 725 1419 508 1255 292 1250 506 1245 720 1168 723 1090 726"></polygon>
                <polygon id="Shape" fill="#F3391F" points="1820 365 1820 5 2088 7 2355 10 2358 82 2361 155 2168 157 1975 160 1972 223 1969 285 2150 285 2330 285 2330 365 2330 445 2150 445 1969 445 1972 508 1975 570 2173 573 2371 575 2368 648 2365 720 2093 723 1820 725"></polygon>
                <path d="M2460,364 L2460,3 L2673,7 C2867,10 2888,12 2925,32 C3011,78 3050,146 3050,247 C3050,326 3026,380 2972,426 L2930,462 L3007,580 C3049,645 3085,694 3087,689 C3089,684 3153,529 3229,345 L3367,10 L3447,7 C3506,5 3529,8 3533,17 C3536,24 3600,179 3675,360 C3751,542 3814,698 3817,708 C3822,723 3814,725 3738,725 L3654,725 L3630,660 L3606,595 L3449,595 L3293,595 L3269,658 L3244,720 L3088,723 L2932,725 L2858,608 L2783,490 L2696,487 L2610,484 L2610,605 L2610,725 L2535,725 L2460,725 L2460,364 Z M3548,447 C3547,442 3525,386 3500,322 C3476,257 3453,205 3449,205 C3444,205 3398,317 3354,438 C3348,453 3357,455 3450,455 C3506,455 3550,451 3548,447 Z M2853,330 C2876,321 2900,274 2900,240 C2900,224 2888,202 2871,184 C2842,155 2840,155 2726,155 L2610,155 L2610,243 C2610,292 2613,335 2618,339 C2627,349 2827,341 2853,330 Z" id="Shape" fill="#F3391F"></path>
                <path d="M6,444 C-3,399 -1,292 9,277 C15,266 36,275 101,315 C147,344 186,369 188,370 C190,372 24,475 17,475 C14,475 10,461 6,444 Z" id="Shape" fill="#FD4703"></path>
                <path d="M190,289 C160,270 129,250 121,246 C99,233 150,137 206,85 C278,19 328,0 440,0 C550,0 600,18 669,81 C707,114 747,172 738,180 C736,181 709,199 677,219 L619,256 L600,233 C589,220 581,207 580,204 C580,201 561,188 538,175 C487,146 402,143 354,168 C311,190 273,238 260,285 C254,307 248,325 247,324 C246,324 220,308 190,289 Z" id="Shape" fill="#F3391F"></path>
            </g>
            <g id="layer103" transform="translate(115.000000, 149.000000)" fill="#484848" fill-rule="nonzero">
                <path d="M221,719 C137,693 72,642 26,565 C15,546 5,523 5,515 C5,501 115,425 136,425 C141,425 145,433 145,443 C145,471 191,531 231,556 C259,573 283,579 329,579 C400,578 440,561 481,511 L510,476 L572,514 L635,552 L605,598 C535,709 364,762 221,719 Z" id="Shape"></path>
                <polygon id="Shape" points="725 365 725 5 800 5 875 5 875 365 875 725 800 725 725 725"></polygon>
                <polygon id="Shape" points="975 365 975 5 1043 5 1110 5 1278 227 1445 448 1445 226 1445 5 1525 5 1605 5 1605 365 1605 725 1537 725 1469 725 1304 508 1140 292 1135 506 1130 720 1053 723 975 726"></polygon>
                <polygon id="Shape" points="1705 365 1705 5 1973 7 2240 10 2243 82 2246 155 2053 157 1860 160 1857 223 1854 285 2035 285 2215 285 2215 365 2215 445 2035 445 1854 445 1857 508 1860 570 2058 573 2256 575 2253 648 2250 720 1978 723 1705 725"></polygon>
                <path d="M2345,364 L2345,3 L2558,7 C2752,10 2773,12 2810,32 C2896,78 2935,146 2935,247 C2935,326 2911,380 2857,426 L2815,462 L2892,580 C2934,645 2970,694 2972,689 C2974,684 3038,529 3114,345 L3252,10 L3332,7 C3391,5 3414,8 3418,17 C3421,24 3485,179 3560,360 C3636,542 3699,698 3702,708 C3707,723 3699,725 3623,725 L3539,725 L3515,660 L3491,595 L3334,595 L3178,595 L3154,658 L3129,720 L2973,723 L2817,725 L2743,608 L2668,490 L2581,487 L2495,484 L2495,605 L2495,725 L2420,725 L2345,725 L2345,364 Z M3433,447 C3432,442 3410,386 3385,322 C3361,257 3338,205 3334,205 C3329,205 3283,317 3239,438 C3233,453 3242,455 3335,455 C3391,455 3435,451 3433,447 Z M2738,330 C2761,321 2785,274 2785,240 C2785,224 2773,202 2756,184 C2727,155 2725,155 2611,155 L2495,155 L2495,243 C2495,292 2498,335 2503,339 C2512,349 2712,341 2738,330 Z" id="Shape"></path>
                <path d="M75,289 C45,270 14,250 6,246 C-16,233 35,137 91,85 C163,19 213,0 325,0 C435,0 485,18 554,81 C592,114 632,172 623,180 C621,181 594,199 562,219 L504,256 L485,233 C474,220 466,207 465,204 C465,201 446,188 423,175 C372,146 287,143 239,168 C196,190 158,238 145,285 C139,307 133,325 132,324 C131,324 105,308 75,289 Z" id="Shape"></path>
            </g>
            <path d="M4101.2,869 L3962,869 L3962,284.6 L4097.6,284.6 L4097.6,362.6 C4116.8001,328.999832 4142.19984,304.800074 4173.8,290 C4205.40016,275.199926 4237.59984,267.8 4270.4,267.8 C4306.40018,267.8 4337.59987,273.79994 4364,285.8 C4390.40013,297.80006 4412.19991,314.399894 4429.4,335.6 C4446.60009,356.800106 4459.59996,381.39986 4468.4,409.4 C4477.20004,437.40014 4481.6,467.39984 4481.6,499.4 L4481.6,869 L4342.4,869 L4342.4,523.4 C4342.4,487.39982 4333.40009,456.800126 4315.4,431.6 C4297.39991,406.399874 4266.40022,393.8 4222.4,393.8 C4182.3998,393.8 4152.2001,407.199866 4131.8,434 C4111.3999,460.800134 4101.2,493.399808 4101.2,531.8 L4101.2,869 Z M4847.6,762.2 C4869.20011,762.2 4889.7999,758.20004 4909.4,750.2 C4929.0001,742.19996 4946.39992,730.400078 4961.6,714.8 C4976.80008,699.199922 4988.79996,679.800116 4997.6,656.6 C5006.40004,633.399884 5010.8,606.600152 5010.8,576.2 C5010.8,545.799848 5006.40004,519.200114 4997.6,496.4 C4988.79996,473.599886 4976.80008,454.400078 4961.6,438.8 C4946.39992,423.199922 4929.0001,411.600038 4909.4,404 C4889.7999,396.399962 4869.20011,392.6 4847.6,392.6 C4825.99989,392.6 4805.4001,396.399962 4785.8,404 C4766.1999,411.600038 4749.00007,423.199922 4734.2,438.8 C4719.39993,454.400078 4707.40005,473.599886 4698.2,496.4 C4688.99995,519.200114 4684.4,545.799848 4684.4,576.2 C4684.4,606.600152 4688.99995,633.399884 4698.2,656.6 C4707.40005,679.800116 4719.39993,699.199922 4734.2,714.8 C4749.00007,730.400078 4766.1999,742.19996 4785.8,750.2 C4805.4001,758.20004 4825.99989,762.2 4847.6,762.2 Z M4847.6,266.6 C4891.60022,266.6 4931.99982,274.399922 4968.8,290 C5005.60018,305.600078 5037.59986,327.199862 5064.8,354.8 C5092.00014,382.400138 5113.19992,414.999812 5128.4,452.6 C5143.60008,490.200188 5151.2,531.399776 5151.2,576.2 C5151.2,621.000224 5143.60008,662.39981 5128.4,700.4 C5113.19992,738.40019 5092.00014,771.199862 5064.8,798.8 C5037.59986,826.400138 5005.60018,847.999922 4968.8,863.6 C4931.99982,879.200078 4891.60022,887 4847.6,887 C4804.39978,887 4764.20019,879.200078 4727,863.6 C4689.79981,847.999922 4657.80013,826.400138 4631,798.8 C4604.19987,771.199862 4583.20008,738.40019 4568,700.4 C4552.79992,662.39981 4545.2,621.000224 4545.2,576.2 C4545.2,531.399776 4552.79992,490.200188 4568,452.6 C4583.20008,414.999812 4604.19987,382.400138 4631,354.8 C4657.80013,327.199862 4689.79981,305.600078 4727,290 C4764.20019,274.399922 4804.39978,266.6 4847.6,266.6 Z M5319.2,575 C5319.2,631.00028 5333.39986,675.99983 5361.8,710 C5390.20014,744.00017 5428.39976,761 5476.4,761 C5498.80011,761 5519.5999,756.400046 5538.8,747.2 C5558.0001,737.999954 5574.39993,725.200082 5588,708.8 C5601.60007,692.399918 5612.19996,672.800114 5619.8,650 C5627.40004,627.199886 5631.2,601.80014 5631.2,573.8 C5631.2,517.79972 5617.00014,473.600162 5588.6,441.2 C5560.19986,408.799838 5523.20023,392.6 5477.6,392.6 C5431.99977,392.6 5394.20015,408.999836 5364.2,441.8 C5334.19985,474.600164 5319.2,518.99972 5319.2,575 Z M5765.6,762.2 C5765.6,788.600132 5766.39999,811.7999 5768,831.8 C5769.60001,851.8001 5770.8,864.199976 5771.6,869 L5638.4,869 C5636.79999,862.599968 5635.40001,851.40008 5634.2,835.4 C5632.99999,819.39992 5632.4,805.40006 5632.4,793.4 C5618.79993,818.200124 5597.20015,839.399912 5567.6,857 C5537.99985,874.600088 5502.40021,883.4 5460.8,883.4 C5418.39979,883.4 5380.00017,875.600078 5345.6,860 C5311.19983,844.399922 5281.80012,822.800138 5257.4,795.2 C5232.99988,767.599862 5214.00007,735.000188 5200.4,697.4 C5186.79993,659.799812 5180,619.00022 5180,575 C5180,533.399792 5186.79993,494.000186 5200.4,456.8 C5214.00007,419.599814 5232.99988,387.00014 5257.4,359 C5281.80012,330.99986 5311.19983,309.00008 5345.6,293 C5380.00017,276.99992 5417.5998,269 5458.4,269 C5484.00013,269 5506.3999,271.599974 5525.6,276.8 C5544.8001,282.000026 5561.39993,288.799958 5575.4,297.2 C5589.40007,305.600042 5600.79996,314.599952 5609.6,324.2 C5618.40004,333.800048 5625.19998,343.399952 5630,353 L5630,0.2 L5765.6,0.2 L5765.6,762.2 Z M6272,512.6 C6271.2,495.799916 6267.80003,479.600078 6261.8,464 C6255.79997,448.399922 6246.80006,434.60006 6234.8,422.6 C6222.79994,410.59994 6208.00009,401.000036 6190.4,393.8 C6172.79991,386.599964 6152.00012,383 6128,383 C6106.39989,383 6087.00009,386.799962 6069.8,394.4 C6052.59991,402.000038 6038.00006,411.999938 6026,424.4 C6013.99994,436.800062 6004.40004,450.799922 5997.2,466.4 C5989.99996,482.000078 5986,497.399924 5985.2,512.6 L6272,512.6 Z M6405.2,702.2 C6397.19996,727.800128 6385.60008,751.799888 6370.4,774.2 C6355.19992,796.600112 6336.40011,816.199916 6314,833 C6291.59989,849.800084 6266.00014,862.999952 6237.2,872.6 C6208.39986,882.200048 6176.40018,887 6141.2,887 C6101.1998,887 6063.20018,880.00007 6027.2,866 C5991.19982,851.99993 5959.60014,831.600134 5932.4,804.8 C5905.19986,777.999866 5883.40008,745.200194 5867,706.4 C5850.59992,667.599806 5842.4,623.400248 5842.4,573.8 C5842.4,527.399768 5850.19992,485.400188 5865.8,447.8 C5881.40008,410.199812 5902.39987,378.000134 5928.8,351.2 C5955.20013,324.399866 5985.59983,303.600074 6020,288.8 C6054.40017,273.999926 6089.99982,266.6 6126.8,266.6 C6171.60022,266.6 6211.79982,273.799928 6247.4,288.2 C6283.00018,302.600072 6312.99988,322.999868 6337.4,349.4 C6361.80012,375.800132 6380.39994,407.599814 6393.2,444.8 C6406.00006,482.000186 6412.4,523.799768 6412.4,570.2 C6412.4,581.400056 6412,591.199958 6411.2,599.6 C6410.4,608.000042 6409.6,612.999992 6408.8,614.6 L5981.6,614.6 C5982.4,637.000112 5987.19996,657.399908 5996,675.8 C6004.80004,694.200092 6016.39993,710.199932 6030.8,723.8 C6045.20007,737.400068 6061.79991,747.999962 6080.6,755.6 C6099.40009,763.200038 6119.59989,767 6141.2,767 C6183.60021,767 6216.19989,757.200098 6239,737.6 C6261.80011,717.999902 6277.99995,693.800144 6287.6,665 L6405.2,702.2 Z" id="node" fill="#FD4703"></path>
        </g>
    </g>
</svg>