<?xml version="1.0" encoding="UTF-8"?>
<svg width="896px" height="695px" viewBox="0 0 896 695" version="1.1" xmlns="http://www.w3.org/2000/svg" xmlns:xlink="http://www.w3.org/1999/xlink">
    <!-- Generator: Sketch 48.2 (47327) - http://www.bohemiancoding.com/sketch -->
    <title>movie</title>
    <desc>Created with Sketch.</desc>
    <defs>
        <linearGradient x1="50%" y1="99.9972451%" x2="50%" y2="0%" id="linearGradient-1">
            <stop stop-color="#808080" stop-opacity="0.25" offset="0%"></stop>
            <stop stop-color="#808080" stop-opacity="0.12" offset="54%"></stop>
            <stop stop-color="#808080" stop-opacity="0.1" offset="100%"></stop>
        </linearGradient>
        <linearGradient x1="46313%" y1="55416%" x2="46313%" y2="19677%" id="linearGradient-2">
            <stop stop-color="#808080" stop-opacity="0.25" offset="0%"></stop>
            <stop stop-color="#808080" stop-opacity="0.12" offset="54%"></stop>
            <stop stop-color="#808080" stop-opacity="0.1" offset="100%"></stop>
        </linearGradient>
        <linearGradient x1="61525%" y1="73875%" x2="61525%" y2="21388%" id="linearGradient-3">
            <stop stop-color="#808080" stop-opacity="0.25" offset="0%"></stop>
            <stop stop-color="#808080" stop-opacity="0.12" offset="54%"></stop>
            <stop stop-color="#808080" stop-opacity="0.1" offset="100%"></stop>
        </linearGradient>
        <linearGradient x1="13730%" y1="44259%" x2="13730%" y2="41232%" id="linearGradient-4">
            <stop stop-color="#808080" stop-opacity="0.25" offset="0%"></stop>
            <stop stop-color="#808080" stop-opacity="0.12" offset="54%"></stop>
            <stop stop-color="#808080" stop-opacity="0.1" offset="100%"></stop>
        </linearGradient>
        <linearGradient x1="18103%" y1="44259%" x2="18103%" y2="41232%" id="linearGradient-5">
            <stop stop-color="#808080" stop-opacity="0.25" offset="0%"></stop>
            <stop stop-color="#808080" stop-opacity="0.12" offset="54%"></stop>
            <stop stop-color="#808080" stop-opacity="0.1" offset="100%"></stop>
        </linearGradient>
        <linearGradient x1="5657%" y1="44259%" x2="5657%" y2="41232%" id="linearGradient-6">
            <stop stop-color="#808080" stop-opacity="0.25" offset="0%"></stop>
            <stop stop-color="#808080" stop-opacity="0.12" offset="54%"></stop>
            <stop stop-color="#808080" stop-opacity="0.1" offset="100%"></stop>
        </linearGradient>
        <linearGradient x1="11376%" y1="40447%" x2="11376%" y2="37419%" id="linearGradient-7">
            <stop stop-color="#808080" stop-opacity="0.25" offset="0%"></stop>
            <stop stop-color="#808080" stop-opacity="0.12" offset="54%"></stop>
            <stop stop-color="#808080" stop-opacity="0.1" offset="100%"></stop>
        </linearGradient>
        <linearGradient x1="20290%" y1="41064%" x2="20290%" y2="38036%" id="linearGradient-8">
            <stop stop-color="#808080" stop-opacity="0.25" offset="0%"></stop>
            <stop stop-color="#808080" stop-opacity="0.12" offset="54%"></stop>
            <stop stop-color="#808080" stop-opacity="0.1" offset="100%"></stop>
        </linearGradient>
        <linearGradient x1="18103%" y1="39718%" x2="18103%" y2="36691%" id="linearGradient-9">
            <stop stop-color="#808080" stop-opacity="0.25" offset="0%"></stop>
            <stop stop-color="#808080" stop-opacity="0.12" offset="54%"></stop>
            <stop stop-color="#808080" stop-opacity="0.1" offset="100%"></stop>
        </linearGradient>
        <linearGradient x1="19169%" y1="42914%" x2="19169%" y2="39886%" id="linearGradient-10">
            <stop stop-color="#808080" stop-opacity="0.25" offset="0%"></stop>
            <stop stop-color="#808080" stop-opacity="0.12" offset="54%"></stop>
            <stop stop-color="#808080" stop-opacity="0.1" offset="100%"></stop>
        </linearGradient>
        <linearGradient x1="15244%" y1="40447%" x2="15244%" y2="37419%" id="linearGradient-11">
            <stop stop-color="#808080" stop-opacity="0.25" offset="0%"></stop>
            <stop stop-color="#808080" stop-opacity="0.12" offset="54%"></stop>
            <stop stop-color="#808080" stop-opacity="0.1" offset="100%"></stop>
        </linearGradient>
        <linearGradient x1="15076%" y1="36186%" x2="15076%" y2="33159%" id="linearGradient-12">
            <stop stop-color="#808080" stop-opacity="0.25" offset="0%"></stop>
            <stop stop-color="#808080" stop-opacity="0.12" offset="54%"></stop>
            <stop stop-color="#808080" stop-opacity="0.1" offset="100%"></stop>
        </linearGradient>
        <linearGradient x1="22532%" y1="38373%" x2="22532%" y2="35345%" id="linearGradient-13">
            <stop stop-color="#808080" stop-opacity="0.25" offset="0%"></stop>
            <stop stop-color="#808080" stop-opacity="0.12" offset="54%"></stop>
            <stop stop-color="#808080" stop-opacity="0.1" offset="100%"></stop>
        </linearGradient>
        <linearGradient x1="21804%" y1="41232%" x2="21804%" y2="38204%" id="linearGradient-14">
            <stop stop-color="#808080" stop-opacity="0.25" offset="0%"></stop>
            <stop stop-color="#808080" stop-opacity="0.12" offset="54%"></stop>
            <stop stop-color="#808080" stop-opacity="0.1" offset="100%"></stop>
        </linearGradient>
        <linearGradient x1="25167%" y1="40671%" x2="25167%" y2="37644%" id="linearGradient-15">
            <stop stop-color="#808080" stop-opacity="0.25" offset="0%"></stop>
            <stop stop-color="#808080" stop-opacity="0.12" offset="54%"></stop>
            <stop stop-color="#808080" stop-opacity="0.1" offset="100%"></stop>
        </linearGradient>
        <linearGradient x1="23654%" y1="42073%" x2="23654%" y2="39045%" id="linearGradient-16">
            <stop stop-color="#808080" stop-opacity="0.25" offset="0%"></stop>
            <stop stop-color="#808080" stop-opacity="0.12" offset="54%"></stop>
            <stop stop-color="#808080" stop-opacity="0.1" offset="100%"></stop>
        </linearGradient>
        <linearGradient x1="13562%" y1="38373%" x2="13562%" y2="35345%" id="linearGradient-17">
            <stop stop-color="#808080" stop-opacity="0.25" offset="0%"></stop>
            <stop stop-color="#808080" stop-opacity="0.12" offset="54%"></stop>
            <stop stop-color="#808080" stop-opacity="0.1" offset="100%"></stop>
        </linearGradient>
        <linearGradient x1="11376%" y1="44091%" x2="11376%" y2="41064%" id="linearGradient-18">
            <stop stop-color="#808080" stop-opacity="0.25" offset="0%"></stop>
            <stop stop-color="#808080" stop-opacity="0.12" offset="54%"></stop>
            <stop stop-color="#808080" stop-opacity="0.1" offset="100%"></stop>
        </linearGradient>
        <linearGradient x1="7956%" y1="44259%" x2="7956%" y2="41232%" id="linearGradient-19">
            <stop stop-color="#808080" stop-opacity="0.25" offset="0%"></stop>
            <stop stop-color="#808080" stop-opacity="0.12" offset="54%"></stop>
            <stop stop-color="#808080" stop-opacity="0.1" offset="100%"></stop>
        </linearGradient>
        <linearGradient x1="9694%" y1="43306%" x2="9694%" y2="40279%" id="linearGradient-20">
            <stop stop-color="#808080" stop-opacity="0.25" offset="0%"></stop>
            <stop stop-color="#808080" stop-opacity="0.12" offset="54%"></stop>
            <stop stop-color="#808080" stop-opacity="0.1" offset="100%"></stop>
        </linearGradient>
        <linearGradient x1="17094%" y1="41624%" x2="17094%" y2="38597%" id="linearGradient-21">
            <stop stop-color="#808080" stop-opacity="0.25" offset="0%"></stop>
            <stop stop-color="#808080" stop-opacity="0.12" offset="54%"></stop>
            <stop stop-color="#808080" stop-opacity="0.1" offset="100%"></stop>
        </linearGradient>
        <linearGradient x1="17094%" y1="38036%" x2="17094%" y2="35009%" id="linearGradient-22">
            <stop stop-color="#808080" stop-opacity="0.25" offset="0%"></stop>
            <stop stop-color="#808080" stop-opacity="0.12" offset="54%"></stop>
            <stop stop-color="#808080" stop-opacity="0.1" offset="100%"></stop>
        </linearGradient>
        <linearGradient x1="18776%" y1="40895%" x2="18776%" y2="37868%" id="linearGradient-23">
            <stop stop-color="#808080" stop-opacity="0.25" offset="0%"></stop>
            <stop stop-color="#808080" stop-opacity="0.12" offset="54%"></stop>
            <stop stop-color="#808080" stop-opacity="0.1" offset="100%"></stop>
        </linearGradient>
        <linearGradient x1="17262%" y1="35177%" x2="17262%" y2="32149%" id="linearGradient-24">
            <stop stop-color="#808080" stop-opacity="0.25" offset="0%"></stop>
            <stop stop-color="#808080" stop-opacity="0.12" offset="54%"></stop>
            <stop stop-color="#808080" stop-opacity="0.1" offset="100%"></stop>
        </linearGradient>
        <linearGradient x1="17599%" y1="36691%" x2="17599%" y2="33663%" id="linearGradient-25">
            <stop stop-color="#808080" stop-opacity="0.25" offset="0%"></stop>
            <stop stop-color="#808080" stop-opacity="0.12" offset="54%"></stop>
            <stop stop-color="#808080" stop-opacity="0.1" offset="100%"></stop>
        </linearGradient>
        <linearGradient x1="19393%" y1="37700%" x2="19393%" y2="34672%" id="linearGradient-26">
            <stop stop-color="#808080" stop-opacity="0.25" offset="0%"></stop>
            <stop stop-color="#808080" stop-opacity="0.12" offset="54%"></stop>
            <stop stop-color="#808080" stop-opacity="0.1" offset="100%"></stop>
        </linearGradient>
        <linearGradient x1="21243%" y1="37419%" x2="21243%" y2="34392%" id="linearGradient-27">
            <stop stop-color="#808080" stop-opacity="0.25" offset="0%"></stop>
            <stop stop-color="#808080" stop-opacity="0.12" offset="54%"></stop>
            <stop stop-color="#808080" stop-opacity="0.1" offset="100%"></stop>
        </linearGradient>
        <linearGradient x1="20738%" y1="38933%" x2="20738%" y2="35906%" id="linearGradient-28">
            <stop stop-color="#808080" stop-opacity="0.25" offset="0%"></stop>
            <stop stop-color="#808080" stop-opacity="0.12" offset="54%"></stop>
            <stop stop-color="#808080" stop-opacity="0.1" offset="100%"></stop>
        </linearGradient>
        <linearGradient x1="14403%" y1="36971%" x2="14403%" y2="33944%" id="linearGradient-29">
            <stop stop-color="#808080" stop-opacity="0.25" offset="0%"></stop>
            <stop stop-color="#808080" stop-opacity="0.12" offset="54%"></stop>
            <stop stop-color="#808080" stop-opacity="0.1" offset="100%"></stop>
        </linearGradient>
        <linearGradient x1="10030%" y1="41568%" x2="10030%" y2="38541%" id="linearGradient-30">
            <stop stop-color="#808080" stop-opacity="0.25" offset="0%"></stop>
            <stop stop-color="#808080" stop-opacity="0.12" offset="54%"></stop>
            <stop stop-color="#808080" stop-opacity="0.1" offset="100%"></stop>
        </linearGradient>
        <linearGradient x1="12665%" y1="39045%" x2="12665%" y2="36018%" id="linearGradient-31">
            <stop stop-color="#808080" stop-opacity="0.25" offset="0%"></stop>
            <stop stop-color="#808080" stop-opacity="0.12" offset="54%"></stop>
            <stop stop-color="#808080" stop-opacity="0.1" offset="100%"></stop>
        </linearGradient>
        <linearGradient x1="7283%" y1="43362%" x2="7283%" y2="40335%" id="linearGradient-32">
            <stop stop-color="#808080" stop-opacity="0.25" offset="0%"></stop>
            <stop stop-color="#808080" stop-opacity="0.12" offset="54%"></stop>
            <stop stop-color="#808080" stop-opacity="0.1" offset="100%"></stop>
        </linearGradient>
        <linearGradient x1="21804%" y1="42185%" x2="21804%" y2="39157%" id="linearGradient-33">
            <stop stop-color="#808080" stop-opacity="0.25" offset="0%"></stop>
            <stop stop-color="#808080" stop-opacity="0.12" offset="54%"></stop>
            <stop stop-color="#808080" stop-opacity="0.1" offset="100%"></stop>
        </linearGradient>
        <linearGradient x1="15020%" y1="33663%" x2="15020%" y2="30636%" id="linearGradient-34">
            <stop stop-color="#808080" stop-opacity="0.25" offset="0%"></stop>
            <stop stop-color="#808080" stop-opacity="0.12" offset="54%"></stop>
            <stop stop-color="#808080" stop-opacity="0.1" offset="100%"></stop>
        </linearGradient>
        <linearGradient x1="12273%" y1="37139%" x2="12273%" y2="34112%" id="linearGradient-35">
            <stop stop-color="#808080" stop-opacity="0.25" offset="0%"></stop>
            <stop stop-color="#808080" stop-opacity="0.12" offset="54%"></stop>
            <stop stop-color="#808080" stop-opacity="0.1" offset="100%"></stop>
        </linearGradient>
        <linearGradient x1="10086%" y1="39718%" x2="10086%" y2="36691%" id="linearGradient-36">
            <stop stop-color="#808080" stop-opacity="0.25" offset="0%"></stop>
            <stop stop-color="#808080" stop-opacity="0.12" offset="54%"></stop>
            <stop stop-color="#808080" stop-opacity="0.1" offset="100%"></stop>
        </linearGradient>
        <linearGradient x1="11656%" y1="42577%" x2="11656%" y2="39550%" id="linearGradient-37">
            <stop stop-color="#808080" stop-opacity="0.25" offset="0%"></stop>
            <stop stop-color="#808080" stop-opacity="0.12" offset="54%"></stop>
            <stop stop-color="#808080" stop-opacity="0.1" offset="100%"></stop>
        </linearGradient>
        <linearGradient x1="13786%" y1="40671%" x2="13786%" y2="37644%" id="linearGradient-38">
            <stop stop-color="#808080" stop-opacity="0.25" offset="0%"></stop>
            <stop stop-color="#808080" stop-opacity="0.12" offset="54%"></stop>
            <stop stop-color="#808080" stop-opacity="0.1" offset="100%"></stop>
        </linearGradient>
        <linearGradient x1="14908%" y1="42577%" x2="14908%" y2="39550%" id="linearGradient-39">
            <stop stop-color="#808080" stop-opacity="0.25" offset="0%"></stop>
            <stop stop-color="#808080" stop-opacity="0.12" offset="54%"></stop>
            <stop stop-color="#808080" stop-opacity="0.1" offset="100%"></stop>
        </linearGradient>
        <linearGradient x1="26513%" y1="44259%" x2="26513%" y2="41232%" id="linearGradient-40">
            <stop stop-color="#808080" stop-opacity="0.25" offset="0%"></stop>
            <stop stop-color="#808080" stop-opacity="0.12" offset="54%"></stop>
            <stop stop-color="#808080" stop-opacity="0.1" offset="100%"></stop>
        </linearGradient>
        <linearGradient x1="24382%" y1="43923%" x2="24382%" y2="40895%" id="linearGradient-41">
            <stop stop-color="#808080" stop-opacity="0.25" offset="0%"></stop>
            <stop stop-color="#808080" stop-opacity="0.12" offset="54%"></stop>
            <stop stop-color="#808080" stop-opacity="0.1" offset="100%"></stop>
        </linearGradient>
        <linearGradient x1="20290%" y1="44091%" x2="20290%" y2="41064%" id="linearGradient-42">
            <stop stop-color="#808080" stop-opacity="0.25" offset="0%"></stop>
            <stop stop-color="#808080" stop-opacity="0.12" offset="54%"></stop>
            <stop stop-color="#808080" stop-opacity="0.1" offset="100%"></stop>
        </linearGradient>
        <linearGradient x1="15749%" y1="44259%" x2="15749%" y2="41232%" id="linearGradient-43">
            <stop stop-color="#808080" stop-opacity="0.25" offset="0%"></stop>
            <stop stop-color="#808080" stop-opacity="0.12" offset="54%"></stop>
            <stop stop-color="#808080" stop-opacity="0.1" offset="100%"></stop>
        </linearGradient>
        <linearGradient x1="15300%" y1="38204%" x2="15300%" y2="35177%" id="linearGradient-44">
            <stop stop-color="#808080" stop-opacity="0.25" offset="0%"></stop>
            <stop stop-color="#808080" stop-opacity="0.12" offset="54%"></stop>
            <stop stop-color="#808080" stop-opacity="0.1" offset="100%"></stop>
        </linearGradient>
        <linearGradient x1="16814%" y1="40111%" x2="16814%" y2="37083%" id="linearGradient-45">
            <stop stop-color="#808080" stop-opacity="0.25" offset="0%"></stop>
            <stop stop-color="#808080" stop-opacity="0.12" offset="54%"></stop>
            <stop stop-color="#808080" stop-opacity="0.1" offset="100%"></stop>
        </linearGradient>
        <linearGradient x1="14291%" y1="35457%" x2="14291%" y2="32430%" id="linearGradient-46">
            <stop stop-color="#808080" stop-opacity="0.25" offset="0%"></stop>
            <stop stop-color="#808080" stop-opacity="0.12" offset="54%"></stop>
            <stop stop-color="#808080" stop-opacity="0.1" offset="100%"></stop>
        </linearGradient>
        <linearGradient x1="15973%" y1="35625%" x2="15973%" y2="32598%" id="linearGradient-47">
            <stop stop-color="#808080" stop-opacity="0.25" offset="0%"></stop>
            <stop stop-color="#808080" stop-opacity="0.12" offset="54%"></stop>
            <stop stop-color="#808080" stop-opacity="0.1" offset="100%"></stop>
        </linearGradient>
        <linearGradient x1="18776%" y1="36410%" x2="18776%" y2="33383%" id="linearGradient-48">
            <stop stop-color="#808080" stop-opacity="0.25" offset="0%"></stop>
            <stop stop-color="#808080" stop-opacity="0.12" offset="54%"></stop>
            <stop stop-color="#808080" stop-opacity="0.1" offset="100%"></stop>
        </linearGradient>
        <linearGradient x1="11207%" y1="38877%" x2="11207%" y2="35850%" id="linearGradient-49">
            <stop stop-color="#808080" stop-opacity="0.25" offset="0%"></stop>
            <stop stop-color="#808080" stop-opacity="0.12" offset="54%"></stop>
            <stop stop-color="#808080" stop-opacity="0.1" offset="100%"></stop>
        </linearGradient>
        <linearGradient x1="12273%" y1="40839%" x2="12273%" y2="37812%" id="linearGradient-50">
            <stop stop-color="#808080" stop-opacity="0.25" offset="0%"></stop>
            <stop stop-color="#808080" stop-opacity="0.12" offset="54%"></stop>
            <stop stop-color="#808080" stop-opacity="0.1" offset="100%"></stop>
        </linearGradient>
        <linearGradient x1="13002%" y1="43138%" x2="13002%" y2="40111%" id="linearGradient-51">
            <stop stop-color="#808080" stop-opacity="0.25" offset="0%"></stop>
            <stop stop-color="#808080" stop-opacity="0.12" offset="54%"></stop>
            <stop stop-color="#808080" stop-opacity="0.1" offset="100%"></stop>
        </linearGradient>
        <linearGradient x1="17262%" y1="42409%" x2="17262%" y2="39382%" id="linearGradient-52">
            <stop stop-color="#808080" stop-opacity="0.25" offset="0%"></stop>
            <stop stop-color="#808080" stop-opacity="0.12" offset="54%"></stop>
            <stop stop-color="#808080" stop-opacity="0.1" offset="100%"></stop>
        </linearGradient>
        <linearGradient x1="21635%" y1="41064%" x2="21635%" y2="38036%" id="linearGradient-53">
            <stop stop-color="#808080" stop-opacity="0.25" offset="0%"></stop>
            <stop stop-color="#808080" stop-opacity="0.12" offset="54%"></stop>
            <stop stop-color="#808080" stop-opacity="0.1" offset="100%"></stop>
        </linearGradient>
        <linearGradient x1="23037%" y1="39886%" x2="23037%" y2="36859%" id="linearGradient-54">
            <stop stop-color="#808080" stop-opacity="0.25" offset="0%"></stop>
            <stop stop-color="#808080" stop-opacity="0.12" offset="54%"></stop>
            <stop stop-color="#808080" stop-opacity="0.1" offset="100%"></stop>
        </linearGradient>
        <linearGradient x1="25223%" y1="42577%" x2="25223%" y2="39550%" id="linearGradient-55">
            <stop stop-color="#808080" stop-opacity="0.25" offset="0%"></stop>
            <stop stop-color="#808080" stop-opacity="0.12" offset="54%"></stop>
            <stop stop-color="#808080" stop-opacity="0.1" offset="100%"></stop>
        </linearGradient>
        <linearGradient x1="18159%" y1="44427%" x2="18159%" y2="41400%" id="linearGradient-56">
            <stop stop-color="#808080" stop-opacity="0.25" offset="0%"></stop>
            <stop stop-color="#808080" stop-opacity="0.12" offset="54%"></stop>
            <stop stop-color="#808080" stop-opacity="0.1" offset="100%"></stop>
        </linearGradient>
        <linearGradient x1="10367%" y1="43755%" x2="10367%" y2="40727%" id="linearGradient-57">
            <stop stop-color="#808080" stop-opacity="0.25" offset="0%"></stop>
            <stop stop-color="#808080" stop-opacity="0.12" offset="54%"></stop>
            <stop stop-color="#808080" stop-opacity="0.1" offset="100%"></stop>
        </linearGradient>
        <linearGradient x1="8180%" y1="41792%" x2="8180%" y2="38765%" id="linearGradient-58">
            <stop stop-color="#808080" stop-opacity="0.25" offset="0%"></stop>
            <stop stop-color="#808080" stop-opacity="0.12" offset="54%"></stop>
            <stop stop-color="#808080" stop-opacity="0.1" offset="100%"></stop>
        </linearGradient>
        <linearGradient x1="11039%" y1="40839%" x2="11039%" y2="37812%" id="linearGradient-59">
            <stop stop-color="#808080" stop-opacity="0.25" offset="0%"></stop>
            <stop stop-color="#808080" stop-opacity="0.12" offset="54%"></stop>
            <stop stop-color="#808080" stop-opacity="0.1" offset="100%"></stop>
        </linearGradient>
        <linearGradient x1="9469%" y1="38541%" x2="9469%" y2="35513%" id="linearGradient-60">
            <stop stop-color="#808080" stop-opacity="0.25" offset="0%"></stop>
            <stop stop-color="#808080" stop-opacity="0.12" offset="54%"></stop>
            <stop stop-color="#808080" stop-opacity="0.1" offset="100%"></stop>
        </linearGradient>
        <linearGradient x1="10815%" y1="36410%" x2="10815%" y2="33383%" id="linearGradient-61">
            <stop stop-color="#808080" stop-opacity="0.25" offset="0%"></stop>
            <stop stop-color="#808080" stop-opacity="0.12" offset="54%"></stop>
            <stop stop-color="#808080" stop-opacity="0.1" offset="100%"></stop>
        </linearGradient>
        <linearGradient x1="22532%" y1="44259%" x2="22532%" y2="41232%" id="linearGradient-62">
            <stop stop-color="#808080" stop-opacity="0.25" offset="0%"></stop>
            <stop stop-color="#808080" stop-opacity="0.12" offset="54%"></stop>
            <stop stop-color="#808080" stop-opacity="0.1" offset="100%"></stop>
        </linearGradient>
        <linearGradient x1="16281%" y1="67750%" x2="16281%" y2="42746%" id="linearGradient-63">
            <stop stop-color="#808080" stop-opacity="0.25" offset="0%"></stop>
            <stop stop-color="#808080" stop-opacity="0.12" offset="54%"></stop>
            <stop stop-color="#808080" stop-opacity="0.1" offset="100%"></stop>
        </linearGradient>
        <linearGradient x1="8685%" y1="40111%" x2="8685%" y2="37083%" id="linearGradient-64">
            <stop stop-color="#808080" stop-opacity="0.25" offset="0%"></stop>
            <stop stop-color="#808080" stop-opacity="0.12" offset="54%"></stop>
            <stop stop-color="#808080" stop-opacity="0.1" offset="100%"></stop>
        </linearGradient>
        <linearGradient x1="12497%" y1="35850%" x2="12497%" y2="32822%" id="linearGradient-65">
            <stop stop-color="#808080" stop-opacity="0.25" offset="0%"></stop>
            <stop stop-color="#808080" stop-opacity="0.12" offset="54%"></stop>
            <stop stop-color="#808080" stop-opacity="0.1" offset="100%"></stop>
        </linearGradient>
        <linearGradient x1="7171%" y1="42409%" x2="7171%" y2="39382%" id="linearGradient-66">
            <stop stop-color="#808080" stop-opacity="0.25" offset="0%"></stop>
            <stop stop-color="#808080" stop-opacity="0.12" offset="54%"></stop>
            <stop stop-color="#808080" stop-opacity="0.1" offset="100%"></stop>
        </linearGradient>
        <linearGradient x1="5357%" y1="32126%" x2="5357%" y2="29098%" id="linearGradient-67">
            <stop stop-color="#808080" stop-opacity="0.25" offset="0%"></stop>
            <stop stop-color="#808080" stop-opacity="0.12" offset="54%"></stop>
            <stop stop-color="#808080" stop-opacity="0.1" offset="100%"></stop>
        </linearGradient>
        <linearGradient x1="97926%" y1="51007%" x2="97926%" y2="35198%" id="linearGradient-68">
            <stop stop-color="#808080" stop-opacity="0.25" offset="0%"></stop>
            <stop stop-color="#808080" stop-opacity="0.12" offset="54%"></stop>
            <stop stop-color="#808080" stop-opacity="0.1" offset="100%"></stop>
        </linearGradient>
        <linearGradient x1="78761%" y1="69430%" x2="78761%" y2="38400%" id="linearGradient-69">
            <stop stop-color="#808080" stop-opacity="0.25" offset="0%"></stop>
            <stop stop-color="#808080" stop-opacity="0.12" offset="54%"></stop>
            <stop stop-color="#808080" stop-opacity="0.1" offset="100%"></stop>
        </linearGradient>
        <linearGradient x1="50%" y1="100%" x2="50%" y2="0%" id="linearGradient-70">
            <stop stop-color="#FFFFFF" stop-opacity="0.12" offset="0%"></stop>
            <stop stop-color="#FFFFFF" stop-opacity="0.09" offset="55%"></stop>
            <stop stop-color="#FFFFFF" stop-opacity="0.02" offset="100%"></stop>
        </linearGradient>
        <linearGradient x1="11726%" y1="23451%" x2="11726%" y2="20424%" id="linearGradient-71">
            <stop stop-color="#808080" stop-opacity="0.25" offset="0%"></stop>
            <stop stop-color="#808080" stop-opacity="0.12" offset="54%"></stop>
            <stop stop-color="#808080" stop-opacity="0.1" offset="100%"></stop>
        </linearGradient>
        <linearGradient x1="17216%" y1="16863%" x2="17216%" y2="13835%" id="linearGradient-72">
            <stop stop-color="#808080" stop-opacity="0.25" offset="0%"></stop>
            <stop stop-color="#808080" stop-opacity="0.12" offset="54%"></stop>
            <stop stop-color="#808080" stop-opacity="0.1" offset="100%"></stop>
        </linearGradient>
        <linearGradient x1="27867%" y1="31028%" x2="27867%" y2="28000%" id="linearGradient-73">
            <stop stop-color="#808080" stop-opacity="0.25" offset="0%"></stop>
            <stop stop-color="#808080" stop-opacity="0.12" offset="54%"></stop>
            <stop stop-color="#808080" stop-opacity="0.1" offset="100%"></stop>
        </linearGradient>
        <linearGradient x1="36322%" y1="41789%" x2="36322%" y2="38761%" id="linearGradient-74">
            <stop stop-color="#808080" stop-opacity="0.25" offset="0%"></stop>
            <stop stop-color="#808080" stop-opacity="0.12" offset="54%"></stop>
            <stop stop-color="#808080" stop-opacity="0.1" offset="100%"></stop>
        </linearGradient>
        <linearGradient x1="4918%" y1="68032%" x2="4918%" y2="65005%" id="linearGradient-75">
            <stop stop-color="#808080" stop-opacity="0.25" offset="0%"></stop>
            <stop stop-color="#808080" stop-opacity="0.12" offset="54%"></stop>
            <stop stop-color="#808080" stop-opacity="0.1" offset="100%"></stop>
        </linearGradient>
        <linearGradient x1="2831%" y1="65287%" x2="2831%" y2="62260%" id="linearGradient-76">
            <stop stop-color="#808080" stop-opacity="0.25" offset="0%"></stop>
            <stop stop-color="#808080" stop-opacity="0.12" offset="54%"></stop>
            <stop stop-color="#808080" stop-opacity="0.1" offset="100%"></stop>
        </linearGradient>
        <linearGradient x1="1514%" y1="50463%" x2="1514%" y2="47436%" id="linearGradient-77">
            <stop stop-color="#808080" stop-opacity="0.25" offset="0%"></stop>
            <stop stop-color="#808080" stop-opacity="0.12" offset="54%"></stop>
            <stop stop-color="#808080" stop-opacity="0.1" offset="100%"></stop>
        </linearGradient>
        <linearGradient x1="30063%" y1="66824%" x2="30063%" y2="63797%" id="linearGradient-78">
            <stop stop-color="#808080" stop-opacity="0.25" offset="0%"></stop>
            <stop stop-color="#808080" stop-opacity="0.12" offset="54%"></stop>
            <stop stop-color="#808080" stop-opacity="0.1" offset="100%"></stop>
        </linearGradient>
        <linearGradient x1="32808%" y1="65068%" x2="32808%" y2="62040%" id="linearGradient-79">
            <stop stop-color="#808080" stop-opacity="0.25" offset="0%"></stop>
            <stop stop-color="#808080" stop-opacity="0.12" offset="54%"></stop>
            <stop stop-color="#808080" stop-opacity="0.1" offset="100%"></stop>
        </linearGradient>
        <linearGradient x1="33138%" y1="67154%" x2="33138%" y2="64126%" id="linearGradient-80">
            <stop stop-color="#808080" stop-opacity="0.25" offset="0%"></stop>
            <stop stop-color="#808080" stop-opacity="0.12" offset="54%"></stop>
            <stop stop-color="#808080" stop-opacity="0.1" offset="100%"></stop>
        </linearGradient>
        <linearGradient x1="27428%" y1="67154%" x2="27428%" y2="64126%" id="linearGradient-81">
            <stop stop-color="#808080" stop-opacity="0.25" offset="0%"></stop>
            <stop stop-color="#808080" stop-opacity="0.12" offset="54%"></stop>
            <stop stop-color="#808080" stop-opacity="0.1" offset="100%"></stop>
        </linearGradient>
        <linearGradient x1="75961%" y1="14275%" x2="75961%" y2="0%" id="linearGradient-82">
            <stop stop-color="#808080" stop-opacity="0.25" offset="0%"></stop>
            <stop stop-color="#808080" stop-opacity="0.12" offset="54%"></stop>
            <stop stop-color="#808080" stop-opacity="0.1" offset="100%"></stop>
        </linearGradient>
        <linearGradient x1="77044%" y1="10432%" x2="77044%" y2="3843%" id="linearGradient-83">
            <stop stop-color="#FFFFFF" stop-opacity="0.12" offset="0%"></stop>
            <stop stop-color="#FFFFFF" stop-opacity="0.09" offset="55%"></stop>
            <stop stop-color="#FFFFFF" stop-opacity="0.02" offset="100%"></stop>
        </linearGradient>
    </defs>
    <g id="Page-1" stroke="none" stroke-width="1" fill="none" fill-rule="evenodd">
        <g id="movie">
            <path d="M426.12,534.48 C426.12,534.48 503.04,697.75 725.56,646.34 C725.56,646.34 702.01,625.93 725.56,598.46 L539.15,517.22 L426.12,534.48 Z" id="Shape" fill="url(#linearGradient-1)" fill-rule="nonzero"></path>
            <path d="M433.22,536.97 C433.22,536.97 506.49,692.49 718.46,643.51 C718.46,643.51 696.03,624.07 718.46,597.9 L540.88,520.52 L433.22,536.97 Z" id="Shape" fill="#FF5A5F" fill-rule="nonzero"></path>
            <circle id="Oval" fill="url(#linearGradient-2)" fill-rule="nonzero" cx="463.13" cy="375.47" r="178.7"></circle>
            <circle id="Oval" fill="#FF5A5F" fill-rule="nonzero" cx="463.13" cy="375.47" r="171.23"></circle>
            <path d="M463.13,113.03 C318.19,113.03 200.69,230.53 200.69,375.47 C200.69,520.41 318.19,637.91 463.13,637.91 C608.07,637.91 725.57,520.41 725.57,375.47 C725.57,230.53 608.07,113.03 463.13,113.03 Z M558.7,250.08 C587.78106,233.298157 624.960193,243.266055 641.745776,272.344956 C658.531359,301.423858 648.568243,338.604273 619.4915,355.393595 C590.414757,372.182917 553.233062,362.224583 536.44,333.15 C528.376094,319.184004 526.191088,302.586434 530.365751,287.009278 C534.540414,271.432121 544.732705,258.151655 558.7,250.09 L558.7,250.08 Z M367.56,500.85 C346.263913,513.148073 319.656516,511.406327 300.145382,496.436974 C280.634247,481.46762 272.061982,456.218788 278.426008,432.464524 C284.790034,408.710259 304.836993,391.128829 329.218579,387.918814 C353.600165,384.708798 377.514562,396.502391 389.81,417.8 C406.597227,446.878086 396.636008,484.059175 367.56,500.85 Z M389.81,333.15 C377.514562,354.447609 353.600165,366.241202 329.218579,363.031186 C304.836993,359.821171 284.790034,342.239741 278.426008,318.485476 C272.061982,294.731212 280.634247,269.48238 300.145382,254.513026 C319.656516,239.543673 346.263913,237.801927 367.56,250.1 C396.636008,266.890825 406.597227,304.071914 389.81,333.15 Z M463.12,581.73 C429.541087,581.73 402.32,554.508913 402.32,520.93 C402.32,487.351087 429.541087,460.13 463.12,460.13 C496.698913,460.13 523.92,487.351087 523.92,520.93 C523.914479,554.501103 496.701103,581.714479 463.13,581.72 L463.12,581.73 Z M424.65,372.39 C424.65,351.138083 441.878083,333.91 463.13,333.91 C484.381917,333.91 501.61,351.138083 501.61,372.39 C501.61,393.641917 484.381917,410.87 463.13,410.87 C441.878083,410.87 424.65,393.641917 424.65,372.39 Z M463.13,290.81 C438.538696,290.81 416.368809,275.996556 406.958124,253.277153 C397.54744,230.55775 402.74923,204.406586 420.137908,187.017908 C437.526586,169.62923 463.67775,164.42744 486.397153,173.838124 C509.116556,183.248809 523.93,205.418696 523.93,230.01 C523.93,263.588913 496.708913,290.81 463.13,290.81 Z M641.75,478.59 C629.454562,499.887609 605.540165,511.681202 581.158579,508.471186 C556.776993,505.261171 536.730034,487.679741 530.366008,463.925476 C524.001982,440.171212 532.574247,414.92238 552.085382,399.953026 C571.596516,384.983673 598.203913,383.241927 619.5,395.54 C648.576008,412.330825 658.537227,449.511914 641.75,478.59 Z" id="Shape" fill="url(#linearGradient-3)" fill-rule="nonzero"></path>
            <path d="M463.13,120.51 C322.32,120.51 208.13,234.66 208.13,375.51 C208.13,516.36 322.28,630.51 463.13,630.51 C603.98,630.51 718.13,516.36 718.13,375.51 C718.13,234.66 603.94,120.51 463.13,120.51 Z M555.98,253.66 C576.670563,241.713583 602.520168,243.40729 621.475034,257.951337 C640.4299,272.495384 648.757133,297.025527 642.573709,320.103255 C636.390285,343.180983 616.913942,360.261463 593.226582,363.379993 C569.539222,366.498524 546.305737,355.040955 534.36,334.35 C518.047168,306.100416 527.721963,269.97551 555.97,253.66 L555.98,253.66 Z M370.28,497.28 C349.592364,509.232816 323.741467,507.546235 304.782259,493.006754 C285.823051,478.467272 277.4895,453.938404 283.667759,430.858604 C289.846017,407.778803 309.319294,390.693577 333.006689,387.570215 C356.694084,384.446852 379.930426,395.900491 391.88,416.59 C408.19451,444.836965 398.524408,480.961063 370.28,497.28 Z M391.88,334.34 C379.934263,355.030955 356.700778,366.488524 333.013418,363.369993 C309.326058,360.251463 289.849715,343.170983 283.666291,320.093255 C277.482867,297.015527 285.8101,272.485384 304.764966,257.941337 C323.719832,243.39729 349.569437,241.703583 370.26,253.65 C398.511666,269.962083 408.191155,306.087798 391.88,334.34 Z M463.11,575.84 C430.48654,575.84 404.04,549.39346 404.04,516.77 C404.04,484.14654 430.48654,457.7 463.11,457.7 C495.73346,457.7 522.18,484.14654 522.18,516.77 C522.185524,549.389556 495.749555,575.838956 463.13,575.85 L463.11,575.84 Z M425.74,372.48 C425.74,351.835596 442.475596,335.1 463.12,335.1 C483.764404,335.1 500.5,351.835596 500.5,372.48 C500.5,393.124404 483.764404,409.86 463.12,409.86 C442.475596,409.86 425.74,393.124404 425.74,372.48 Z M463.12,293.23 C430.497842,293.23 404.051842,266.785491 404.050001,234.163333 C404.04816,201.541174 430.491176,175.093682 463.113334,175.09 C495.735493,175.086319 522.184477,201.527842 522.19,234.15 C522.19,266.769555 495.749555,293.214478 463.13,293.22 L463.12,293.23 Z M636.66,475.66 C624.714263,496.350955 601.480778,507.808524 577.793418,504.689993 C554.106058,501.571463 534.629715,484.490983 528.446291,461.413255 C522.262867,438.335527 530.5901,413.805384 549.544966,399.261337 C568.499832,384.71729 594.349437,383.023583 615.04,394.97 C643.291666,411.282083 652.971155,447.407798 636.66,475.66 Z" id="Shape" fill="#E6E6E6" fill-rule="nonzero"></path>
            <path d="M225.37,390.42 C225.37,249.61 339.52,135.42 480.37,135.42 C533.515251,135.338092 585.345283,151.94203 628.55,182.89 C582.465713,143.486729 523.803092,121.873998 463.17,121.96 C322.36,121.96 208.17,236.11 208.17,376.96 C208.111307,459.322419 247.894124,536.626564 314.95,584.45 C258.052349,536.061164 225.296213,465.111477 225.37,390.42 Z" id="Shape" fill="#FFFFFF" fill-rule="nonzero" opacity="0.2"></path>
            <circle id="Oval" stroke="#FFFFFF" stroke-width="13" opacity="0.2" cx="463.13" cy="372.47" r="42.99"></circle>
            <circle id="Oval" fill="url(#linearGradient-4)" fill-rule="nonzero" cx="137.3" cy="427.46" r="15.14"></circle>
            <circle id="Oval" fill="#FDD835" fill-rule="nonzero" cx="137.3" cy="427.46" r="13.46"></circle>
            <path d="M127.21,431.38 C127.205737,425.971424 130.441594,421.086429 135.42341,418.980668 C140.405225,416.874907 146.163759,417.958068 150.04,421.73 C147.716005,416.89586 142.741947,413.90466 137.382447,414.118252 C132.022947,414.331845 127.302704,417.709393 125.370779,422.713144 C123.438855,427.716896 124.66462,433.390169 128.49,437.15 C127.639207,435.345905 127.201905,433.374628 127.21,431.38 Z" id="Shape" fill="#FFFFFF" fill-rule="nonzero" opacity="0.2"></path>
            <circle id="Oval" fill="url(#linearGradient-5)" fill-rule="nonzero" cx="181.03" cy="427.46" r="15.14"></circle>
            <circle id="Oval" fill="#FDD835" fill-rule="nonzero" cx="181.03" cy="427.46" r="13.46"></circle>
            <path d="M170.94,431.38 C170.935737,425.971424 174.171594,421.086429 179.15341,418.980668 C184.135225,416.874907 189.893759,417.958068 193.77,421.73 C191.446005,416.89586 186.471947,413.90466 181.112447,414.118252 C175.752947,414.331845 171.032704,417.709393 169.100779,422.713144 C167.168855,427.716896 168.39462,433.390169 172.22,437.15 C171.369207,435.345905 170.931905,433.374628 170.94,431.38 Z" id="Shape" fill="#FFFFFF" fill-rule="nonzero" opacity="0.2"></path>
            <circle id="Oval" fill="url(#linearGradient-6)" fill-rule="nonzero" cx="56.57" cy="427.46" r="15.14"></circle>
            <circle id="Oval" fill="#FDD835" fill-rule="nonzero" cx="56.57" cy="427.46" r="13.46"></circle>
            <path d="M46.48,431.38 C46.4757373,425.971424 49.7115944,421.086429 54.6934098,418.980668 C59.6752252,416.874907 65.433759,417.958068 69.31,421.73 C66.9810323,416.904637 62.0101891,413.921848 56.6565129,414.137187 C51.3028368,414.352527 46.5876161,417.724916 44.6537237,422.721743 C42.7198312,427.71857 43.936184,433.38662 47.75,437.15 C46.9026557,435.345107 46.4687777,433.373867 46.48,431.38 Z" id="Shape" fill="#FFFFFF" fill-rule="nonzero" opacity="0.2"></path>
            <circle id="Oval" fill="url(#linearGradient-7)" fill-rule="nonzero" cx="113.76" cy="389.33" r="15.14"></circle>
            <circle id="Oval" fill="#FDD835" fill-rule="nonzero" cx="113.76" cy="389.33" r="13.46"></circle>
            <path d="M103.66,393.26 C103.655737,387.851424 106.891594,382.966429 111.87341,380.860668 C116.855225,378.754907 122.613759,379.838068 126.49,383.61 C124.194757,378.739918 119.216504,375.707771 113.836189,375.902836 C108.455874,376.0979 103.710265,379.482588 101.773716,384.506094 C99.8371667,389.5296 101.082844,395.223913 104.94,398.98 C104.096442,397.191157 103.659319,395.237764 103.66,393.26 Z" id="Shape" fill="#FFFFFF" fill-rule="nonzero" opacity="0.2"></path>
            <circle id="Oval" fill="url(#linearGradient-8)" fill-rule="nonzero" cx="202.9" cy="395.5" r="15.14"></circle>
            <circle id="Oval" fill="#FDD835" fill-rule="nonzero" cx="202.9" cy="395.5" r="13.46"></circle>
            <path d="M192.8,399.43 C192.795737,394.021424 196.031594,389.136429 201.01341,387.030668 C205.995225,384.924907 211.753759,386.008068 215.63,389.78 C213.334757,384.909918 208.356504,381.877771 202.976189,382.072836 C197.595874,382.2679 192.850265,385.652588 190.913716,390.676094 C188.977167,395.6996 190.222844,401.393913 194.08,405.15 C193.236442,403.361157 192.799319,401.407764 192.8,399.43 Z" id="Shape" fill="#FFFFFF" fill-rule="nonzero" opacity="0.2"></path>
            <circle id="Oval" fill="url(#linearGradient-9)" fill-rule="nonzero" cx="181.03" cy="382.04" r="15.14"></circle>
            <circle id="Oval" fill="#FDD835" fill-rule="nonzero" cx="181.03" cy="382.04" r="13.46"></circle>
            <path d="M170.94,385.97 C170.935737,380.561424 174.171594,375.676429 179.15341,373.570668 C184.135225,371.464907 189.893759,372.548068 193.77,376.32 C191.474757,371.449918 186.496504,368.417771 181.116189,368.612836 C175.735874,368.8079 170.990265,372.192588 169.053716,377.216094 C167.117167,382.2396 168.362844,387.933913 172.22,391.69 C171.376442,389.901157 170.939319,387.947764 170.94,385.97 Z" id="Shape" fill="#FFFFFF" fill-rule="nonzero" opacity="0.2"></path>
            <circle id="Oval" fill="url(#linearGradient-10)" fill-rule="nonzero" cx="191.69" cy="414" r="15.14"></circle>
            <circle id="Oval" fill="#FDD835" fill-rule="nonzero" cx="191.69" cy="414" r="13.46"></circle>
            <path d="M181.59,417.93 C181.585737,412.521424 184.821594,407.636429 189.80341,405.530668 C194.785225,403.424907 200.543759,404.508068 204.42,408.28 C202.129583,403.40156 197.148279,400.361352 191.762392,400.554763 C186.376504,400.748174 181.626102,404.137853 179.691509,409.168016 C177.756916,414.198179 179.011722,419.897452 182.88,423.65 C182.032992,421.861949 181.592445,419.90852 181.59,417.93 Z" id="Shape" fill="#FFFFFF" fill-rule="nonzero" opacity="0.2"></path>
            <circle id="Oval" fill="url(#linearGradient-11)" fill-rule="nonzero" cx="152.44" cy="389.33" r="15.14"></circle>
            <circle id="Oval" fill="#FDD835" fill-rule="nonzero" cx="152.44" cy="389.33" r="13.46"></circle>
            <path d="M142.35,393.26 C142.345737,387.851424 145.581594,382.966429 150.56341,380.860668 C155.545225,378.754907 161.303759,379.838068 165.18,383.61 C162.884757,378.739918 157.906504,375.707771 152.526189,375.902836 C147.145874,376.0979 142.400265,379.482588 140.463716,384.506094 C138.527167,389.5296 139.772844,395.223913 143.63,398.98 C142.786442,397.191157 142.349319,395.237764 142.35,393.26 Z" id="Shape" fill="#FFFFFF" fill-rule="nonzero" opacity="0.2"></path>
            <circle id="Oval" fill="url(#linearGradient-12)" fill-rule="nonzero" cx="150.76" cy="346.72" r="15.14"></circle>
            <circle id="Oval" fill="#FDD835" fill-rule="nonzero" cx="150.76" cy="346.72" r="13.46"></circle>
            <path d="M140.67,350.65 C140.665737,345.241424 143.901594,340.356429 148.88341,338.250668 C153.865225,336.144907 159.623759,337.228068 163.5,341 C161.204757,336.129918 156.226504,333.097771 150.846189,333.292836 C145.465874,333.4879 140.720265,336.872588 138.783716,341.896094 C136.847167,346.9196 138.092844,352.613913 141.95,356.37 C141.106442,354.581157 140.669319,352.627764 140.67,350.65 Z" id="Shape" fill="#FFFFFF" fill-rule="nonzero" opacity="0.2"></path>
            <circle id="Oval" fill="url(#linearGradient-13)" fill-rule="nonzero" cx="225.32" cy="368.59" r="15.14"></circle>
            <circle id="Oval" fill="#FDD835" fill-rule="nonzero" cx="225.32" cy="368.59" r="13.46"></circle>
            <path d="M215.23,372.51 C215.225737,367.101424 218.461594,362.216429 223.44341,360.110668 C228.425225,358.004907 234.183759,359.088068 238.06,362.86 C235.764757,357.989918 230.786504,354.957771 225.406189,355.152836 C220.025874,355.3479 215.280265,358.732588 213.343716,363.756094 C211.407167,368.7796 212.652844,374.473913 216.51,378.23 C215.666442,376.441157 215.229319,374.487764 215.23,372.51 Z" id="Shape" fill="#FFFFFF" fill-rule="nonzero" opacity="0.2"></path>
            <circle id="Oval" fill="url(#linearGradient-14)" fill-rule="nonzero" cx="218.04" cy="397.18" r="15.14"></circle>
            <circle id="Oval" fill="#FDD835" fill-rule="nonzero" cx="218.04" cy="397.18" r="13.46"></circle>
            <path d="M207.94,401.15 C207.935737,395.741424 211.171594,390.856429 216.15341,388.750668 C221.135225,386.644907 226.893759,387.728068 230.77,391.5 C228.474757,386.629918 223.496504,383.597771 218.116189,383.792836 C212.735874,383.9879 207.990265,387.372588 206.053716,392.396094 C204.117167,397.4196 205.362844,403.113913 209.22,406.87 C208.376442,405.081157 207.939319,403.127764 207.94,401.15 Z" id="Shape" fill="#FFFFFF" fill-rule="nonzero" opacity="0.2"></path>
            <circle id="Oval" fill="url(#linearGradient-15)" fill-rule="nonzero" cx="251.67" cy="391.57" r="15.14"></circle>
            <circle id="Oval" fill="#FDD835" fill-rule="nonzero" cx="251.67" cy="391.57" r="13.46"></circle>
            <path d="M241.58,395.5 C241.575737,390.091424 244.811594,385.206429 249.79341,383.100668 C254.775225,380.994907 260.533759,382.078068 264.41,385.85 C262.124372,380.963287 257.140046,377.915095 251.748639,378.106876 C246.357231,378.298656 241.602086,381.693295 239.669451,386.730058 C237.736816,391.766821 239.000695,397.470994 242.88,401.22 C242.02954,399.432743 241.585571,397.479277 241.58,395.5 Z" id="Shape" fill="#FFFFFF" fill-rule="nonzero" opacity="0.2"></path>
            <circle id="Oval" fill="url(#linearGradient-16)" fill-rule="nonzero" cx="236.54" cy="405.59" r="15.14"></circle>
            <circle id="Oval" fill="#FDD835" fill-rule="nonzero" cx="236.54" cy="405.59" r="13.46"></circle>
            <path d="M226.44,409.52 C226.435737,404.111424 229.671594,399.226429 234.65341,397.120668 C239.635225,395.014907 245.393759,396.098068 249.27,399.87 C246.974757,394.999918 241.996504,391.967771 236.616189,392.162836 C231.235874,392.3579 226.490265,395.742588 224.553716,400.766094 C222.617167,405.7896 223.862844,411.483913 227.72,415.24 C226.876442,413.451157 226.439319,411.497764 226.44,409.52 Z" id="Shape" fill="#FFFFFF" fill-rule="nonzero" opacity="0.2"></path>
            <circle id="Oval" fill="url(#linearGradient-17)" fill-rule="nonzero" cx="135.62" cy="368.59" r="15.14"></circle>
            <circle id="Oval" fill="#FDD835" fill-rule="nonzero" cx="135.62" cy="368.59" r="13.46"></circle>
            <path d="M125.53,372.51 C125.525737,367.101424 128.761594,362.216429 133.74341,360.110668 C138.725225,358.004907 144.483759,359.088068 148.36,362.86 C146.064757,357.989918 141.086504,354.957771 135.706189,355.152836 C130.325874,355.3479 125.580265,358.732588 123.643716,363.756094 C121.707167,368.7796 122.952844,374.473913 126.81,378.23 C125.966442,376.441157 125.529319,374.487764 125.53,372.51 Z" id="Shape" fill="#FFFFFF" fill-rule="nonzero" opacity="0.2"></path>
            <circle id="Oval" fill="url(#linearGradient-18)" fill-rule="nonzero" cx="113.76" cy="425.77" r="15.14"></circle>
            <circle id="Oval" fill="#FBC02D" fill-rule="nonzero" cx="113.76" cy="425.77" r="13.46"></circle>
            <path d="M103.66,429.7 C103.655737,424.291424 106.891594,419.406429 111.87341,417.300668 C116.855225,415.194907 122.613759,416.278068 126.49,420.05 C124.194757,415.179918 119.216504,412.147771 113.836189,412.342836 C108.455874,412.5379 103.710265,415.922588 101.773716,420.946094 C99.8371667,425.9696 101.082844,431.663913 104.94,435.42 C104.096442,433.631157 103.659319,431.677764 103.66,429.7 Z" id="Shape" fill="#FFFFFF" fill-rule="nonzero" opacity="0.2"></path>
            <circle id="Oval" fill="url(#linearGradient-19)" fill-rule="nonzero" cx="79.56" cy="427.46" r="15.14"></circle>
            <circle id="Oval" fill="#FBC02D" fill-rule="nonzero" cx="79.56" cy="427.46" r="13.46"></circle>
            <path d="M69.46,431.38 C69.4557373,425.971424 72.6915944,421.086429 77.6734098,418.980668 C82.6552252,416.874907 88.413759,417.958068 92.29,421.73 C89.9660052,416.89586 84.9919475,413.90466 79.6324474,414.118252 C74.2729474,414.331845 69.5527038,417.709393 67.6207793,422.713144 C65.6888548,427.716896 66.9146197,433.390169 70.74,437.15 C69.8892071,435.345905 69.4519048,433.374628 69.46,431.38 Z" id="Shape" fill="#FFFFFF" fill-rule="nonzero" opacity="0.2"></path>
            <circle id="Oval" fill="url(#linearGradient-20)" fill-rule="nonzero" cx="96.94" cy="417.92" r="15.14"></circle>
            <circle id="Oval" fill="#FBC02D" fill-rule="nonzero" cx="96.94" cy="417.92" r="13.46"></circle>
            <path d="M86.88,421.85 C86.8757373,416.441424 90.1115944,411.556429 95.0934098,409.450668 C100.075225,407.344907 105.833759,408.428068 109.71,412.2 C107.414757,407.329918 102.436504,404.297771 97.0561891,404.492836 C91.675874,404.6879 86.9302651,408.072588 84.9937159,413.096094 C83.0571667,418.1196 84.3028438,423.813913 88.16,427.57 C87.3164418,425.781157 86.8793188,423.827764 86.88,421.85 Z" id="Shape" fill="#FFFFFF" fill-rule="nonzero" opacity="0.2"></path>
            <circle id="Oval" fill="url(#linearGradient-21)" fill-rule="nonzero" cx="170.94" cy="401.11" r="15.14"></circle>
            <circle id="Oval" fill="#FBC02D" fill-rule="nonzero" cx="170.94" cy="401.11" r="13.46"></circle>
            <path d="M160.88,405.03 C160.875737,399.621424 164.111594,394.736429 169.09341,392.630668 C174.075225,390.524907 179.833759,391.608068 183.71,395.38 C181.414757,390.509918 176.436504,387.477771 171.056189,387.672836 C165.675874,387.8679 160.930265,391.252588 158.993716,396.276094 C157.057167,401.2996 158.302844,406.993913 162.16,410.75 C161.316442,408.961157 160.879319,407.007764 160.88,405.03 Z" id="Shape" fill="#FFFFFF" fill-rule="nonzero" opacity="0.2"></path>
            <circle id="Oval" fill="url(#linearGradient-22)" fill-rule="nonzero" cx="170.94" cy="365.22" r="15.14"></circle>
            <circle id="Oval" fill="#FBC02D" fill-rule="nonzero" cx="170.94" cy="365.22" r="13.46"></circle>
            <path d="M160.88,369.15 C160.875737,363.741424 164.111594,358.856429 169.09341,356.750668 C174.075225,354.644907 179.833759,355.728068 183.71,359.5 C181.414757,354.629918 176.436504,351.597771 171.056189,351.792836 C165.675874,351.9879 160.930265,355.372588 158.993716,360.396094 C157.057167,365.4196 158.302844,371.113913 162.16,374.87 C161.316442,373.081157 160.879319,371.127764 160.88,369.15 Z" id="Shape" fill="#FFFFFF" fill-rule="nonzero" opacity="0.2"></path>
            <circle id="Oval" fill="url(#linearGradient-23)" fill-rule="nonzero" cx="187.76" cy="393.82" r="15.14"></circle>
            <circle id="Oval" fill="#FBC02D" fill-rule="nonzero" cx="187.76" cy="393.82" r="13.46"></circle>
            <path d="M177.67,397.74 C177.665737,392.331424 180.901594,387.446429 185.88341,385.340668 C190.865225,383.234907 196.623759,384.318068 200.5,388.09 C198.204757,383.219918 193.226504,380.187771 187.846189,380.382836 C182.465874,380.5779 177.720265,383.962588 175.783716,388.986094 C173.847167,394.0096 175.092844,399.703913 178.95,403.46 C178.106442,401.671157 177.669319,399.717764 177.67,397.74 Z" id="Shape" fill="#FFFFFF" fill-rule="nonzero" opacity="0.2"></path>
            <circle id="Oval" fill="url(#linearGradient-24)" fill-rule="nonzero" cx="172.62" cy="336.63" r="15.14"></circle>
            <circle id="Oval" fill="#FBC02D" fill-rule="nonzero" cx="172.62" cy="336.63" r="13.46"></circle>
            <path d="M162.53,340.56 C162.525737,335.151424 165.761594,330.266429 170.74341,328.160668 C175.725225,326.054907 181.483759,327.138068 185.36,330.91 C183.064757,326.039918 178.086504,323.007771 172.706189,323.202836 C167.325874,323.3979 162.580265,326.782588 160.643716,331.806094 C158.707167,336.8296 159.952844,342.523913 163.81,346.28 C162.966442,344.491157 162.529319,342.537764 162.53,340.56 Z" id="Shape" fill="#FFFFFF" fill-rule="nonzero" opacity="0.2"></path>
            <circle id="Oval" fill="url(#linearGradient-25)" fill-rule="nonzero" cx="175.99" cy="351.77" r="15.14"></circle>
            <circle id="Oval" fill="#FBC02D" fill-rule="nonzero" cx="175.99" cy="351.77" r="13.46"></circle>
            <path d="M165.88,355.7 C165.875737,350.291424 169.111594,345.406429 174.09341,343.300668 C179.075225,341.194907 184.833759,342.278068 188.71,346.05 C186.414757,341.179918 181.436504,338.147771 176.056189,338.342836 C170.675874,338.5379 165.930265,341.922588 163.993716,346.946094 C162.057167,351.9696 163.302844,357.663913 167.16,361.42 C166.316442,359.631157 165.879319,357.677764 165.88,355.7 Z" id="Shape" fill="#FFFFFF" fill-rule="nonzero" opacity="0.2"></path>
            <circle id="Oval" fill="url(#linearGradient-26)" fill-rule="nonzero" cx="193.93" cy="361.86" r="15.14"></circle>
            <circle id="Oval" fill="#FBC02D" fill-rule="nonzero" cx="193.93" cy="361.86" r="13.46"></circle>
            <path d="M183.88,365.79 C183.895273,360.400411 187.12637,355.540382 192.090175,353.440729 C197.05398,351.341077 202.791839,352.407305 206.67,356.15 C204.374757,351.279918 199.396504,348.247771 194.016189,348.442836 C188.635874,348.6379 183.890265,352.022588 181.953716,357.046094 C180.017167,362.0696 181.262844,367.763913 185.12,371.52 C184.288789,369.724941 183.865322,367.768113 183.88,365.79 Z" id="Shape" fill="#FFFFFF" fill-rule="nonzero" opacity="0.2"></path>
            <circle id="Oval" fill="url(#linearGradient-27)" fill-rule="nonzero" cx="212.43" cy="359.06" r="15.14"></circle>
            <circle id="Oval" fill="#FBC02D" fill-rule="nonzero" cx="212.43" cy="359.06" r="13.46"></circle>
            <path d="M202.34,362.98 C202.335737,357.571424 205.571594,352.686429 210.55341,350.580668 C215.535225,348.474907 221.293759,349.558068 225.17,353.33 C222.874757,348.459918 217.896504,345.427771 212.516189,345.622836 C207.135874,345.8179 202.390265,349.202588 200.453716,354.226094 C198.517167,359.2496 199.762844,364.943913 203.62,368.7 C202.776442,366.911157 202.339319,364.957764 202.34,362.98 Z" id="Shape" fill="#FFFFFF" fill-rule="nonzero" opacity="0.2"></path>
            <circle id="Oval" fill="url(#linearGradient-28)" fill-rule="nonzero" cx="207.38" cy="374.19" r="15.14"></circle>
            <circle id="Oval" fill="#FBC02D" fill-rule="nonzero" cx="207.38" cy="374.19" r="13.46"></circle>
            <path d="M197.29,378.15 C197.285737,372.741424 200.521594,367.856429 205.50341,365.750668 C210.485225,363.644907 216.243759,364.728068 220.12,368.5 C217.824757,363.629918 212.846504,360.597771 207.466189,360.792836 C202.085874,360.9879 197.340265,364.372588 195.403716,369.396094 C193.467167,374.4196 194.712844,380.113913 198.57,383.87 C197.726442,382.081157 197.289319,380.127764 197.29,378.15 Z" id="Shape" fill="#FFFFFF" fill-rule="nonzero" opacity="0.2"></path>
            <circle id="Oval" fill="url(#linearGradient-29)" fill-rule="nonzero" cx="144.03" cy="354.57" r="15.14"></circle>
            <circle id="Oval" fill="#FBC02D" fill-rule="nonzero" cx="144.03" cy="354.57" r="13.46"></circle>
            <path d="M133.94,358.5 C133.935737,353.091424 137.171594,348.206429 142.15341,346.100668 C147.135225,343.994907 152.893759,345.078068 156.77,348.85 C154.474757,343.979918 149.496504,340.947771 144.116189,341.142836 C138.735874,341.3379 133.990265,344.722588 132.053716,349.746094 C130.117167,354.7696 131.362844,360.463913 135.22,364.22 C134.376442,362.431157 133.939319,360.477764 133.94,358.5 Z" id="Shape" fill="#FFFFFF" fill-rule="nonzero" opacity="0.2"></path>
            <circle id="Oval" fill="url(#linearGradient-30)" fill-rule="nonzero" cx="100.3" cy="400.54" r="15.14"></circle>
            <circle id="Oval" fill="#FBC02D" fill-rule="nonzero" cx="100.3" cy="400.54" r="13.46"></circle>
            <path d="M90.21,404.47 C90.2057373,399.061424 93.4415944,394.176429 98.4234098,392.070668 C103.405225,389.964907 109.163759,391.048068 113.04,394.82 C110.762729,389.930288 105.784521,386.874044 100.393592,387.05606 C95.0026629,387.238076 90.2419347,390.623139 88.2996599,395.655317 C86.3573851,400.687494 87.6093133,406.393269 91.48,410.15 C90.6456316,408.372581 90.2120726,406.433514 90.21,404.47 Z" id="Shape" fill="#FFFFFF" fill-rule="nonzero" opacity="0.2"></path>
            <circle id="Oval" fill="url(#linearGradient-31)" fill-rule="nonzero" cx="126.65" cy="375.32" r="15.14"></circle>
            <circle id="Oval" fill="#FBC02D" fill-rule="nonzero" cx="126.65" cy="375.32" r="13.46"></circle>
            <path d="M116.56,379.24 C116.555737,373.831424 119.791594,368.946429 124.77341,366.840668 C129.755225,364.734907 135.513759,365.818068 139.39,369.59 C137.113845,364.686989 132.12356,361.62305 126.721261,361.811638 C121.318962,362.000225 116.554481,365.404692 114.625767,370.454489 C112.697053,375.504287 113.978913,381.218087 117.88,384.96 C117.022634,383.174332 116.571818,381.220794 116.56,379.24 Z" id="Shape" fill="#FFFFFF" fill-rule="nonzero" opacity="0.2"></path>
            <circle id="Oval" fill="url(#linearGradient-32)" fill-rule="nonzero" cx="72.83" cy="418.49" r="15.14"></circle>
            <circle id="Oval" fill="#FBC02D" fill-rule="nonzero" cx="72.83" cy="418.49" r="13.46"></circle>
            <path d="M62.74,422.41 C62.7357373,417.001424 65.9715944,412.116429 70.9534098,410.010668 C75.9352252,407.904907 81.693759,408.988068 85.57,412.76 C83.2583928,407.91271 78.2848794,404.905062 72.9184964,405.109216 C67.5521134,405.313371 62.8214861,408.690196 60.8848405,413.699103 C58.948195,418.708011 60.1767464,424.388895 64.01,428.15 C63.1670047,426.354261 62.7332337,424.393752 62.74,422.41 Z" id="Shape" fill="#FFFFFF" fill-rule="nonzero" opacity="0.2"></path>
            <circle id="Oval" fill="url(#linearGradient-33)" fill-rule="nonzero" cx="218.04" cy="406.71" r="15.14"></circle>
            <circle id="Oval" fill="#FBC02D" fill-rule="nonzero" cx="218.04" cy="406.71" r="13.46"></circle>
            <path d="M207.94,410.64 C207.935737,405.231424 211.171594,400.346429 216.15341,398.240668 C221.135225,396.134907 226.893759,397.218068 230.77,400.99 C228.474757,396.119918 223.496504,393.087771 218.116189,393.282836 C212.735874,393.4779 207.990265,396.862588 206.053716,401.886094 C204.117167,406.9096 205.362844,412.603913 209.22,416.36 C208.376442,414.571157 207.939319,412.617764 207.94,410.64 Z" id="Shape" fill="#FFFFFF" fill-rule="nonzero" opacity="0.2"></path>
            <circle id="Oval" fill="url(#linearGradient-34)" fill-rule="nonzero" cx="150.2" cy="321.49" r="15.14"></circle>
            <circle id="Oval" fill="#FBC02D" fill-rule="nonzero" cx="150.2" cy="321.49" r="13.46"></circle>
            <path d="M140.1,325.42 C140.095737,320.011424 143.331594,315.126429 148.31341,313.020668 C153.295225,310.914907 159.053759,311.998068 162.93,315.77 C160.629035,310.907001 155.651573,307.882961 150.275358,308.081714 C144.899142,308.280468 140.158553,311.663774 138.222938,316.683395 C136.287323,321.703015 137.529093,327.393178 141.38,331.15 C140.535,329.358106 140.097841,327.401137 140.1,325.42 Z" id="Shape" fill="#FFFFFF" fill-rule="nonzero" opacity="0.2"></path>
            <circle id="Oval" fill="url(#linearGradient-35)" fill-rule="nonzero" cx="122.73" cy="356.25" r="15.14"></circle>
            <circle id="Oval" fill="#FBC02D" fill-rule="nonzero" cx="122.73" cy="356.25" r="13.46"></circle>
            <path d="M112.63,360.15 C112.625737,354.741424 115.861594,349.856429 120.84341,347.750668 C125.825225,345.644907 131.583759,346.728068 135.46,350.5 C133.132642,345.677537 128.166414,342.694988 122.815894,342.906377 C117.465375,343.117767 112.749929,346.482821 110.810285,351.473865 C108.87064,356.46491 110.076333,362.131066 113.88,365.9 C113.042452,364.099622 112.615492,362.135608 112.63,360.15 Z" id="Shape" fill="#FFFFFF" fill-rule="nonzero" opacity="0.2"></path>
            <circle id="Oval" fill="url(#linearGradient-36)" fill-rule="nonzero" cx="100.86" cy="382.04" r="15.14"></circle>
            <circle id="Oval" fill="#FBC02D" fill-rule="nonzero" cx="100.86" cy="382.04" r="13.46"></circle>
            <path d="M90.77,385.97 C90.7657373,380.561424 94.0015944,375.676429 98.9834098,373.570668 C103.965225,371.464907 109.723759,372.548068 113.6,376.32 C111.304757,371.449918 106.326504,368.417771 100.946189,368.612836 C95.565874,368.8079 90.8202651,372.192588 88.8837159,377.216094 C86.9471667,382.2396 88.1928438,387.933913 92.05,391.69 C91.2064418,389.901157 90.7693188,387.947764 90.77,385.97 Z" id="Shape" fill="#FFFFFF" fill-rule="nonzero" opacity="0.2"></path>
            <circle id="Oval" fill="url(#linearGradient-37)" fill-rule="nonzero" cx="116.56" cy="410.64" r="15.14"></circle>
            <circle id="Oval" fill="#FBC02D" fill-rule="nonzero" cx="116.56" cy="410.64" r="13.46"></circle>
            <path d="M106.47,414.56 C106.465737,409.151424 109.701594,404.266429 114.68341,402.160668 C119.665225,400.054907 125.423759,401.138068 129.3,404.91 C127.004757,400.039918 122.026504,397.007771 116.646189,397.202836 C111.265874,397.3979 106.520265,400.782588 104.583716,405.806094 C102.647167,410.8296 103.892844,416.523913 107.75,420.28 C106.906442,418.491157 106.469319,416.537764 106.47,414.56 Z" id="Shape" fill="#FFFFFF" fill-rule="nonzero" opacity="0.2"></path>
            <circle id="Oval" fill="url(#linearGradient-38)" fill-rule="nonzero" cx="137.86" cy="391.57" r="15.14"></circle>
            <circle id="Oval" fill="#FBC02D" fill-rule="nonzero" cx="137.86" cy="391.57" r="13.46"></circle>
            <path d="M127.77,395.5 C127.765737,390.091424 131.001594,385.206429 135.98341,383.100668 C140.965225,380.994907 146.723759,382.078068 150.6,385.85 C148.304757,380.979918 143.326504,377.947771 137.946189,378.142836 C132.565874,378.3379 127.820265,381.722588 125.883716,386.746094 C123.947167,391.7696 125.192844,397.463913 129.05,401.22 C128.206442,399.431157 127.769319,397.477764 127.77,395.5 Z" id="Shape" fill="#FFFFFF" fill-rule="nonzero" opacity="0.2"></path>
            <circle id="Oval" fill="url(#linearGradient-39)" fill-rule="nonzero" cx="149.08" cy="410.64" r="15.14"></circle>
            <circle id="Oval" fill="#FBC02D" fill-rule="nonzero" cx="149.08" cy="410.64" r="13.46"></circle>
            <path d="M138.98,414.56 C138.975737,409.151424 142.211594,404.266429 147.19341,402.160668 C152.175225,400.054907 157.933759,401.138068 161.81,404.91 C159.514757,400.039918 154.536504,397.007771 149.156189,397.202836 C143.775874,397.3979 139.030265,400.782588 137.093716,405.806094 C135.157167,410.8296 136.402844,416.523913 140.26,420.28 C139.416442,418.491157 138.979319,416.537764 138.98,414.56 Z" id="Shape" fill="#FFFFFF" fill-rule="nonzero" opacity="0.2"></path>
            <circle id="Oval" fill="url(#linearGradient-40)" fill-rule="nonzero" cx="265.13" cy="427.46" r="15.14"></circle>
            <circle id="Oval" fill="#FBC02D" fill-rule="nonzero" cx="265.13" cy="427.46" r="13.46"></circle>
            <path d="M255.04,431.38 C255.03584,425.968933 258.274736,421.082257 263.259959,418.978161 C268.245182,416.874065 274.005892,417.962308 277.88,421.74 C275.551843,416.916079 270.583305,413.933401 265.231202,414.146762 C259.879098,414.360123 255.163759,417.728847 253.226989,422.722789 C251.29022,427.716732 252.501249,433.383842 256.31,437.15 C255.462656,435.345107 255.028778,433.373867 255.04,431.38 Z" id="Shape" fill="#FFFFFF" fill-rule="nonzero" opacity="0.2"></path>
            <circle id="Oval" fill="url(#linearGradient-41)" fill-rule="nonzero" cx="243.82" cy="424.09" r="15.14"></circle>
            <circle id="Oval" fill="#FBC02D" fill-rule="nonzero" cx="243.82" cy="424.09" r="13.46"></circle>
            <path d="M233.73,428.02 C233.725737,422.611424 236.961594,417.726429 241.94341,415.620668 C246.925225,413.514907 252.683759,414.598068 256.56,418.37 C254.264757,413.499918 249.286504,410.467771 243.906189,410.662836 C238.525874,410.8579 233.780265,414.242588 231.843716,419.266094 C229.907167,424.2896 231.152844,429.983913 235.01,433.74 C234.166442,431.951157 233.729319,429.997764 233.73,428.02 Z" id="Shape" fill="#FFFFFF" fill-rule="nonzero" opacity="0.2"></path>
            <circle id="Oval" fill="url(#linearGradient-42)" fill-rule="nonzero" cx="202.9" cy="425.77" r="15.14"></circle>
            <circle id="Oval" fill="#FBC02D" fill-rule="nonzero" cx="202.9" cy="425.77" r="13.46"></circle>
            <circle id="Oval" fill="#FBC02D" fill-rule="nonzero" cx="205.7" cy="410.08" r="13.46"></circle>
            <path d="M192.8,429.7 C192.795737,424.291424 196.031594,419.406429 201.01341,417.300668 C205.995225,415.194907 211.753759,416.278068 215.63,420.05 C213.334757,415.179918 208.356504,412.147771 202.976189,412.342836 C197.595874,412.5379 192.850265,415.922588 190.913716,420.946094 C188.977167,425.9696 190.222844,431.663913 194.08,435.42 C193.236442,433.631157 192.799319,431.677764 192.8,429.7 Z" id="Shape" fill="#FFFFFF" fill-rule="nonzero" opacity="0.2"></path>
            <circle id="Oval" fill="url(#linearGradient-43)" fill-rule="nonzero" cx="157.49" cy="427.46" r="15.14"></circle>
            <circle id="Oval" fill="#FBC02D" fill-rule="nonzero" cx="157.49" cy="427.46" r="13.46"></circle>
            <path d="M147.39,431.38 C147.385737,425.971424 150.621594,421.086429 155.60341,418.980668 C160.585225,416.874907 166.343759,417.958068 170.22,421.73 C167.896005,416.89586 162.921947,413.90466 157.562447,414.118252 C152.202947,414.331845 147.482704,417.709393 145.550779,422.713144 C143.618855,427.716896 144.84462,433.390169 148.67,437.15 C147.819207,435.345905 147.381905,433.374628 147.39,431.38 Z" id="Shape" fill="#FFFFFF" fill-rule="nonzero" opacity="0.2"></path>
            <circle id="Oval" fill="url(#linearGradient-44)" fill-rule="nonzero" cx="153" cy="366.91" r="15.14"></circle>
            <circle id="Oval" fill="#FDD835" fill-rule="nonzero" cx="153" cy="366.91" r="13.46"></circle>
            <path d="M142.88,370.83 C142.851731,365.403011 146.087789,360.490747 151.085272,358.374577 C156.082754,356.258408 161.862398,357.353 165.74,361.15 C163.444757,356.279918 158.466504,353.247771 153.086189,353.442836 C147.705874,353.6379 142.960265,357.022588 141.023716,362.046094 C139.087167,367.0696 140.332844,372.763913 144.19,376.52 C143.340396,374.742683 142.893112,372.799901 142.88,370.83 Z" id="Shape" fill="#FFFFFF" fill-rule="nonzero" opacity="0.2"></path>
            <circle id="Oval" fill="url(#linearGradient-45)" fill-rule="nonzero" cx="168.14" cy="385.97" r="15.14"></circle>
            <circle id="Oval" fill="#FDD835" fill-rule="nonzero" cx="168.14" cy="385.97" r="13.46"></circle>
            <path d="M158.04,389.89 C158.03584,384.478933 161.274736,379.592257 166.259959,377.488161 C171.245182,375.384065 177.005892,376.472308 180.88,380.25 C178.584757,375.379918 173.606504,372.347771 168.226189,372.542836 C162.845874,372.7379 158.100265,376.122588 156.163716,381.146094 C154.227167,386.1696 155.472844,391.863913 159.33,395.62 C158.48155,393.828899 158.040968,391.871895 158.04,389.89 Z" id="Shape" fill="#FFFFFF" fill-rule="nonzero" opacity="0.2"></path>
            <circle id="Oval" fill="url(#linearGradient-46)" fill-rule="nonzero" cx="142.91" cy="339.44" r="15.14"></circle>
            <circle id="Oval" fill="#FDD835" fill-rule="nonzero" cx="142.91" cy="339.44" r="13.46"></circle>
            <path d="M132.82,343.36 C132.815737,337.951424 136.051594,333.066429 141.03341,330.960668 C146.015225,328.854907 151.773759,329.938068 155.65,333.71 C153.354757,328.839918 148.376504,325.807771 142.996189,326.002836 C137.615874,326.1979 132.870265,329.582588 130.933716,334.606094 C128.997167,339.6296 130.242844,345.323913 134.1,349.08 C133.256442,347.291157 132.819319,345.337764 132.82,343.36 Z" id="Shape" fill="#FFFFFF" fill-rule="nonzero" opacity="0.2"></path>
            <circle id="Oval" fill="url(#linearGradient-47)" fill-rule="nonzero" cx="159.73" cy="341.12" r="15.14"></circle>
            <circle id="Oval" fill="#FDD835" fill-rule="nonzero" cx="159.73" cy="341.12" r="13.46"></circle>
            <path d="M149.64,345.04 C149.635737,339.631424 152.871594,334.746429 157.85341,332.640668 C162.835225,330.534907 168.593759,331.618068 172.47,335.39 C170.149256,330.561607 165.184417,327.570834 159.8312,327.776505 C154.477982,327.982176 149.757252,331.345068 147.813816,336.337291 C145.87038,341.329514 147.074854,346.999045 150.88,350.77 C150.048789,348.974941 149.625322,347.018113 149.64,345.04 Z" id="Shape" fill="#FFFFFF" fill-rule="nonzero" opacity="0.2"></path>
            <circle id="Oval" fill="url(#linearGradient-48)" fill-rule="nonzero" cx="187.76" cy="348.97" r="15.14"></circle>
            <circle id="Oval" fill="#FDD835" fill-rule="nonzero" cx="187.76" cy="348.97" r="13.46"></circle>
            <path d="M177.67,352.89 C177.665737,347.481424 180.901594,342.596429 185.88341,340.490668 C190.865225,338.384907 196.623759,339.468068 200.5,343.24 C198.204757,338.369918 193.226504,335.337771 187.846189,335.532836 C182.465874,335.7279 177.720265,339.112588 175.783716,344.136094 C173.847167,349.1596 175.092844,354.853913 178.95,358.61 C178.106442,356.821157 177.669319,354.867764 177.67,352.89 Z" id="Shape" fill="#FFFFFF" fill-rule="nonzero" opacity="0.2"></path>
            <circle id="Oval" fill="url(#linearGradient-49)" fill-rule="nonzero" cx="112.07" cy="373.63" r="15.14"></circle>
            <circle id="Oval" fill="#FDD835" fill-rule="nonzero" cx="112.07" cy="373.63" r="13.46"></circle>
            <path d="M101.98,377.56 C101.975737,372.151424 105.211594,367.266429 110.19341,365.160668 C115.175225,363.054907 120.933759,364.138068 124.81,367.91 C122.514757,363.039918 117.536504,360.007771 112.156189,360.202836 C106.775874,360.3979 102.030265,363.782588 100.093716,368.806094 C98.1571667,373.8296 99.4028438,379.523913 103.26,383.28 C102.416442,381.491157 101.979319,379.537764 101.98,377.56 Z" id="Shape" fill="#FFFFFF" fill-rule="nonzero" opacity="0.2"></path>
            <circle id="Oval" fill="url(#linearGradient-50)" fill-rule="nonzero" cx="122.73" cy="393.26" r="15.14"></circle>
            <circle id="Oval" fill="#FDD835" fill-rule="nonzero" cx="122.73" cy="393.26" r="13.46"></circle>
            <path d="M112.63,397.15 C112.625737,391.741424 115.861594,386.856429 120.84341,384.750668 C125.825225,382.644907 131.583759,383.728068 135.46,387.5 C133.126808,382.684987 128.161527,379.710841 122.815327,379.925988 C117.469128,380.141135 112.758893,383.504653 110.820161,388.491582 C108.881429,393.47851 110.08296,399.140302 113.88,402.91 C113.041002,401.106568 112.614007,399.138977 112.63,397.15 Z" id="Shape" fill="#FFFFFF" fill-rule="nonzero" opacity="0.2"></path>
            <circle id="Oval" fill="url(#linearGradient-51)" fill-rule="nonzero" cx="130.02" cy="416.24" r="15.14"></circle>
            <circle id="Oval" fill="#FDD835" fill-rule="nonzero" cx="130.02" cy="416.24" r="13.46"></circle>
            <path d="M119.88,420.15 C119.875737,414.741424 123.111594,409.856429 128.09341,407.750668 C133.075225,405.644907 138.833759,406.728068 142.71,410.5 C140.414757,405.629918 135.436504,402.597771 130.056189,402.792836 C124.675874,402.9879 119.930265,406.372588 117.993716,411.396094 C116.057167,416.4196 117.302844,422.113913 121.16,425.87 C120.316442,424.081157 119.879319,422.127764 119.88,420.15 Z" id="Shape" fill="#FFFFFF" fill-rule="nonzero" opacity="0.2"></path>
            <circle id="Oval" fill="url(#linearGradient-52)" fill-rule="nonzero" cx="172.62" cy="408.95" r="15.14"></circle>
            <circle id="Oval" fill="#FDD835" fill-rule="nonzero" cx="172.62" cy="408.95" r="13.46"></circle>
            <path d="M162.53,412.88 C162.525737,407.471424 165.761594,402.586429 170.74341,400.480668 C175.725225,398.374907 181.483759,399.458068 185.36,403.23 C183.064757,398.359918 178.086504,395.327771 172.706189,395.522836 C167.325874,395.7179 162.580265,399.102588 160.643716,404.126094 C158.707167,409.1496 159.952844,414.843913 163.81,418.6 C162.966442,416.811157 162.529319,414.857764 162.53,412.88 Z" id="Shape" fill="#FFFFFF" fill-rule="nonzero" opacity="0.2"></path>
            <circle id="Oval" fill="url(#linearGradient-53)" fill-rule="nonzero" cx="216.35" cy="395.5" r="15.14"></circle>
            <circle id="Oval" fill="#FDD835" fill-rule="nonzero" cx="216.35" cy="395.5" r="13.46"></circle>
            <path d="M206.26,399.43 C206.255737,394.021424 209.491594,389.136429 214.47341,387.030668 C219.455225,384.924907 225.213759,386.008068 229.09,389.78 C226.794757,384.909918 221.816504,381.877771 216.436189,382.072836 C211.055874,382.2679 206.310265,385.652588 204.373716,390.676094 C202.437167,395.6996 203.682844,401.393913 207.54,405.15 C206.696442,403.361157 206.259319,401.407764 206.26,399.43 Z" id="Shape" fill="#FFFFFF" fill-rule="nonzero" opacity="0.2"></path>
            <circle id="Oval" fill="url(#linearGradient-54)" fill-rule="nonzero" cx="230.37" cy="383.73" r="15.14"></circle>
            <circle id="Oval" fill="#FDD835" fill-rule="nonzero" cx="230.37" cy="383.73" r="13.46"></circle>
            <circle id="Oval" fill="#FDD835" fill-rule="nonzero" cx="196.17" cy="382.6" r="13.46"></circle>
            <path d="M220.28,387.65 C220.275737,382.241424 223.511594,377.356429 228.49341,375.250668 C233.475225,373.144907 239.233759,374.228068 243.11,378 C240.814757,373.129918 235.836504,370.097771 230.456189,370.292836 C225.075874,370.4879 220.330265,373.872588 218.393716,378.896094 C216.457167,383.9196 217.702844,389.613913 221.56,393.37 C220.716442,391.581157 220.279319,389.627764 220.28,387.65 Z" id="Shape" fill="#FFFFFF" fill-rule="nonzero" opacity="0.2"></path>
            <circle id="Oval" fill="url(#linearGradient-55)" fill-rule="nonzero" cx="252.23" cy="410.64" r="15.14"></circle>
            <circle id="Oval" fill="#FDD835" fill-rule="nonzero" cx="252.23" cy="410.64" r="13.46"></circle>
            <path d="M242.14,414.56 C242.135737,409.151424 245.371594,404.266429 250.35341,402.160668 C255.335225,400.054907 261.093759,401.138068 264.97,404.91 C262.674757,400.039918 257.696504,397.007771 252.316189,397.202836 C246.935874,397.3979 242.190265,400.782588 240.253716,405.806094 C238.317167,410.8296 239.562844,416.523913 243.42,420.28 C242.576442,418.491157 242.139319,416.537764 242.14,414.56 Z" id="Shape" fill="#FFFFFF" fill-rule="nonzero" opacity="0.2"></path>
            <circle id="Oval" fill="url(#linearGradient-56)" fill-rule="nonzero" cx="181.59" cy="429.14" r="15.14"></circle>
            <circle id="Oval" fill="#FDD835" fill-rule="nonzero" cx="181.59" cy="429.14" r="13.46"></circle>
            <path d="M171.5,433.06 C171.495737,427.651424 174.731594,422.766429 179.71341,420.660668 C184.695225,418.554907 190.453759,419.638068 194.33,423.41 C192.034757,418.539918 187.056504,415.507771 181.676189,415.702836 C176.295874,415.8979 171.550265,419.282588 169.613716,424.306094 C167.677167,429.3296 168.922844,435.023913 172.78,438.78 C171.936442,436.991157 171.499319,435.037764 171.5,433.06 Z" id="Shape" fill="#FFFFFF" fill-rule="nonzero" opacity="0.2"></path>
            <circle id="Oval" fill="url(#linearGradient-57)" fill-rule="nonzero" cx="103.67" cy="422.41" r="15.14"></circle>
            <circle id="Oval" fill="#FDD835" fill-rule="nonzero" cx="103.67" cy="422.41" r="13.46"></circle>
            <path d="M93.57,426.34 C93.5657373,420.931424 96.8015944,416.046429 101.78341,413.940668 C106.765225,411.834907 112.523759,412.918068 116.4,416.69 C114.119126,411.795098 109.131807,408.738996 103.734929,408.929169 C98.3380511,409.119342 93.5782138,412.518909 91.6475384,417.562217 C89.7168629,422.605524 90.989759,428.314539 94.88,432.06 C94.0260878,430.273537 93.5786949,428.320035 93.57,426.34 Z" id="Shape" fill="#FFFFFF" fill-rule="nonzero" opacity="0.2"></path>
            <circle id="Oval" fill="url(#linearGradient-58)" fill-rule="nonzero" cx="81.8" cy="402.79" r="15.14"></circle>
            <circle id="Oval" fill="#FDD835" fill-rule="nonzero" cx="81.8" cy="402.79" r="13.46"></circle>
            <path d="M71.71,406.71 C71.7057373,401.301424 74.9415944,396.416429 79.9234098,394.310668 C84.9052252,392.204907 90.663759,393.288068 94.54,397.06 C92.2447567,392.189918 87.2665041,389.157771 81.8861891,389.352836 C76.505874,389.5479 71.7602651,392.932588 69.8237159,397.956094 C67.8871667,402.9796 69.1328438,408.673913 72.99,412.43 C72.1464418,410.641157 71.7093188,408.687764 71.71,406.71 Z" id="Shape" fill="#FFFFFF" fill-rule="nonzero" opacity="0.2"></path>
            <circle id="Oval" fill="url(#linearGradient-59)" fill-rule="nonzero" cx="110.39" cy="393.26" r="15.14"></circle>
            <circle id="Oval" fill="#FDD835" fill-rule="nonzero" cx="110.39" cy="393.26" r="13.46"></circle>
            <path d="M100.3,397.15 C100.295737,391.741424 103.531594,386.856429 108.51341,384.750668 C113.495225,382.644907 119.253759,383.728068 123.13,387.5 C120.834757,382.629918 115.856504,379.597771 110.476189,379.792836 C105.095874,379.9879 100.350265,383.372588 98.4137159,388.396094 C96.4771667,393.4196 97.7228438,399.113913 101.58,402.87 C100.736442,401.081157 100.299319,399.127764 100.3,397.15 Z" id="Shape" fill="#FFFFFF" fill-rule="nonzero" opacity="0.2"></path>
            <circle id="Oval" fill="url(#linearGradient-60)" fill-rule="nonzero" cx="94.69" cy="370.27" r="15.14"></circle>
            <circle id="Oval" fill="#FDD835" fill-rule="nonzero" cx="94.69" cy="370.27" r="13.46"></circle>
            <path d="M84.6,374.15 C84.5957373,368.741424 87.8315944,363.856429 92.8134098,361.750668 C97.7952252,359.644907 103.553759,360.728068 107.43,364.5 C105.106005,359.66586 100.131947,356.67466 94.7724474,356.888252 C89.4129474,357.101845 84.6927038,360.479393 82.7607793,365.483144 C80.8288548,370.486896 82.0546197,376.160169 85.88,379.92 C85.0292071,378.115905 84.5919048,376.144628 84.6,374.15 Z" id="Shape" fill="#FFFFFF" fill-rule="nonzero" opacity="0.2"></path>
            <circle id="Oval" fill="url(#linearGradient-61)" fill-rule="nonzero" cx="108.15" cy="348.97" r="15.14"></circle>
            <circle id="Oval" fill="#FDD835" fill-rule="nonzero" cx="108.15" cy="348.97" r="13.46"></circle>
            <path d="M98.06,352.89 C98.0636638,347.487545 101.299442,342.611575 106.27607,340.509266 C111.252699,338.406957 117.004241,339.486354 120.88,343.25 C118.584757,338.379918 113.606504,335.347771 108.226189,335.542836 C102.845874,335.7379 98.1002651,339.122588 96.1637159,344.146094 C94.2271667,349.1696 95.4728438,354.863913 99.33,358.62 C98.4884491,356.827313 98.0547136,354.87038 98.06,352.89 Z" id="Shape" fill="#FFFFFF" fill-rule="nonzero" opacity="0.2"></path>
            <circle id="Oval" fill="url(#linearGradient-62)" fill-rule="nonzero" cx="225.32" cy="427.46" r="15.14"></circle>
            <circle id="Oval" fill="#FDD835" fill-rule="nonzero" cx="225.32" cy="427.46" r="13.46"></circle>
            <path d="M215.23,431.38 C215.225737,425.971424 218.461594,421.086429 223.44341,418.980668 C228.425225,416.874907 234.183759,417.958068 238.06,421.73 C235.736005,416.89586 230.761947,413.90466 225.402447,414.118252 C220.042947,414.331845 215.322704,417.709393 213.390779,422.713144 C211.458855,427.716896 212.68462,433.390169 216.51,437.15 C215.659207,435.345905 215.221905,433.374628 215.23,431.38 Z" id="Shape" fill="#FFFFFF" fill-rule="nonzero" opacity="0.2"></path>
            <polygon id="Shape" fill="url(#linearGradient-63)" fill-rule="nonzero" points="246.22 677.5 78.82 677.5 36.39 427.45 289.24 427.45"></polygon>
            <polygon id="Shape" fill="#FFFFFF" fill-rule="nonzero" points="243.82 674.14 82.36 674.14 41.43 431.38 285.31 431.38"></polygon>
            <polygon id="Shape" fill="#FF5A5F" fill-rule="nonzero" points="41.43 431.38 82.92 431.38 122.17 674.14 81.8 674.14"></polygon>
            <polygon id="Shape" fill="#FF5A5F" fill-rule="nonzero" points="285.31 431.38 243.26 431.38 202.9 674.14 243.82 674.14"></polygon>
            <rect id="Rectangle-path" fill="#FF5A5F" fill-rule="nonzero" x="142.35" y="431.38" width="40.37" height="242.76"></rect>
            <circle id="Oval" fill="url(#linearGradient-64)" fill-rule="nonzero" cx="86.85" cy="385.97" r="15.14"></circle>
            <circle id="Oval" fill="#FBC02D" fill-rule="nonzero" cx="86.85" cy="385.97" r="13.46"></circle>
            <path d="M76.75,389.89 C76.7457373,384.481424 79.9815944,379.596429 84.9634098,377.490668 C89.9452252,375.384907 95.703759,376.468068 99.58,380.24 C97.2847567,375.369918 92.3065041,372.337771 86.9261891,372.532836 C81.545874,372.7279 76.8002651,376.112588 74.8637159,381.136094 C72.9271667,386.1596 74.1728438,391.853913 78.03,395.61 C77.1864418,393.821157 76.7493188,391.867764 76.75,389.89 Z" id="Shape" fill="#FFFFFF" fill-rule="nonzero" opacity="0.2"></path>
            <circle id="Oval" fill="url(#linearGradient-65)" fill-rule="nonzero" cx="124.97" cy="343.36" r="15.14"></circle>
            <circle id="Oval" fill="#FBC02D" fill-rule="nonzero" cx="124.97" cy="343.36" r="13.46"></circle>
            <path d="M114.88,347.29 C114.875737,341.881424 118.111594,336.996429 123.09341,334.890668 C128.075225,332.784907 133.833759,333.868068 137.71,337.64 C135.414757,332.769918 130.436504,329.737771 125.056189,329.932836 C119.675874,330.1279 114.930265,333.512588 112.993716,338.536094 C111.057167,343.5596 112.302844,349.253913 116.16,353.01 C115.316442,351.221157 114.879319,349.267764 114.88,347.29 Z" id="Shape" fill="#FFFFFF" fill-rule="nonzero" opacity="0.2"></path>
            <circle id="Oval" fill="url(#linearGradient-66)" fill-rule="nonzero" cx="71.71" cy="408.95" r="15.14"></circle>
            <circle id="Oval" fill="#FBC02D" fill-rule="nonzero" cx="71.71" cy="408.95" r="13.46"></circle>
            <path d="M61.61,412.88 C61.6057373,407.471424 64.8415944,402.586429 69.8234098,400.480668 C74.8052252,398.374907 80.563759,399.458068 84.44,403.23 C82.1398929,398.368365 77.1647218,395.344357 71.7900325,395.541099 C66.4153433,395.737841 61.6745805,399.117504 59.7360765,404.134295 C57.7975724,409.151086 59.0340624,414.840378 62.88,418.6 C62.0398909,416.810366 61.6061908,414.857008 61.61,412.88 Z" id="Shape" fill="#FFFFFF" fill-rule="nonzero" opacity="0.2"></path>
            <circle id="Oval" fill="url(#linearGradient-67)" fill-rule="nonzero" cx="53.57" cy="306.12" r="15.14"></circle>
            <circle id="Oval" fill="#FBC02D" fill-rule="nonzero" cx="53.57" cy="306.12" r="13.46"></circle>
            <path d="M43.48,310.05 C43.4757373,304.641424 46.7115944,299.756429 51.6934098,297.650668 C56.6752252,295.544907 62.433759,296.628068 66.31,300.4 C64.0147567,295.529918 59.0365041,292.497771 53.6561891,292.692836 C48.275874,292.8879 43.5302651,296.272588 41.5937159,301.296094 C39.6571667,306.3196 40.9028438,312.013913 44.76,315.77 C43.9164418,313.981157 43.4793188,312.027764 43.48,310.05 Z" id="Shape" fill="#FFFFFF" fill-rule="nonzero" opacity="0.2"></path>
            <g id="d4a79658-ee59-416f-a379-a492ff752217" transform="translate(770.000000, 251.000000)" fill="url(#linearGradient-68)" fill-rule="nonzero">
                <path d="M113.61,22.01 L104.51,0.14 L8.06,39.75 C3.59979332,41.5843114 0.686019834,45.9273342 0.68,50.75 L0.68,154.98 L28.55,158.22 L28.55,58.79 L113.61,22.01 Z" id="Shape"></path>
            </g>
            <path d="M879,272.58 L872.23,256.09 L781.96,293.15 C777.780028,294.868624 775.050959,298.940505 775.05,303.46 L775.05,400.99 L792.88,400.99 L792.88,307.96 L879,272.58 Z" id="2572ddba-42e8-4159-9036-35cbff74dfb7" fill="#F2F2F2" fill-rule="nonzero"></path>
            <polygon id="Shape" fill="url(#linearGradient-69)" fill-rule="nonzero" points="895.76 384 679.45 384 679.45 418.12 694.22 418.12 724.29 694.3 853.56 694.3 880.29 416.5 895.76 416.5"></polygon>
            <polygon id="Shape" fill="#FF5A5F" fill-rule="nonzero" points="847.96 688.63 728.87 688.63 699.7 396.96 873.89 396.96"></polygon>
            <rect id="Rectangle-path" fill="#FF5A5F" fill-rule="nonzero" x="687.55" y="392.1" width="199.3" height="19.44"></rect>
            <circle id="Oval" fill="url(#linearGradient-70)" fill-rule="nonzero" cx="787.2" cy="526.59" r="49.42"></circle>
            <circle id="Oval" fill="#FFFFFF" fill-rule="nonzero" cx="787.2" cy="526.59" r="45.37"></circle>
            <circle id="Oval" fill="url(#linearGradient-71)" fill-rule="nonzero" cx="117.26" cy="219.38" r="15.14"></circle>
            <circle id="Oval" fill="#FBC02D" fill-rule="nonzero" cx="117.26" cy="219.38" r="13.46"></circle>
            <path d="M107.16,223.3 C107.155737,217.891424 110.391594,213.006429 115.37341,210.900668 C120.355225,208.794907 126.113759,209.878068 129.99,213.65 C127.694757,208.779918 122.716504,205.747771 117.336189,205.942836 C111.955874,206.1379 107.210265,209.522588 105.273716,214.546094 C103.337167,219.5696 104.582844,225.263913 108.44,229.02 C107.596442,227.231157 107.159319,225.277764 107.16,223.3 Z" id="Shape" fill="#FFFFFF" fill-rule="nonzero" opacity="0.2"></path>
            <circle id="Oval" fill="url(#linearGradient-72)" fill-rule="nonzero" cx="172.16" cy="153.49" r="15.14"></circle>
            <circle id="Oval" fill="#FDD835" fill-rule="nonzero" cx="172.16" cy="153.49" r="13.46"></circle>
            <path d="M162.07,157.42 C162.073542,152.020023 165.306283,147.145714 170.279516,145.041738 C175.252749,142.937761 181.002124,144.012096 184.88,147.77 C182.583881,142.898581 177.603344,139.86643 172.221519,140.063517 C166.839694,140.260603 162.094279,143.648926 160.160623,148.675243 C158.226966,153.701559 159.477907,159.396719 163.34,163.15 C162.498449,161.357313 162.064714,159.40038 162.07,157.42 Z" id="Shape" fill="#FFFFFF" fill-rule="nonzero" opacity="0.2"></path>
            <circle id="Oval" fill="url(#linearGradient-73)" fill-rule="nonzero" cx="278.67" cy="295.14" r="15.14"></circle>
            <circle id="Oval" fill="#FDD835" fill-rule="nonzero" cx="278.67" cy="295.14" r="13.46"></circle>
            <path d="M268.58,299.07 C268.575737,293.661424 271.811594,288.776429 276.79341,286.670668 C281.775225,284.564907 287.533759,285.648068 291.41,289.42 C289.124372,284.533287 284.140046,281.485095 278.748639,281.676876 C273.357231,281.868656 268.602086,285.263295 266.669451,290.300058 C264.736816,295.336821 266.000695,301.040994 269.88,304.79 C269.02954,303.002743 268.585571,301.049277 268.58,299.07 Z" id="Shape" fill="#FFFFFF" fill-rule="nonzero" opacity="0.2"></path>
            <circle id="Oval" fill="url(#linearGradient-74)" fill-rule="nonzero" cx="363.22" cy="402.75" r="15.14"></circle>
            <circle id="Oval" fill="#FDD835" fill-rule="nonzero" cx="363.22" cy="402.75" r="13.46"></circle>
            <path d="M353.13,406.68 C353.125737,401.271424 356.361594,396.386429 361.34341,394.280668 C366.325225,392.174907 372.083759,393.258068 375.96,397.03 C373.664757,392.159918 368.686504,389.127771 363.306189,389.322836 C357.925874,389.5179 353.180265,392.902588 351.243716,397.926094 C349.307167,402.9496 350.552844,408.643913 354.41,412.4 C353.566442,410.611157 353.129319,408.657764 353.13,406.68 Z" id="Shape" fill="#FFFFFF" fill-rule="nonzero" opacity="0.2"></path>
            <circle id="Oval" fill="url(#linearGradient-75)" fill-rule="nonzero" cx="49.18" cy="665.19" r="15.14"></circle>
            <circle id="Oval" fill="#FBC02D" fill-rule="nonzero" cx="49.18" cy="665.19" r="13.46"></circle>
            <path d="M39.08,669.15 C39.0753823,663.748859 42.3021301,658.868855 47.2737531,656.758096 C52.2453761,654.647337 57.9974014,655.7153 61.88,659.47 C59.5847567,654.599918 54.6065041,651.567771 49.2261891,651.762836 C43.845874,651.9579 39.1002651,655.342588 37.1637159,660.366094 C35.2271667,665.3896 36.4728438,671.083913 40.33,674.84 C39.5010959,673.057954 39.0743453,671.115385 39.08,669.15 Z" id="Shape" fill="#FFFFFF" fill-rule="nonzero" opacity="0.2"></path>
            <circle id="Oval" fill="url(#linearGradient-76)" fill-rule="nonzero" cx="28.31" cy="637.73" r="15.14"></circle>
            <circle id="Oval" fill="#FDD835" fill-rule="nonzero" cx="28.31" cy="637.73" r="13.46"></circle>
            <path d="M18.22,641.66 C18.2157373,636.251424 21.4515944,631.366429 26.4334098,629.260668 C31.4152252,627.154907 37.173759,628.238068 41.05,632.01 C38.7547567,627.139918 33.7765041,624.107771 28.3961891,624.302836 C23.015874,624.4979 18.2702651,627.882588 16.3337159,632.906094 C14.3971667,637.9296 15.6428438,643.623913 19.5,647.38 C18.6564418,645.591157 18.2193188,643.637764 18.22,641.66 Z" id="Shape" fill="#FFFFFF" fill-rule="nonzero" opacity="0.2"></path>
            <circle id="Oval" fill="url(#linearGradient-77)" fill-rule="nonzero" cx="15.14" cy="489.5" r="15.14"></circle>
            <circle id="Oval" fill="#FBC02D" fill-rule="nonzero" cx="15.14" cy="489.5" r="13.46"></circle>
            <path d="M5.04,493.42 C5.03583956,488.008933 8.27473635,483.122257 13.2599593,481.018161 C18.2451823,478.914065 24.0058924,480.002308 27.88,483.78 C25.5798929,478.918365 20.6047218,475.894357 15.2300325,476.091099 C9.85534327,476.287841 5.11458051,479.667504 3.17607646,484.684295 C1.2375724,489.701086 2.47406236,495.390378 6.32,499.15 C5.47500013,497.358106 5.03784139,495.401137 5.04,493.42 Z" id="Shape" fill="#FFFFFF" fill-rule="nonzero" opacity="0.2"></path>
            <circle id="Oval" fill="url(#linearGradient-78)" fill-rule="nonzero" cx="300.63" cy="653.11" r="15.14"></circle>
            <circle id="Oval" fill="#FBC02D" fill-rule="nonzero" cx="300.63" cy="653.11" r="13.46"></circle>
            <path d="M290.54,657.03 C290.535737,651.621424 293.771594,646.736429 298.75341,644.630668 C303.735225,642.524907 309.493759,643.608068 313.37,647.38 C311.074757,642.509918 306.096504,639.477771 300.716189,639.672836 C295.335874,639.8679 290.590265,643.252588 288.653716,648.276094 C286.717167,653.2996 287.962844,658.993913 291.82,662.75 C290.976442,660.961157 290.539319,659.007764 290.54,657.03 Z" id="Shape" fill="#FFFFFF" fill-rule="nonzero" opacity="0.2"></path>
            <circle id="Oval" fill="url(#linearGradient-79)" fill-rule="nonzero" cx="328.08" cy="635.54" r="15.14"></circle>
            <circle id="Oval" fill="#FBC02D" fill-rule="nonzero" cx="328.08" cy="635.54" r="13.46"></circle>
            <path d="M317.99,639.47 C317.985737,634.061424 321.221594,629.176429 326.20341,627.070668 C331.185225,624.964907 336.943759,626.048068 340.82,629.82 C338.547514,624.922083 333.566321,621.857897 328.16991,622.038285 C322.7735,622.218673 318.008053,625.608663 316.067724,630.647404 C314.127394,635.686145 315.388346,641.396794 319.27,645.15 C318.432182,643.373367 317.995201,641.434265 317.99,639.47 Z" id="Shape" fill="#FFFFFF" fill-rule="nonzero" opacity="0.2"></path>
            <circle id="Oval" fill="url(#linearGradient-80)" fill-rule="nonzero" cx="331.38" cy="656.4" r="15.14"></circle>
            <circle id="Oval" fill="#FDD835" fill-rule="nonzero" cx="331.38" cy="656.4" r="13.46"></circle>
            <path d="M321.28,660.33 C321.275737,654.921424 324.511594,650.036429 329.49341,647.930668 C334.475225,645.824907 340.233759,646.908068 344.11,650.68 C341.814757,645.809918 336.836504,642.777771 331.456189,642.972836 C326.075874,643.1679 321.330265,646.552588 319.393716,651.576094 C317.457167,656.5996 318.702844,662.293913 322.56,666.05 C321.716442,664.261157 321.279319,662.307764 321.28,660.33 Z" id="Shape" fill="#FFFFFF" fill-rule="nonzero" opacity="0.2"></path>
            <circle id="Oval" fill="url(#linearGradient-81)" fill-rule="nonzero" cx="274.28" cy="656.4" r="15.14"></circle>
            <circle id="Oval" fill="#FDD835" fill-rule="nonzero" cx="274.28" cy="656.4" r="13.46"></circle>
            <path d="M264.18,660.33 C264.175737,654.921424 267.411594,650.036429 272.39341,647.930668 C277.375225,645.824907 283.133759,646.908068 287.01,650.68 C284.714757,645.809918 279.736504,642.777771 274.356189,642.972836 C268.975874,643.1679 264.230265,646.552588 262.293716,651.576094 C260.357167,656.5996 261.602844,662.293913 265.46,666.05 C264.616442,664.261157 264.179319,662.307764 264.18,660.33 Z" id="Shape" fill="#FFFFFF" fill-rule="nonzero" opacity="0.2"></path>
            <circle id="Oval" fill="url(#linearGradient-82)" fill-rule="nonzero" cx="759.61" cy="71.37" r="71.37"></circle>
            <circle id="Oval" fill="#FF5A5F" fill-rule="nonzero" cx="759.61" cy="71.37" r="66.98"></circle>
            <polygon id="Shape" fill="url(#linearGradient-83)" fill-rule="nonzero" points="803.96 71.37 736.92 104.31 736.92 71.37 736.92 38.43"></polygon>
            <polygon id="Shape" fill="#FFFFFF" fill-rule="nonzero" points="799.93 71.37 740.94 100.36 740.94 71.37 740.94 42.38"></polygon>
            <path d="M698.11,79.06 C698.132208,50.8184997 715.860939,25.6232946 742.436103,16.0659141 C769.011266,6.50853368 798.72596,14.6413839 816.73,36.4 C803.681441,14.940325 779.727032,2.58052767 754.676343,4.38206849 C729.625655,6.18360932 707.686333,21.843892 697.84275,44.9498742 C687.999166,68.0558564 691.904702,94.7265348 707.96,114.04 C701.50041,103.517268 698.090348,91.4072186 698.11,79.06 Z" id="Shape" fill="#FFFFFF" fill-rule="nonzero" opacity="0.2"></path>
        </g>
    </g>
</svg>