<?xml version="1.0" encoding="UTF-8"?>
<svg width="862px" height="704px" viewBox="0 0 862 704" version="1.1" xmlns="http://www.w3.org/2000/svg" xmlns:xlink="http://www.w3.org/1999/xlink">
    <!-- Generator: Sketch 48.2 (47327) - http://www.bohemiancoding.com/sketch -->
    <title>undraw_live_collaboration_2r4y</title>
    <desc>Created with Sketch.</desc>
    <defs>
        <linearGradient x1="50.0010736%" y1="100%" x2="50.0010736%" y2="0%" id="linearGradient-1">
            <stop stop-color="#808080" stop-opacity="0.25" offset="0%"></stop>
            <stop stop-color="#808080" stop-opacity="0.12" offset="54%"></stop>
            <stop stop-color="#808080" stop-opacity="0.1" offset="100%"></stop>
        </linearGradient>
        <linearGradient x1="30314%" y1="54835%" x2="30314%" y2="11867%" id="linearGradient-2">
            <stop stop-color="#808080" stop-opacity="0.25" offset="0%"></stop>
            <stop stop-color="#808080" stop-opacity="0.12" offset="54%"></stop>
            <stop stop-color="#808080" stop-opacity="0.1" offset="100%"></stop>
        </linearGradient>
        <linearGradient x1="73030%" y1="70319%" x2="73030%" y2="44462%" id="linearGradient-3">
            <stop stop-color="#808080" stop-opacity="0.25" offset="0%"></stop>
            <stop stop-color="#808080" stop-opacity="0.12" offset="54%"></stop>
            <stop stop-color="#808080" stop-opacity="0.1" offset="100%"></stop>
        </linearGradient>
        <linearGradient x1="73271%" y1="25857%" x2="73271%" y2="0%" id="linearGradient-4">
            <stop stop-color="#808080" stop-opacity="0.25" offset="0%"></stop>
            <stop stop-color="#808080" stop-opacity="0.12" offset="54%"></stop>
            <stop stop-color="#808080" stop-opacity="0.1" offset="100%"></stop>
        </linearGradient>
    </defs>
    <g id="Page-1" stroke="none" stroke-width="1" fill="none" fill-rule="evenodd">
        <g id="undraw_live_collaboration_2r4y">
            <g id="Group" opacity="0.5" transform="translate(0.000000, 19.000000)" fill="url(#linearGradient-1)" fill-rule="nonzero">
                <rect id="Rectangle-path" x="0" y="0.38" width="465.71" height="429.68" rx="4.5"></rect>
            </g>
            <rect id="Rectangle-path" fill="#F5F5F5" fill-rule="nonzero" x="5.68" y="22.71" width="454.97" height="419.26" rx="4.5"></rect>
            <rect id="Rectangle-path" fill="#FF5A5F" fill-rule="nonzero" x="40.75" y="91.77" width="76.73" height="69.06" rx="4.5"></rect>
            <rect id="Rectangle-path" fill="#E0E0E0" fill-rule="nonzero" x="140.49" y="91.77" width="305.02" height="7.67" rx="3.44"></rect>
            <rect id="Rectangle-path" fill="#E0E0E0" fill-rule="nonzero" x="140.49" y="114.79" width="305.02" height="7.67" rx="3.44"></rect>
            <rect id="Rectangle-path" fill="#E0E0E0" fill-rule="nonzero" x="33.07" y="198.34" width="412.44" height="7.67" rx="3.44"></rect>
            <rect id="Rectangle-path" fill="#E0E0E0" fill-rule="nonzero" x="33.07" y="221.35" width="412.44" height="7.67" rx="3.44"></rect>
            <rect id="Rectangle-path" fill="#E0E0E0" fill-rule="nonzero" x="33.07" y="252.05" width="412.44" height="7.67" rx="3.44"></rect>
            <rect id="Rectangle-path" fill="#E0E0E0" fill-rule="nonzero" x="33.07" y="275.06" width="237.86" height="7.67" rx="3.44"></rect>
            <rect id="Rectangle-path" fill="#E0E0E0" fill-rule="nonzero" x="33.07" y="305.68" width="412.44" height="7.67" rx="3.44"></rect>
            <rect id="Rectangle-path" fill="#E0E0E0" fill-rule="nonzero" x="33.07" y="328.7" width="412.44" height="7.67" rx="3.44"></rect>
            <rect id="Rectangle-path" fill="#E0E0E0" fill-rule="nonzero" x="33.07" y="359.39" width="412.44" height="7.67" rx="3.44"></rect>
            <rect id="Rectangle-path" fill="#E0E0E0" fill-rule="nonzero" x="33.07" y="382.41" width="237.86" height="7.67" rx="3.44"></rect>
            <g id="Group" opacity="0.5" transform="translate(70.000000, 118.000000)" fill="url(#linearGradient-2)" fill-rule="nonzero">
                <rect id="Rectangle-path" x="0.29" y="0.67" width="465.71" height="429.68" rx="4.5"></rect>
            </g>
            <rect id="Rectangle-path" fill="#FFFFFF" fill-rule="nonzero" x="75.97" y="122" width="454.97" height="419.26" rx="4.5"></rect>
            <rect id="Rectangle-path" fill="#FF5A5F" fill-rule="nonzero" x="111.03" y="191.06" width="76.73" height="69.06" rx="4.5"></rect>
            <rect id="Rectangle-path" fill="#E0E0E0" fill-rule="nonzero" x="210.78" y="191.06" width="305.02" height="7.67" rx="3.44"></rect>
            <rect id="Rectangle-path" fill="#E0E0E0" fill-rule="nonzero" x="210.78" y="214.08" width="305.02" height="7.67" rx="3.44"></rect>
            <rect id="Rectangle-path" fill="#E0E0E0" fill-rule="nonzero" x="103.36" y="297.63" width="412.44" height="7.67" rx="3.44"></rect>
            <rect id="Rectangle-path" fill="#E0E0E0" fill-rule="nonzero" x="103.36" y="320.65" width="412.44" height="7.67" rx="3.44"></rect>
            <rect id="Rectangle-path" fill="#E0E0E0" fill-rule="nonzero" x="103.36" y="351.34" width="412.44" height="7.67" rx="3.44"></rect>
            <rect id="Rectangle-path" fill="#E0E0E0" fill-rule="nonzero" x="103.36" y="374.36" width="237.86" height="7.67" rx="3.44"></rect>
            <rect id="Rectangle-path" fill="#E0E0E0" fill-rule="nonzero" x="103.36" y="404.97" width="412.44" height="7.67" rx="3.44"></rect>
            <rect id="Rectangle-path" fill="#E0E0E0" fill-rule="nonzero" x="103.36" y="427.99" width="412.44" height="7.67" rx="3.44"></rect>
            <rect id="Rectangle-path" fill="#E0E0E0" fill-rule="nonzero" x="103.36" y="458.68" width="412.44" height="7.67" rx="3.44"></rect>
            <rect id="Rectangle-path" fill="#E0E0E0" fill-rule="nonzero" x="103.36" y="481.7" width="237.86" height="7.67" rx="3.44"></rect>
            <path d="M536,276.74 L540.36,272.62" id="Shape" stroke="#535461"></path>
            <path d="M549.5,263.97 L709.45,112.61" id="Shape" stroke="#535461" stroke-dasharray="12.58"></path>
            <path d="M714.02,108.28 L718.37,104.16" id="Shape" stroke="#535461"></path>
            <path d="M537.63,427.99 L542.1,432" id="Shape" stroke="#535461"></path>
            <path d="M551.36,440.31 L713.39,585.77" id="Shape" stroke="#535461" stroke-dasharray="12.44"></path>
            <path d="M718.02,589.93 L722.48,593.93" id="Shape" stroke="#535461"></path>
            <g id="Group" opacity="0.5" transform="translate(601.000000, 444.000000)" fill="url(#linearGradient-3)" fill-rule="nonzero">
                <circle id="Oval" cx="129.3" cy="129.91" r="129.29"></circle>
            </g>
            <circle id="Oval" fill="#F5F5F5" fill-rule="nonzero" cx="730.3" cy="573.2" r="126.56"></circle>
            <path d="M800.3,584.6 C800.3,631.21 769.88,683.1 732.37,683.1 C694.86,683.1 664.44,631.2 664.44,584.6 C664.44,538 694.86,514.33 732.37,514.33 C769.88,514.33 800.3,537.98 800.3,584.6 Z" id="Shape" fill="#FDD835" fill-rule="nonzero"></path>
            <path d="M730.66,700.14 C755.390706,700.177838 779.585753,692.937061 800.23,679.32 C795.57,653.83 777.82,652.38 777.82,652.38 L680,652.38 C680,652.38 663.25,653.76 658,677.2 C679.272115,692.162127 704.652945,700.175288 730.66,700.14 Z" id="Shape" fill="#FF5A5F" fill-rule="nonzero"></path>
            <path d="M709.61,621.29 L748.75,621.29 L748.75,654.63 C748.75,664.317075 740.897075,672.17 731.21,672.17 L727.15,672.17 C717.462925,672.17 709.61,664.317075 709.61,654.63 L709.61,621.29 Z" id="Shape" fill="#000000" fill-rule="nonzero" opacity="0.1"></path>
            <path d="M713,619.84 L745.45,619.84 C747.300154,619.84 748.8,621.339846 748.8,623.19 L748.8,653.19 C748.8,662.877075 740.947075,670.73 731.26,670.73 L727.2,670.73 C717.512925,670.73 709.66,662.877075 709.66,653.19 L709.66,623.19 C709.659992,621.343744 711.153753,619.845511 713,619.84 Z" id="Shape" fill="#FDB797" fill-rule="nonzero"></path>
            <path d="M709.68,636.08 C722.294119,640.793847 736.179584,640.832871 748.82,636.19 L748.82,631.38 L709.68,631.38 L709.68,636.08 Z" id="Shape" fill="#000000" fill-rule="nonzero" opacity="0.1"></path>
            <circle id="Oval" fill="#FDB797" fill-rule="nonzero" cx="729.33" cy="582.59" r="56.1"></circle>
            <ellipse id="Oval" fill="#FDB797" fill-rule="nonzero" cx="674.38" cy="580.2" rx="5.22" ry="9.79"></ellipse>
            <ellipse id="Oval" fill="#FDB797" fill-rule="nonzero" cx="783.98" cy="580.2" rx="5.22" ry="9.79"></ellipse>
            <path d="M679.61,552.16 C679.61,552.16 711.37,595.6 784.07,580.75 C784.07,580.75 792.19,570.87 772.42,540.52 C752.65,510.17 697.61,515.11 679.61,552.16 Z" id="Shape" fill="#000000" fill-rule="nonzero" opacity="0.1"></path>
            <path d="M679.61,551.46 C679.61,551.46 711.37,594.87 784.07,580.05 C784.07,580.05 792.19,570.17 772.42,539.82 C752.65,509.47 697.61,514.4 679.61,551.46 Z" id="Shape" fill="#FDD835" fill-rule="nonzero"></path>
            <g id="Group" opacity="0.5" transform="translate(603.000000, 0.000000)" fill="url(#linearGradient-4)" fill-rule="nonzero">
                <circle id="Oval" cx="129.71" cy="129.29" r="129.29"></circle>
            </g>
            <circle id="Oval" fill="#F5F5F5" fill-rule="nonzero" cx="732.97" cy="128.46" r="126.56"></circle>
            <path d="M733.07,255.52 C757.800706,255.557838 781.995753,248.317061 802.64,234.7 C797.98,209.21 780.23,207.76 780.23,207.76 L682.37,207.76 C682.37,207.76 665.62,209.14 660.37,232.58 C681.653275,247.550004 707.049298,255.563549 733.07,255.52 Z" id="Shape" fill="#FF5A5F" fill-rule="nonzero"></path>
            <circle id="Oval" fill="#333333" fill-rule="nonzero" cx="731.74" cy="125.79" r="61.09"></circle>
            <path d="M712,176.67 L751.14,176.67 L751.14,210 C751.14,219.687075 743.287075,227.54 733.6,227.54 L729.54,227.54 C719.852925,227.54 712,219.687075 712,210 L712,176.67 Z" id="Shape" fill="#000000" fill-rule="nonzero" opacity="0.1"></path>
            <path d="M715.37,175.22 L747.82,175.22 C749.670154,175.22 751.17,176.719846 751.17,178.57 L751.17,208.57 C751.17,218.257075 743.317075,226.11 733.63,226.11 L729.57,226.11 C724.912907,226.117965 720.443829,224.273523 717.147949,220.983272 C713.85207,217.69302 711.999993,213.2271 712,208.57 L712,178.57 C711.999984,177.678049 712.355674,176.822918 712.988253,176.194093 C713.620832,175.565268 714.478065,175.214675 715.37,175.22 Z" id="Shape" fill="#FDB797" fill-rule="nonzero"></path>
            <path d="M712.1,191.46 C724.714119,196.173847 738.599584,196.212871 751.24,191.57 L751.24,186.76 L712.1,186.76 L712.1,191.46 Z" id="Shape" fill="#000000" fill-rule="nonzero" opacity="0.1"></path>
            <circle id="Oval" fill="#FDB797" fill-rule="nonzero" cx="731.74" cy="137.97" r="56.1"></circle>
            <path d="M691.78,86.94 C691.78,86.94 715.42,134.94 782.12,107.06 L766.59,82.71 L739.06,72.83 L691.78,86.94 Z" id="Shape" fill="#000000" fill-rule="nonzero" opacity="0.1"></path>
            <path d="M691.78,86.24 C691.78,86.24 715.42,134.24 782.12,106.36 L766.59,82 L739.06,72.12 L691.78,86.24 Z" id="Shape" fill="#333333" fill-rule="nonzero"></path>
            <path d="M691.57,82.99 C693.153568,78.0564825 695.896911,73.5745453 699.57,69.92 C710.57,59.01 728.7,56.71 737.98,44.27 C739.001257,46.0494312 739.22193,48.1778939 738.587443,50.1289878 C737.952956,52.0800818 736.522556,53.671623 734.65,54.51 C743.53,54.45 753.84,53.67 758.87,46.35 C761.407149,52.2527684 760.317089,59.0890007 756.07,63.91 C763.95,64.27 772.36,69.62 772.87,77.49 C773.21,82.73 769.92,87.7 765.61,90.71 C761.3,93.72 756.09,95.1 750.95,96.23 C736,99.54 681.79,113.39 691.57,82.99 Z" id="Shape" fill="#333333" fill-rule="nonzero"></path>
            <ellipse id="Oval" fill="#FDB797" fill-rule="nonzero" cx="675.61" cy="137.92" rx="5.22" ry="9.79"></ellipse>
            <ellipse id="Oval" fill="#FDB797" fill-rule="nonzero" cx="787.84" cy="137.92" rx="5.22" ry="9.79"></ellipse>
        </g>
    </g>
</svg>